{
classes = (
{
automatic = 1;
code = "A Aacute Abreve Acircumflex Adieresis Agrave Amacron Aogonek Aring Aringacute Atilde AE AEacute B C Cacute Ccaron Ccedilla Ccircumflex Cdotaccent D Eth Dcaron Dcroat E Eacute Ebreve Ecaron Ecircumflex Edieresis Edotaccent Egrave Emacron Eogonek F G Gbreve Gcircumflex Gcommaaccent Gdotaccent H Hbar Hcircumflex I IJ Iacute Ibreve Icircumflex Idieresis Idotaccent Igrave Imacron Iogonek Itilde J Jcircumflex K Kcommaaccent L Lacute Lcaron Lcommaaccent Ldot Lslash M N Nacute Ncaron Ncommaaccent Eng Ntilde O Oacute Obreve Ocircumflex Odieresis Ograve Ohungarumlaut Omacron Oslash Oslashacute Otilde OE P Thorn Q R Racute Rcaron Rcommaaccent S Sacute Scaron Scedilla Scircumflex Scommaaccent T Tbar Tcaron Tcedilla Tcommaaccent U Uacute Ubreve Ucircumflex Udieresis Ugrave Uhungarumlaut Umacron Uogonek Uring Utilde V W Wacute Wcircumflex Wdieresis Wgrave X Y Yacute Ycircumflex Ydieresis Ygrave Z Zacute Zcaron Zdotaccent Delta Omega";
name = Uppercase;
},
{
automatic = 1;
code = "iMatra-deva iMatra-deva.00 iMatra-deva.01 iMatra-deva.02 iMatra-deva.03 iMatra-deva.04 iMatra-deva.05 iMatra-deva.06 iMatra-deva.07 iMatra-deva.08 iMatra-deva.09 iMatra-deva.10 iMatra-deva.11 iMatra-deva.12 iMatra-deva.13 iMatra-deva.14 iMatra-deva.15 iMatra-deva.16 iMatra-deva.17 iMatra-deva.18 iMatra-deva.19 iMatra-deva.20 iMatra-deva.21 iMatra-deva.22 iMatra-deva.23 iMatra-deva.24 iMatra-deva.25 iMatra-deva.26 iMatra-deva.27 iMatra-deva.28 iMatra-deva.29 iMatra-deva.30";
name = DevaIMatras;
},
{
automatic = 1;

glyphs = (
{
glyphname = A;
lastChange = "2015-01-27 09:06:04 +0000";
layers = (
{
anchors = (
{
name = ogonek;
position = "{287, 6}";
},
{
name = top;
position = "{159, 399}";
}
);
layerId = "E0AA17FE-947E-4089-955E-70E92921D86D";
name = Regular;
paths = (
{
closed = 1;
nodes = (
"192 399 LINE",
"127 399 LINE",
"-1 0 LINE",
"51 0 LINE",
"78 89 LINE",
"237 89 LINE",
"264 0 LINE",
"319 0 LINE"
);
},
{
closed = 1;
nodes = (
"158 358 LINE",
"158 358 OFFCURVE",
"163 327 OFFCURVE",
"168 314 CURVE SMOOTH",
"222 136 LINE",
"92 136 LINE",
"147 314 LINE SMOOTH",
"151 326 OFFCURVE",
"156 358 OFFCURVE",
"156 358 CURVE"
);
}
);
width = 319;
},
{
anchors = (
{
name = ogonek;
position = "{310, 6}";
},
{
name = top;
position = "{173, 399}";
}
);
layerId = "256C563F-4683-4C38-8505-F28FAA76841F";
name = Bold;
paths = (
{
closed = 1;
nodes = (
"215 399 LINE",
"129 399 LINE",
"0 0 LINE",
"72 0 LINE",
"96 78 LINE",
"244 78 LINE",
"268 0 LINE",
"344 0 LINE"
);
},
{
closed = 1;
nodes = (
"171 333 LINE",
"171 333 OFFCURVE",
"177 299 OFFCURVE",
"183 279 CURVE SMOOTH",
"223 145 LINE",
"117 145 LINE",
"158 279 LINE SMOOTH",
"163 297 OFFCURVE",
"169 333 OFFCURVE",
"169 333 CURVE"
);
}
);
width = 345;
}
);
unicode = 0041;
},
{
glyphname = Aacute;
lastChange = "2015-01-27 09:06:03 +0000";
layers = (
{
layerId = "E0AA17FE-947E-4089-955E-70E92921D86D";
name = Regular;
paths = (
{
closed = 1;
nodes = (
"192 399 LINE",
"127 399 LINE",
"-1 0 LINE",
"51 0 LINE",
"78 89 LINE",
"237 89 LINE",
"264 0 LINE",
"319 0 LINE"
);
},
{
closed = 1;
nodes = (
"158 358 LINE",
"158 358 OFFCURVE",
"163 327 OFFCURVE",
"168 314 CURVE SMOOTH",
"222 136 LINE",
"92 136 LINE",
"147 314 LINE SMOOTH",
"151 326 OFFCURVE",
"156 358 OFFCURVE",
"156 358 CURVE"
);
},
{
closed = 1;
nodes = (
"227 515 LINE",
"175 515 LINE",
"125 438 LINE",
"165 438 LINE",
"228 513 LINE"
);
}
);
width = 319;
},
{
layerId = "256C563F-4683-4C38-8505-F28FAA76841F";
name = Bold;
paths = (
{
closed = 1;
nodes = (
"215 399 LINE",
"129 399 LINE",
"0 0 LINE",
"72 0 LINE",
"96 78 LINE",
"244 78 LINE",
"268 0 LINE",
"344 0 LINE"
);
},
{
closed = 1;
nodes = (
"171 333 LINE",
"171 333 OFFCURVE",
"177 299 OFFCURVE",
"183 279 CURVE SMOOTH",
"223 145 LINE",
"117 145 LINE",
"158 279 LINE SMOOTH",
"163 297 OFFCURVE",
"169 333 OFFCURVE",
"169 333 CURVE"
);
},
{
closed = 1;
nodes = (
"252 515 LINE",
"183 515 LINE",
"132 438 LINE",
"190 438 LINE",
"253 513 LINE"
);
}
);
width = 345;
}
);
unicode = 00C1;
},
{
glyphname = Abreve;
lastChange = "2015-01-27 09:06:03 +0000";
layers = (
{
layerId = "E0AA17FE-947E-4089-955E-70E92921D86D";
name = Regular;
paths = (
{
closed = 1;
nodes = (
"192 399 LINE",
"127 399 LINE",
"-1 0 LINE",
"51 0 LINE",
"78 89 LINE",
"237 89 LINE",
"264 0 LINE",
"319 0 LINE"
);
},
{
closed = 1;
nodes = (
"158 358 LINE",
"158 358 OFFCURVE",
"163 327 OFFCURVE",
"168 314 CURVE SMOOTH",
"222 136 LINE",
"92 136 LINE",
"147 314 LINE SMOOTH",
"151 326 OFFCURVE",
"156 358 OFFCURVE",
"156 358 CURVE"
);
},
{
closed = 1;
nodes = (
"194 515 LINE",
"193 506 OFFCURVE",
"179 495 OFFCURVE",
"159 495 CURVE SMOOTH",
"140 495 OFFCURVE",
"127 506 OFFCURVE",
"125 515 CURVE",
"88 515 LINE",
"88 488 OFFCURVE",
"115 458 OFFCURVE",
"159 458 CURVE SMOOTH",
"204 458 OFFCURVE",
"231 488 OFFCURVE",
"231 515 CURVE"
);
}
);
width = 319;
},
{
layerId = "256C563F-4683-4C38-8505-F28FAA76841F";
name = Bold;
paths = (
{
closed = 1;
nodes = (
"215 399 LINE",
"129 399 LINE",
"0 0 LINE",
"72 0 LINE",
"96 78 LINE",
"244 78 LINE",
"268 0 LINE",
"344 0 LINE"
);
},
{
closed = 1;
nodes = (
"171 333 LINE",
"171 333 OFFCURVE",
"177 299 OFFCURVE",
"183 279 CURVE SMOOTH",
"223 145 LINE",
"117 145 LINE",
"158 279 LINE SMOOTH",
"163 297 OFFCURVE",
"169 333 OFFCURVE",
"169 333 CURVE"
);
},
{
closed = 1;
nodes = (
"207 515 LINE",
"206 506 OFFCURVE",
"192 495 OFFCURVE",
"172 495 CURVE SMOOTH",
"153 495 OFFCURVE",
"140 506 OFFCURVE",
"138 515 CURVE",
"95 515 LINE",
"95 485 OFFCURVE",
"124 452 OFFCURVE",
"172 452 CURVE SMOOTH",
"220 452 OFFCURVE",
"250 485 OFFCURVE",
"250 515 CURVE"
);
}
);
width = 345;
}
);
unicode = 0102;
},
{
glyphname = Acircumflex;
lastChange = "2015-01-27 09:06:03 +0000";
layers = (
{
layerId = "E0AA17FE-947E-4089-955E-70E92921D86D";
name = Regular;
paths = (
{
closed = 1;
nodes = (
"192 399 LINE",
"127 399 LINE",
"-1 0 LINE",
"51 0 LINE",
"78 89 LINE",
"237 89 LINE",
"264 0 LINE",
"319 0 LINE"
);
},
{
closed = 1;
nodes = (
"158 358 LINE",
"158 358 OFFCURVE",
"163 327 OFFCURVE",
"168 314 CURVE SMOOTH",
"222 136 LINE",
"92 136 LINE",
"147 314 LINE SMOOTH",
"151 326 OFFCURVE",
"156 358 OFFCURVE",
"156 358 CURVE"
);
},
{
closed = 1;
nodes = (
"183 514 LINE",
"137 514 LINE",
"87 435 LINE",
"133 435 LINE",
"159 481 LINE",
"185 435 LINE",
"232 435 LINE"
);
}
);
width = 319;
},
{
layerId = "256C563F-4683-4C38-8505-F28FAA76841F";
name = Bold;
paths = (
{
closed = 1;
nodes = (
"215 399 LINE",
"129 399 LINE",
"0 0 LINE",
"72 0 LINE",
"96 78 LINE",
"244 78 LINE",
"268 0 LINE",
"344 0 LINE"
);
},
{
closed = 1;
nodes = (
"171 333 LINE",
"171 333 OFFCURVE",
"177 299 OFFCURVE",
"183 279 CURVE SMOOTH",
"223 145 LINE",
"117 145 LINE",
"158 279 LINE SMOOTH",
"163 297 OFFCURVE",
"169 333 OFFCURVE",
"169 333 CURVE"
);
},
{
closed = 1;
nodes = (
"202 515 LINE",
"144 515 LINE",
"94 436 LINE",
"146 436 LINE",
"173 476 LINE",
"198 436 LINE",
"251 436 LINE"
);
}
);
width = 345;
}
);
unicode = 00C2;
},
{
glyphname = Adieresis;
lastChange = "2015-01-27 09:06:03 +0000";
layers = (
{
layerId = "E0AA17FE-947E-4089-955E-70E92921D86D";
name = Regular;
paths = (
{
closed = 1;
nodes = (
"192 399 LINE",
"127 399 LINE",
"-1 0 LINE",
"51 0 LINE",
"78 89 LINE",
"237 89 LINE",
"264 0 LINE",
"319 0 LINE"
);
},
{
closed = 1;
nodes = (
"158 358 LINE",
"158 358 OFFCURVE",
"163 327 OFFCURVE",
"168 314 CURVE SMOOTH",
"222 136 LINE",
"92 136 LINE",
"147 314 LINE SMOOTH",
"151 326 OFFCURVE",
"156 358 OFFCURVE",
"156 358 CURVE"
);
},
{
closed = 1;
nodes = (
"141 515 LINE",
"90 515 LINE",
"90 459 LINE",
"141 459 LINE"
);
},
{
closed = 1;
nodes = (
"229 515 LINE",
"178 515 LINE",
"178 459 LINE",
"229 459 LINE"
);
}
);
width = 319;
},
{
layerId = "256C563F-4683-4C38-8505-F28FAA76841F";
name = Bold;
paths = (
{
closed = 1;
nodes = (
"215 399 LINE",
"129 399 LINE",
"0 0 LINE",
"72 0 LINE",
"96 78 LINE",
"244 78 LINE",
"268 0 LINE",
"344 0 LINE"
);
},
{
closed = 1;
nodes = (
"171 333 LINE",
"171 333 OFFCURVE",
"177 299 OFFCURVE",
"183 279 CURVE SMOOTH",
"223 145 LINE",
"117 145 LINE",
"158 279 LINE SMOOTH",
"163 297 OFFCURVE",
"169 333 OFFCURVE",
"169 333 CURVE"
);
},
{
closed = 1;
nodes = (
"151 515 LINE",
"93 515 LINE",
"93 451 LINE",
"151 451 LINE"
);
},
{
closed = 1;
nodes = (
"253 515 LINE",
"194 515 LINE",
"194 451 LINE",
"253 451 LINE"
);
}
);
width = 345;
}
);
unicode = 00C4;
},
{
glyphname = Agrave;
lastChange = "2015-01-27 09:06:03 +0000";
layers = (
{
layerId = "E0AA17FE-947E-4089-955E-70E92921D86D";
name = Regular;
paths = (
{
closed = 1;
nodes = (
"192 399 LINE",
"127 399 LINE",
"-1 0 LINE",
"51 0 LINE",
"78 89 LINE",
"237 89 LINE",
"264 0 LINE",
"319 0 LINE"
);
},
{
closed = 1;
nodes = (
"158 358 LINE",
"158 358 OFFCURVE",
"163 327 OFFCURVE",
"168 314 CURVE SMOOTH",
"222 136 LINE",
"92 136 LINE",
"147 314 LINE SMOOTH",
"151 326 OFFCURVE",
"156 358 OFFCURVE",
"156 358 CURVE"
);
},
{
closed = 1;
nodes = (
"144 515 LINE",
"92 515 LINE",
"91 513 LINE",
"154 438 LINE",
"194 438 LINE"
);
}
);
width = 319;
},
{
layerId = "256C563F-4683-4C38-8505-F28FAA76841F";
name = Bold;
paths = (
{
closed = 1;
nodes = (
"215 399 LINE",
"129 399 LINE",
"0 0 LINE",
"72 0 LINE",
"96 78 LINE",
"244 78 LINE",
"268 0 LINE",
"344 0 LINE"
);
},
{
closed = 1;
nodes = (
"171 333 LINE",
"171 333 OFFCURVE",
"177 299 OFFCURVE",
"183 279 CURVE SMOOTH",
"223 145 LINE",
"117 145 LINE",
"158 279 LINE SMOOTH",
"163 297 OFFCURVE",
"169 333 OFFCURVE",
"169 333 CURVE"
);
},
{
closed = 1;
nodes = (
"163 515 LINE",
"93 515 LINE",
"92 513 LINE",
"155 438 LINE",
"213 438 LINE"
);
}
);
width = 345;
}
);
unicode = 00C0;
},
{
glyphname = Amacron;
lastChange = "2015-01-27 09:06:03 +0000";
layers = (
{
layerId = "E0AA17FE-947E-4089-955E-70E92921D86D";
name = Regular;
paths = (
{
closed = 1;
nodes = (
"192 399 LINE",
"127 399 LINE",
"-1 0 LINE",
"51 0 LINE",
"78 89 LINE",
"237 89 LINE",
"264 0 LINE",
"319 0 LINE"
);
},
{
closed = 1;
nodes = (
"158 358 LINE",
"158 358 OFFCURVE",
"163 327 OFFCURVE",
"168 314 CURVE SMOOTH",
"222 136 LINE",
"92 136 LINE",
"147 314 LINE SMOOTH",
"151 326 OFFCURVE",
"156 358 OFFCURVE",
"156 358 CURVE"
);
},
{
closed = 1;
nodes = (
"233 484 LINE",
"86 484 LINE",
"86 442 LINE",
"233 442 LINE"
);
}
);
width = 319;
},
{
layerId = "256C563F-4683-4C38-8505-F28FAA76841F";
name = Bold;
paths = (
{
closed = 1;
nodes = (
"215 399 LINE",
"129 399 LINE",
"0 0 LINE",
"72 0 LINE",
"96 78 LINE",
"244 78 LINE",
"268 0 LINE",
"344 0 LINE"
);
},
{
closed = 1;
nodes = (
"171 333 LINE",
"171 333 OFFCURVE",
"177 299 OFFCURVE",
"183 279 CURVE SMOOTH",
"223 145 LINE",
"117 145 LINE",
"158 279 LINE SMOOTH",
"163 297 OFFCURVE",
"169 333 OFFCURVE",
"169 333 CURVE"
);
},
{
closed = 1;
nodes = (
"247 493 LINE",
"98 493 LINE",
"98 442 LINE",
"247 442 LINE"
);
}
);
width = 345;
}
);
unicode = 0100;
},
{
glyphname = Aogonek;
lastChange = "2015-01-27 09:06:03 +0000";
layers = (
{
layerId = "E0AA17FE-947E-4089-955E-70E92921D86D";
name = Regular;
paths = (
{
closed = 1;
nodes = (
"264 0 LINE",
"319 0 LINE",
"192 399 LINE",
"127 399 LINE",
"-1 0 LINE",
"51 0 LINE",
"78 89 LINE",
"237 89 LINE"
);
},
{
closed = 1;
nodes = (
"158 358 LINE",
"158 358 OFFCURVE",
"163 327 OFFCURVE",
"168 314 CURVE SMOOTH",
"222 136 LINE",
"92 136 LINE",
"147 314 LINE SMOOTH",
"151 326 OFFCURVE",
"156 358 OFFCURVE",
"156 358 CURVE"
);
},
{
closed = 1;
nodes = (
"283 0 LINE",
"272 -14 OFFCURVE",
"260 -27 OFFCURVE",
"260 -53 CURVE SMOOTH",
"260 -94 OFFCURVE",
"289 -106 OFFCURVE",
"314 -106 CURVE SMOOTH",
"326 -106 OFFCURVE",
"338 -103 OFFCURVE",
"350 -98 CURVE",
"350 -68 LINE",
"332 -68 LINE SMOOTH",
"312 -68 OFFCURVE",
"305 -53 OFFCURVE",
"305 -36 CURVE SMOOTH",
"305 -20 OFFCURVE",
"313 -9 OFFCURVE",
"319 0 CURVE"
);
}
);
width = 319;
},
{
layerId = "256C563F-4683-4C38-8505-F28FAA76841F";
name = Bold;
paths = (
{
closed = 1;
nodes = (
"268 0 LINE",
"344 0 LINE",
"215 399 LINE",
"129 399 LINE",
"0 0 LINE",
"72 0 LINE",
"96 78 LINE",
"244 78 LINE"
);
},
{
closed = 1;
nodes = (
"171 333 LINE",
"171 333 OFFCURVE",
"177 299 OFFCURVE",
"183 279 CURVE SMOOTH",
"223 145 LINE",
"117 145 LINE",
"158 279 LINE SMOOTH",
"163 297 OFFCURVE",
"169 333 OFFCURVE",
"169 333 CURVE"
);
},
{
closed = 1;
nodes = (
"296 0 LINE",
"283 -16 OFFCURVE",
"270 -29 OFFCURVE",
"270 -58 CURVE SMOOTH",
"270 -98 OFFCURVE",
"301 -111 OFFCURVE",
"328 -111 CURVE SMOOTH",
"340 -111 OFFCURVE",
"353 -108 OFFCURVE",
"366 -103 CURVE",
"366 -71 LINE",
"353 -71 LINE SMOOTH",
"334 -71 OFFCURVE",
"327 -56 OFFCURVE",
"327 -41 CURVE SMOOTH",
"327 -22 OFFCURVE",
"337 -7 OFFCURVE",
"344 0 CURVE"
);
}
);
width = 345;
}
);
unicode = 0104;
},
{
glyphname = Aring;
lastChange = "2015-01-27 09:06:03 +0000";
layers = (
{
layerId = "E0AA17FE-947E-4089-955E-70E92921D86D";
name = Regular;
paths = (
{
closed = 1;
nodes = (
"192 399 LINE",
"127 399 LINE",
"-1 0 LINE",
"51 0 LINE",
"78 89 LINE",
"237 89 LINE",
"264 0 LINE",
"319 0 LINE"
);
},
{
closed = 1;
nodes = (
"158 358 LINE",
"158 358 OFFCURVE",
"163 327 OFFCURVE",
"168 314 CURVE SMOOTH",
"222 136 LINE",
"92 136 LINE",
"147 314 LINE SMOOTH",
"151 326 OFFCURVE",
"156 358 OFFCURVE",
"156 358 CURVE"
);
},
{
closed = 1;
nodes = (
"128 533 OFFCURVE",
"103 508 OFFCURVE",
"103 477 CURVE SMOOTH",
"103 445 OFFCURVE",
"129 421 OFFCURVE",
"159 421 CURVE SMOOTH",
"190 421 OFFCURVE",
"215 446 OFFCURVE",
"215 477 CURVE SMOOTH",
"215 507 OFFCURVE",
"191 533 OFFCURVE",
"159 533 CURVE SMOOTH"
);
},
{
closed = 1;
nodes = (
"175 507 OFFCURVE",
"188 494 OFFCURVE",
"188 477 CURVE SMOOTH",
"188 461 OFFCURVE",
"175 447 OFFCURVE",
"159 447 CURVE SMOOTH",
"143 447 OFFCURVE",
"129 461 OFFCURVE",
"129 477 CURVE SMOOTH",
"129 494 OFFCURVE",
"143 507 OFFCURVE",
"159 507 CURVE SMOOTH"
);
}
);
width = 319;
},
{
layerId = "256C563F-4683-4C38-8505-F28FAA76841F";
name = Bold;
paths = (
{
closed = 1;
nodes = (
"215 399 LINE",
"129 399 LINE",
"0 0 LINE",
"72 0 LINE",
"96 78 LINE",
"244 78 LINE",
"268 0 LINE",
"344 0 LINE"
);
},
{
closed = 1;
nodes = (
"171 333 LINE",
"171 333 OFFCURVE",
"177 299 OFFCURVE",
"183 279 CURVE SMOOTH",
"223 145 LINE",
"117 145 LINE",
"158 279 LINE SMOOTH",
"163 297 OFFCURVE",
"169 333 OFFCURVE",
"169 333 CURVE"
);
},
{
closed = 1;
nodes = (
"142 532 OFFCURVE",
"117 507 OFFCURVE",
"117 476 CURVE SMOOTH",
"117 444 OFFCURVE",
"142 420 OFFCURVE",
"173 420 CURVE SMOOTH",
"204 420 OFFCURVE",
"229 445 OFFCURVE",
"229 476 CURVE SMOOTH",
"229 506 OFFCURVE",
"204 532 OFFCURVE",
"173 532 CURVE SMOOTH"
);
},
{
closed = 1;
nodes = (
"187 503 OFFCURVE",
"199 491 OFFCURVE",
"199 476 CURVE SMOOTH",
"199 461 OFFCURVE",
"187 449 OFFCURVE",
"173 449 CURVE SMOOTH",
"158 449 OFFCURVE",
"146 461 OFFCURVE",
"146 476 CURVE SMOOTH",
"146 491 OFFCURVE",
"158 503 OFFCURVE",
"173 503 CURVE SMOOTH"
);
}
);
width = 345;
}
);
unicode = 00C5;
},
{
glyphname = Aringacute;
lastChange = "2015-01-27 09:06:03 +0000";
layers = (
{
layerId = "E0AA17FE-947E-4089-955E-70E92921D86D";
name = Regular;
paths = (
{
closed = 1;
nodes = (
"129 478 OFFCURVE",
"103 455 OFFCURVE",
"103 424 CURVE SMOOTH",
"103 409 OFFCURVE",
"111 394 OFFCURVE",
"122 385 CURVE",
"-1 0 LINE",
"51 0 LINE",
"78 89 LINE",
"237 89 LINE",
"264 0 LINE",
"319 0 LINE",
"197 384 LINE",
"208 394 OFFCURVE",
"215 409 OFFCURVE",
"215 424 CURVE SMOOTH",
"215 454 OFFCURVE",
"191 478 OFFCURVE",
"159 478 CURVE SMOOTH"
);
},
{
closed = 1;
nodes = (
"158 358 LINE",
"158 358 OFFCURVE",
"163 327 OFFCURVE",
"168 314 CURVE SMOOTH",
"222 136 LINE",
"92 136 LINE",
"147 314 LINE SMOOTH",
"151 326 OFFCURVE",
"156 358 OFFCURVE",
"156 358 CURVE"
);
},
{
closed = 1;
nodes = (
"236 555 LINE",
"235 558 LINE",
"183 558 LINE",
"142 494 LINE",
"182 494 LINE"
);
},
{
closed = 1;
nodes = (
"175 453 OFFCURVE",
"189 440 OFFCURVE",
"189 424 CURVE SMOOTH",
"189 409 OFFCURVE",
"175 396 OFFCURVE",
"159 396 CURVE SMOOTH",
"143 396 OFFCURVE",
"130 409 OFFCURVE",
"130 424 CURVE SMOOTH",
"130 440 OFFCURVE",
"143 453 OFFCURVE",
"159 453 CURVE SMOOTH"
);
}
);
width = 319;
},
{
layerId = "256C563F-4683-4C38-8505-F28FAA76841F";
name = Bold;
paths = (
{
closed = 1;
nodes = (
"142 478 OFFCURVE",
"117 454 OFFCURVE",
"117 424 CURVE SMOOTH",
"117 413 OFFCURVE",
"120 401 OFFCURVE",
"127 393 CURVE",
"0 0 LINE",
"72 0 LINE",
"96 78 LINE",
"244 78 LINE",
"268 0 LINE",
"344 0 LINE",
"218 392 LINE",
"224 401 OFFCURVE",
"229 413 OFFCURVE",
"229 424 CURVE SMOOTH",
"229 453 OFFCURVE",
"204 478 OFFCURVE",
"173 478 CURVE SMOOTH"
);
},
{
closed = 1;
nodes = (
"171 333 LINE",
"171 333 OFFCURVE",
"177 299 OFFCURVE",
"183 279 CURVE SMOOTH",
"223 145 LINE",
"117 145 LINE",
"158 279 LINE SMOOTH",
"163 297 OFFCURVE",
"169 333 OFFCURVE",
"169 333 CURVE"
);
},
{
closed = 1;
nodes = (
"258 556 LINE",
"258 558 LINE",
"188 558 LINE",
"148 494 LINE",
"205 494 LINE"
);
},
{
closed = 1;
nodes = (
"187 449 OFFCURVE",
"199 439 OFFCURVE",
"199 424 CURVE SMOOTH",
"199 409 OFFCURVE",
"187 398 OFFCURVE",
"173 398 CURVE SMOOTH",
"158 398 OFFCURVE",
"146 409 OFFCURVE",
"146 424 CURVE SMOOTH",
"146 439 OFFCURVE",
"158 449 OFFCURVE",
"173 449 CURVE SMOOTH"
);
}
);
width = 345;
}
);
unicode = 01FA;
},
{
glyphname = Atilde;
lastChange = "2015-01-27 09:06:03 +0000";
layers = (
{
layerId = "E0AA17FE-947E-4089-955E-70E92921D86D";
name = Regular;
paths = (
{
closed = 1;
nodes = (
"192 399 LINE",
"127 399 LINE",
"-1 0 LINE",
"51 0 LINE",
"78 89 LINE",
"237 89 LINE",
"264 0 LINE",
"319 0 LINE"
);
},
{
closed = 1;
nodes = (
"158 358 LINE",
"158 358 OFFCURVE",
"163 327 OFFCURVE",
"168 314 CURVE SMOOTH",
"222 136 LINE",
"92 136 LINE",
"147 314 LINE SMOOTH",
"151 326 OFFCURVE",
"156 358 OFFCURVE",
"156 358 CURVE"
);
},
{
closed = 1;
nodes = (
"210 515 LINE",
"208 501 OFFCURVE",
"201 497 OFFCURVE",
"190 497 CURVE SMOOTH",
"168 497 OFFCURVE",
"148 515 OFFCURVE",
"123 515 CURVE SMOOTH",
"88 515 OFFCURVE",
"74 480 OFFCURVE",
"74 454 CURVE",
"108 454 LINE",
"109 467 OFFCURVE",
"117 472 OFFCURVE",
"128 472 CURVE SMOOTH",
"150 472 OFFCURVE",
"169 454 OFFCURVE",
"194 454 CURVE SMOOTH",
"230 454 OFFCURVE",
"244 488 OFFCURVE",
"244 515 CURVE"
);
}
);
width = 319;
},
{
layerId = "256C563F-4683-4C38-8505-F28FAA76841F";
name = Bold;
paths = (
{
closed = 1;
nodes = (
"215 399 LINE",
"129 399 LINE",
"0 0 LINE",
"72 0 LINE",
"96 78 LINE",
"244 78 LINE",
"268 0 LINE",
"344 0 LINE"
);
},
{
closed = 1;
nodes = (
"171 333 LINE",
"171 333 OFFCURVE",
"177 299 OFFCURVE",
"183 279 CURVE SMOOTH",
"223 145 LINE",
"117 145 LINE",
"158 279 LINE SMOOTH",
"163 297 OFFCURVE",
"169 333 OFFCURVE",
"169 333 CURVE"
);
},
{
closed = 1;
nodes = (
"232 515 LINE",
"229 498 OFFCURVE",
"221 493 OFFCURVE",
"209 493 CURVE SMOOTH",
"183 493 OFFCURVE",
"160 515 OFFCURVE",
"132 515 CURVE SMOOTH",
"91 515 OFFCURVE",
"74 475 OFFCURVE",
"74 444 CURVE",
"113 444 LINE",
"115 459 OFFCURVE",
"123 465 OFFCURVE",
"136 465 CURVE SMOOTH",
"162 465 OFFCURVE",
"185 444 OFFCURVE",
"213 444 CURVE SMOOTH",
"254 444 OFFCURVE",
"270 482 OFFCURVE",
"270 515 CURVE"
);
}
);
width = 345;
}
);
unicode = 00C3;
},
{
glyphname = AE;
lastChange = "2015-01-27 09:06:03 +0000";
layers = (
{
anchors = (
{
name = top;
position = "{239, 399}";
}
);
layerId = "E0AA17FE-947E-4089-955E-70E92921D86D";
name = Regular;
paths = (
{
closed = 1;
nodes = (
"453 399 LINE",
"163 399 LINE",
"-1 0 LINE",
"51 0 LINE",
"85 89 LINE",
"244 89 LINE",
"264 0 LINE",
"456 0 LINE",
"456 47 LINE",
"308 47 LINE",
"278 181 LINE",
"427 181 LINE",
"427 228 LINE",
"268 228 LINE",
"239 353 LINE",
"453 353 LINE"
);
},
{
closed = 1;
nodes = (
"188 353 LINE",
"190 340 OFFCURVE",
"192 329 OFFCURVE",
"194 316 CURVE SMOOTH",
"234 136 LINE",
"103 136 LINE",
"173 316 LINE SMOOTH",
"179 329 OFFCURVE",
"182 340 OFFCURVE",
"186 353 CURVE"
);
}
);
width = 478;
},
{
anchors = (
{
name = top;
position = "{239, 399}";
}
);
layerId = "256C563F-4683-4C38-8505-F28FAA76841F";
name = Bold;
paths = (
{
closed = 1;
nodes = (
"449 399 LINE",
"148 399 LINE",
"-5 0 LINE",
"65 0 LINE",
"94 78 LINE",
"241 78 LINE",
"260 0 LINE",
"453 0 LINE",
"453 67 LINE",
"320 67 LINE",
"295 171 LINE",
"424 171 LINE",
"424 238 LINE",
"279 238 LINE",
"255 333 LINE",
"449 333 LINE"
);
},
{
closed = 1;
nodes = (
"185 318 LINE",
"186 311 OFFCURVE",
"188 304 OFFCURVE",
"190 297 CURVE SMOOTH",
"225 145 LINE",
"118 145 LINE",
"174 297 LINE SMOOTH",
"177 304 OFFCURVE",
"179 311 OFFCURVE",
"183 318 CURVE"
);
}
);
width = 478;
}
);
unicode = 00C6;
},
{
glyphname = AEacute;
lastChange = "2015-01-27 09:06:03 +0000";
layers = (
{
layerId = "E0AA17FE-947E-4089-955E-70E92921D86D";
name = Regular;
paths = (
{
closed = 1;
nodes = (
"453 399 LINE",
"163 399 LINE",
"-1 0 LINE",
"51 0 LINE",
"85 89 LINE",
"244 89 LINE",
"264 0 LINE",
"456 0 LINE",
"456 47 LINE",
"308 47 LINE",
"278 181 LINE",
"427 181 LINE",
"427 228 LINE",
"268 228 LINE",
"239 353 LINE",
"453 353 LINE"
);
},
{
closed = 1;
nodes = (
"188 353 LINE",
"190 340 OFFCURVE",
"192 329 OFFCURVE",
"194 316 CURVE SMOOTH",
"234 136 LINE",
"103 136 LINE",
"173 316 LINE SMOOTH",
"179 329 OFFCURVE",
"182 340 OFFCURVE",
"186 353 CURVE"
);
},
{
closed = 1;
nodes = (
"364 515 LINE",
"311 515 LINE",
"261 438 LINE",
"301 438 LINE",
"364 513 LINE"
);
}
);
width = 478;
},
{
layerId = "256C563F-4683-4C38-8505-F28FAA76841F";
name = Bold;
paths = (
{
closed = 1;
nodes = (
"449 399 LINE",
"148 399 LINE",
"-5 0 LINE",
"65 0 LINE",
"94 78 LINE",
"241 78 LINE",
"260 0 LINE",
"453 0 LINE",
"453 67 LINE",
"320 67 LINE",
"295 171 LINE",
"424 171 LINE",
"424 238 LINE",
"279 238 LINE",
"255 333 LINE",
"449 333 LINE"
);
},
{
closed = 1;
nodes = (
"185 318 LINE",
"187 309 OFFCURVE",
"188 300 OFFCURVE",
"191 291 CURVE SMOOTH",
"225 145 LINE",
"118 145 LINE",
"172 289 LINE SMOOTH",
"175 299 OFFCURVE",
"179 309 OFFCURVE",
"183 318 CURVE"
);
},
{
closed = 1;
nodes = (
"319 515 LINE",
"248 515 LINE",
"198 438 LINE",
"256 438 LINE",
"319 513 LINE"
);
}
);
width = 478;
}
);
unicode = 01FC;
},
{
glyphname = B;
lastChange = "2015-01-27 09:06:03 +0000";
layers = (
{
layerId = "E0AA17FE-947E-4089-955E-70E92921D86D";
name = Regular;
paths = (
{
closed = 1;
nodes = (
"38 399 LINE",
"38 0 LINE",
"189 0 LINE SMOOTH",
"250 0 OFFCURVE",
"302 39 OFFCURVE",
"302 106 CURVE SMOOTH",
"302 158 OFFCURVE",
"271 195 OFFCURVE",
"231 208 CURVE",
"231 210 LINE",
"266 222 OFFCURVE",
"293 256 OFFCURVE",
"293 302 CURVE SMOOTH",
"293 360 OFFCURVE",
"248 399 OFFCURVE",
"189 399 CURVE SMOOTH"
);
},
{
closed = 1;
nodes = (
"89 181 LINE",
"179 181 LINE SMOOTH",
"221 181 OFFCURVE",
"248 149 OFFCURVE",
"248 113 CURVE SMOOTH",
"248 70 OFFCURVE",
"220 47 OFFCURVE",
"183 47 CURVE SMOOTH",
"89 47 LINE"
);
},
{
closed = 1;
nodes = (
"89 353 LINE",
"178 353 LINE SMOOTH",
"214 353 OFFCURVE",
"239 333 OFFCURVE",
"239 291 CURVE SMOOTH",
"239 257 OFFCURVE",
"214 228 OFFCURVE",
"174 228 CURVE SMOOTH",
"89 228 LINE"
);
}
);
width = 319;
},
{
layerId = "256C563F-4683-4C38-8505-F28FAA76841F";
name = Bold;
paths = (
{
closed = 1;
nodes = (
"35 399 LINE",
"35 0 LINE",
"207 0 LINE SMOOTH",
"271 0 OFFCURVE",
"325 40 OFFCURVE",
"325 107 CURVE SMOOTH",
"325 158 OFFCURVE",
"294 195 OFFCURVE",
"254 208 CURVE",
"254 210 LINE",
"289 222 OFFCURVE",
"316 254 OFFCURVE",
"316 301 CURVE SMOOTH",
"316 359 OFFCURVE",
"270 399 OFFCURVE",
"207 399 CURVE SMOOTH"
);
},
{
closed = 1;
nodes = (
"109 172 LINE",
"191 172 LINE SMOOTH",
"230 172 OFFCURVE",
"248 148 OFFCURVE",
"248 117 CURVE SMOOTH",
"248 84 OFFCURVE",
"225 67 OFFCURVE",
"194 67 CURVE SMOOTH",
"109 67 LINE"
);
},
{
closed = 1;
nodes = (
"109 333 LINE",
"190 333 LINE SMOOTH",
"219 333 OFFCURVE",
"239 318 OFFCURVE",
"239 287 CURVE SMOOTH",
"239 260 OFFCURVE",
"222 238 OFFCURVE",
"186 238 CURVE SMOOTH",
"109 238 LINE"
);
}
);
width = 345;
}
);
unicode = 0042;
},
{
glyphname = C;
lastChange = "2015-01-27 09:06:03 +0000";
layers = (
{
anchors = (
{
name = bottom;
position = "{173, 0}";
},
{
name = top;
position = "{173, 399}";
}
);
layerId = "E0AA17FE-947E-4089-955E-70E92921D86D";
name = Regular;
paths = (
{
closed = 1;
nodes = (
"78 407 OFFCURVE",
"24 339 OFFCURVE",
"24 200 CURVE SMOOTH",
"24 61 OFFCURVE",
"78 -7 OFFCURVE",
"182 -7 CURVE SMOOTH",
"264 -7 OFFCURVE",
"321 40 OFFCURVE",
"321 143 CURVE",
"270 143 LINE",
"270 74 OFFCURVE",
"235 40 OFFCURVE",
"182 40 CURVE SMOOTH",
"112 40 OFFCURVE",
"78 88 OFFCURVE",
"78 185 CURVE SMOOTH",
"78 214 LINE SMOOTH",
"78 312 OFFCURVE",
"112 359 OFFCURVE",
"182 359 CURVE SMOOTH",
"234 359 OFFCURVE",
"269 325 OFFCURVE",
"269 255 CURVE",
"321 255 LINE",
"321 357 OFFCURVE",
"264 407 OFFCURVE",
"182 407 CURVE SMOOTH"
);
}
);
width = 345;
},
{
anchors = (
{
name = bottom;
position = "{173, 0}";
},
{
name = top;
position = "{173, 399}";
}
);
layerId = "256C563F-4683-4C38-8505-F28FAA76841F";
name = Bold;
paths = (
{
closed = 1;
nodes = (
"78 407 OFFCURVE",
"20 341 OFFCURVE",
"20 200 CURVE SMOOTH",
"20 59 OFFCURVE",
"78 -7 OFFCURVE",
"179 -7 CURVE SMOOTH",
"264 -7 OFFCURVE",
"326 43 OFFCURVE",
"326 148 CURVE",
"253 148 LINE",
"253 86 OFFCURVE",
"224 57 OFFCURVE",
"181 57 CURVE SMOOTH",
"124 57 OFFCURVE",
"97 105 OFFCURVE",
"97 185 CURVE SMOOTH",
"97 214 LINE SMOOTH",
"97 294 OFFCURVE",
"123 343 OFFCURVE",
"179 343 CURVE SMOOTH",
"221 343 OFFCURVE",
"249 313 OFFCURVE",
"249 251 CURVE",
"326 251 LINE",
"326 359 OFFCURVE",
"262 407 OFFCURVE",
"179 407 CURVE SMOOTH"
);
}
);
width = 345;
}
);
unicode = 0043;
},
{
glyphname = Cacute;
lastChange = "2015-01-27 09:06:03 +0000";
layers = (
{
layerId = "E0AA17FE-947E-4089-955E-70E92921D86D";
name = Regular;
paths = (
{
closed = 1;
nodes = (
"78 407 OFFCURVE",
"24 339 OFFCURVE",
"24 200 CURVE SMOOTH",
"24 61 OFFCURVE",
"78 -7 OFFCURVE",
"182 -7 CURVE SMOOTH",
"264 -7 OFFCURVE",
"321 40 OFFCURVE",
"321 143 CURVE",
"270 143 LINE",
"270 74 OFFCURVE",
"235 40 OFFCURVE",
"182 40 CURVE SMOOTH",
"112 40 OFFCURVE",
"78 88 OFFCURVE",
"78 185 CURVE SMOOTH",
"78 214 LINE SMOOTH",
"78 312 OFFCURVE",
"112 359 OFFCURVE",
"182 359 CURVE SMOOTH",
"234 359 OFFCURVE",
"269 325 OFFCURVE",
"269 255 CURVE",
"321 255 LINE",
"321 357 OFFCURVE",
"264 407 OFFCURVE",
"182 407 CURVE SMOOTH"
);
},
{
closed = 1;
nodes = (
"248 515 LINE",
"196 515 LINE",
"146 438 LINE",
"186 438 LINE",
"249 513 LINE"
);
}
);
width = 345;
},
{
layerId = "256C563F-4683-4C38-8505-F28FAA76841F";
name = Bold;
paths = (
{
closed = 1;
nodes = (
"78 407 OFFCURVE",
"20 341 OFFCURVE",
"20 200 CURVE SMOOTH",
"20 59 OFFCURVE",
"78 -7 OFFCURVE",
"179 -7 CURVE SMOOTH",
"264 -7 OFFCURVE",
"326 43 OFFCURVE",
"326 148 CURVE",
"253 148 LINE",
"253 86 OFFCURVE",
"224 57 OFFCURVE",
"181 57 CURVE SMOOTH",
"124 57 OFFCURVE",
"97 105 OFFCURVE",
"97 185 CURVE SMOOTH",
"97 214 LINE SMOOTH",
"97 294 OFFCURVE",
"123 343 OFFCURVE",
"179 343 CURVE SMOOTH",
"221 343 OFFCURVE",
"249 313 OFFCURVE",
"249 251 CURVE",
"326 251 LINE",
"326 359 OFFCURVE",
"262 407 OFFCURVE",
"179 407 CURVE SMOOTH"
);
},
{
closed = 1;
nodes = (
"258 515 LINE",
"188 515 LINE",
"138 438 LINE",
"196 438 LINE",
"259 513 LINE"
);
}
);
width = 345;
}
);
unicode = 0106;
},
{
glyphname = Ccaron;
lastChange = "2015-01-27 09:06:03 +0000";
layers = (
{
layerId = "E0AA17FE-947E-4089-955E-70E92921D86D";
name = Regular;
paths = (
{
closed = 1;
nodes = (
"78 407 OFFCURVE",
"24 339 OFFCURVE",
"24 200 CURVE SMOOTH",
"24 61 OFFCURVE",
"78 -7 OFFCURVE",
"182 -7 CURVE SMOOTH",
"264 -7 OFFCURVE",
"321 40 OFFCURVE",
"321 143 CURVE",
"270 143 LINE",
"270 74 OFFCURVE",
"235 40 OFFCURVE",
"182 40 CURVE SMOOTH",
"112 40 OFFCURVE",
"78 88 OFFCURVE",
"78 185 CURVE SMOOTH",
"78 214 LINE SMOOTH",
"78 312 OFFCURVE",
"112 359 OFFCURVE",
"182 359 CURVE SMOOTH",
"234 359 OFFCURVE",
"269 325 OFFCURVE",
"269 255 CURVE",
"321 255 LINE",
"321 357 OFFCURVE",
"264 407 OFFCURVE",
"182 407 CURVE SMOOTH"
);
},
{
closed = 1;
nodes = (
"194 436 LINE",
"245 515 LINE",
"198 515 LINE",
"173 469 LINE",
"146 515 LINE",
"100 515 LINE",
"149 436 LINE"
);
}
);
width = 345;
},
{
layerId = "256C563F-4683-4C38-8505-F28FAA76841F";
name = Bold;
paths = (
{
closed = 1;
nodes = (
"78 407 OFFCURVE",
"20 341 OFFCURVE",
"20 200 CURVE SMOOTH",
"20 59 OFFCURVE",
"78 -7 OFFCURVE",
"179 -7 CURVE SMOOTH",
"264 -7 OFFCURVE",
"326 43 OFFCURVE",
"326 148 CURVE",
"253 148 LINE",
"253 86 OFFCURVE",
"224 57 OFFCURVE",
"181 57 CURVE SMOOTH",
"124 57 OFFCURVE",
"97 105 OFFCURVE",
"97 185 CURVE SMOOTH",
"97 214 LINE SMOOTH",
"97 294 OFFCURVE",
"123 343 OFFCURVE",
"179 343 CURVE SMOOTH",
"221 343 OFFCURVE",
"249 313 OFFCURVE",
"249 251 CURVE",
"326 251 LINE",
"326 359 OFFCURVE",
"262 407 OFFCURVE",
"179 407 CURVE SMOOTH"
);
},
{
closed = 1;
nodes = (
"208 436 LINE",
"257 515 LINE",
"205 515 LINE",
"179 474 LINE",
"153 515 LINE",
"100 515 LINE",
"150 436 LINE"
);
}
);
width = 345;
}
);
unicode = 010C;
},
{
glyphname = Ccedilla;
lastChange = "2015-01-27 09:06:03 +0000";
layers = (
{
layerId = "E0AA17FE-947E-4089-955E-70E92921D86D";
name = Regular;
paths = (
{
closed = 1;
nodes = (
"78 407 OFFCURVE",
"24 339 OFFCURVE",
"24 200 CURVE SMOOTH",
"24 76 OFFCURVE",
"67 8 OFFCURVE",
"150 -5 CURVE",
"144 -45 LINE",
"163 -45 LINE SMOOTH",
"179 -45 OFFCURVE",
"183 -49 OFFCURVE",
"183 -59 CURVE SMOOTH",
"183 -70 OFFCURVE",
"175 -73 OFFCURVE",
"162 -73 CURVE SMOOTH",
"118 -73 LINE",
"118 -101 LINE",
"132 -104 OFFCURVE",
"150 -106 OFFCURVE",
"167 -106 CURVE SMOOTH",
"190 -106 OFFCURVE",
"227 -98 OFFCURVE",
"227 -59 CURVE SMOOTH",
"227 -32 OFFCURVE",
"205 -22 OFFCURVE",
"180 -21 CURVE",
"182 -7 LINE",
"264 -7 OFFCURVE",
"321 40 OFFCURVE",
"321 143 CURVE",
"270 143 LINE",
"270 74 OFFCURVE",
"235 40 OFFCURVE",
"182 40 CURVE SMOOTH",
"112 40 OFFCURVE",
"78 88 OFFCURVE",
"78 185 CURVE SMOOTH",
"78 214 LINE SMOOTH",
"78 312 OFFCURVE",
"112 359 OFFCURVE",
"182 359 CURVE SMOOTH",
"234 359 OFFCURVE",
"269 325 OFFCURVE",
"269 255 CURVE",
"321 255 LINE",
"321 357 OFFCURVE",
"264 407 OFFCURVE",
"182 407 CURVE SMOOTH"
);
}
);
width = 345;
},
{
layerId = "256C563F-4683-4C38-8505-F28FAA76841F";
name = Bold;
paths = (
{
closed = 1;
nodes = (
"78 407 OFFCURVE",
"20 341 OFFCURVE",
"20 200 CURVE SMOOTH",
"20 71 OFFCURVE",
"68 5 OFFCURVE",
"153 -5 CURVE",
"148 -45 LINE",
"167 -45 LINE SMOOTH",
"183 -45 OFFCURVE",
"187 -49 OFFCURVE",
"187 -59 CURVE SMOOTH",
"187 -70 OFFCURVE",
"179 -73 OFFCURVE",
"166 -73 CURVE SMOOTH",
"125 -73 LINE",
"125 -101 LINE",
"138 -104 OFFCURVE",
"158 -106 OFFCURVE",
"173 -106 CURVE SMOOTH",
"198 -106 OFFCURVE",
"237 -98 OFFCURVE",
"237 -59 CURVE SMOOTH",
"237 -32 OFFCURVE",
"216 -21 OFFCURVE",
"191 -19 CURVE",
"192 -7 LINE",
"270 -1 OFFCURVE",
"326 49 OFFCURVE",
"326 148 CURVE",
"253 148 LINE",
"253 86 OFFCURVE",
"224 57 OFFCURVE",
"181 57 CURVE SMOOTH",
"124 57 OFFCURVE",
"97 105 OFFCURVE",
"97 185 CURVE SMOOTH",
"97 214 LINE SMOOTH",
"97 294 OFFCURVE",
"123 343 OFFCURVE",
"179 343 CURVE SMOOTH",
"221 343 OFFCURVE",
"249 313 OFFCURVE",
"249 251 CURVE",
"326 251 LINE",
"326 359 OFFCURVE",
"262 407 OFFCURVE",
"179 407 CURVE SMOOTH"
);
}
);
width = 345;
}
);
unicode = 00C7;
},
{
glyphname = Ccircumflex;
lastChange = "2015-01-27 09:06:03 +0000";
layers = (
{
layerId = "E0AA17FE-947E-4089-955E-70E92921D86D";
name = Regular;
paths = (
{
closed = 1;
nodes = (
"78 407 OFFCURVE",
"24 339 OFFCURVE",
"24 200 CURVE SMOOTH",
"24 61 OFFCURVE",
"78 -7 OFFCURVE",
"182 -7 CURVE SMOOTH",
"264 -7 OFFCURVE",
"321 40 OFFCURVE",
"321 143 CURVE",
"270 143 LINE",
"270 74 OFFCURVE",
"235 40 OFFCURVE",
"182 40 CURVE SMOOTH",
"112 40 OFFCURVE",
"78 88 OFFCURVE",
"78 185 CURVE SMOOTH",
"78 214 LINE SMOOTH",
"78 312 OFFCURVE",
"112 359 OFFCURVE",
"182 359 CURVE SMOOTH",
"234 359 OFFCURVE",
"269 325 OFFCURVE",
"269 255 CURVE",
"321 255 LINE",
"321 357 OFFCURVE",
"264 407 OFFCURVE",
"182 407 CURVE SMOOTH"
);
},
{
closed = 1;
nodes = (
"245 435 LINE",
"195 514 LINE",
"150 514 LINE",
"100 435 LINE",
"146 435 LINE",
"173 481 LINE",
"198 435 LINE"
);
}
);
width = 345;
},
{
layerId = "256C563F-4683-4C38-8505-F28FAA76841F";
name = Bold;
paths = (
{
closed = 1;
nodes = (
"78 407 OFFCURVE",
"20 341 OFFCURVE",
"20 200 CURVE SMOOTH",
"20 59 OFFCURVE",
"78 -7 OFFCURVE",
"179 -7 CURVE SMOOTH",
"264 -7 OFFCURVE",
"326 43 OFFCURVE",
"326 148 CURVE",
"253 148 LINE",
"253 86 OFFCURVE",
"224 57 OFFCURVE",
"181 57 CURVE SMOOTH",
"124 57 OFFCURVE",
"97 105 OFFCURVE",
"97 185 CURVE SMOOTH",
"97 214 LINE SMOOTH",
"97 294 OFFCURVE",
"123 343 OFFCURVE",
"179 343 CURVE SMOOTH",
"221 343 OFFCURVE",
"249 313 OFFCURVE",
"249 251 CURVE",
"326 251 LINE",
"326 359 OFFCURVE",
"262 407 OFFCURVE",
"179 407 CURVE SMOOTH"
);
},
{
closed = 1;
nodes = (
"257 436 LINE",
"208 515 LINE",
"150 515 LINE",
"100 436 LINE",
"153 436 LINE",
"179 476 LINE",
"205 436 LINE"
);
}
);
width = 345;
}
);
unicode = 0108;
},
{
glyphname = Cdotaccent;
lastChange = "2015-01-27 09:06:03 +0000";
layers = (
{
layerId = "E0AA17FE-947E-4089-955E-70E92921D86D";
name = Regular;
paths = (
{
closed = 1;
nodes = (
"78 407 OFFCURVE",
"24 339 OFFCURVE",
"24 200 CURVE SMOOTH",
"24 61 OFFCURVE",
"78 -7 OFFCURVE",
"182 -7 CURVE SMOOTH",
"264 -7 OFFCURVE",
"321 40 OFFCURVE",
"321 143 CURVE",
"270 143 LINE",
"270 74 OFFCURVE",
"235 40 OFFCURVE",
"182 40 CURVE SMOOTH",
"112 40 OFFCURVE",
"78 88 OFFCURVE",
"78 185 CURVE SMOOTH",
"78 214 LINE SMOOTH",
"78 312 OFFCURVE",
"112 359 OFFCURVE",
"182 359 CURVE SMOOTH",
"234 359 OFFCURVE",
"269 325 OFFCURVE",
"269 255 CURVE",
"321 255 LINE",
"321 357 OFFCURVE",
"264 407 OFFCURVE",
"182 407 CURVE SMOOTH"
);
},
{
closed = 1;
nodes = (
"198 459 LINE",
"198 515 LINE",
"147 515 LINE",
"147 459 LINE"
);
}
);
width = 345;
},
{
layerId = "256C563F-4683-4C38-8505-F28FAA76841F";
name = Bold;
paths = (
{
closed = 1;
nodes = (
"78 407 OFFCURVE",
"20 341 OFFCURVE",
"20 200 CURVE SMOOTH",
"20 59 OFFCURVE",
"78 -7 OFFCURVE",
"179 -7 CURVE SMOOTH",
"264 -7 OFFCURVE",
"326 43 OFFCURVE",
"326 148 CURVE",
"253 148 LINE",
"253 86 OFFCURVE",
"224 57 OFFCURVE",
"181 57 CURVE SMOOTH",
"124 57 OFFCURVE",
"97 105 OFFCURVE",
"97 185 CURVE SMOOTH",
"97 214 LINE SMOOTH",
"97 294 OFFCURVE",
"123 343 OFFCURVE",
"179 343 CURVE SMOOTH",
"221 343 OFFCURVE",
"249 313 OFFCURVE",
"249 251 CURVE",
"326 251 LINE",
"326 359 OFFCURVE",
"262 407 OFFCURVE",
"179 407 CURVE SMOOTH"
);
},
{
closed = 1;
nodes = (
"210 447 LINE",
"210 515 LINE",
"148 515 LINE",
"148 447 LINE"
);
}
);
width = 345;
}
);
unicode = 010A;
},
{
glyphname = D;
lastChange = "2015-01-27 09:06:03 +0000";
layers = (
{
anchors = (
{
name = center;
position = "{173, 200}";
},
{
name = top;
position = "{173, 399}";
}
);
layerId = "E0AA17FE-947E-4089-955E-70E92921D86D";
name = Regular;
paths = (
{
closed = 1;
nodes = (
"41 0 LINE",
"165 0 LINE SMOOTH",
"259 0 OFFCURVE",
"316 69 OFFCURVE",
"316 206 CURVE SMOOTH",
"316 334 OFFCURVE",
"259 399 OFFCURVE",
"165 399 CURVE SMOOTH",
"41 399 LINE"
);
},
{
closed = 1;
nodes = (
"92 353 LINE",
"160 353 LINE SMOOTH",
"223 353 OFFCURVE",
"263 309 OFFCURVE",
"263 220 CURVE SMOOTH",
"263 191 LINE SMOOTH",
"263 94 OFFCURVE",
"223 47 OFFCURVE",
"160 47 CURVE SMOOTH",
"92 47 LINE"
);
}
);
width = 345;
},
{
anchors = (
{
name = center;
position = "{173, 200}";
},
{
name = top;
position = "{173, 399}";
}
);
layerId = "256C563F-4683-4C38-8505-F28FAA76841F";
name = Bold;
paths = (
{
closed = 1;
nodes = (
"35 0 LINE",
"165 0 LINE SMOOTH",
"264 0 OFFCURVE",
"325 69 OFFCURVE",
"325 206 CURVE SMOOTH",
"325 334 OFFCURVE",
"264 399 OFFCURVE",
"165 399 CURVE SMOOTH",
"35 399 LINE"
);
},
{
closed = 1;
nodes = (
"109 333 LINE",
"158 333 LINE SMOOTH",
"214 333 OFFCURVE",
"248 295 OFFCURVE",
"248 220 CURVE SMOOTH",
"248 191 LINE SMOOTH",
"248 108 OFFCURVE",
"214 67 OFFCURVE",
"158 67 CURVE SMOOTH",
"109 67 LINE"
);
}
);
width = 345;
}
);
unicode = 0044;
},
{
glyphname = Eth;
lastChange = "2015-01-27 09:06:03 +0000";
layers = (
{
layerId = "E0AA17FE-947E-4089-955E-70E92921D86D";
name = Regular;
paths = (
{
closed = 1;
nodes = (
"3 225 LINE",
"3 188 LINE",
"41 188 LINE",
"41 0 LINE",
"165 0 LINE SMOOTH",
"259 0 OFFCURVE",
"316 69 OFFCURVE",
"316 206 CURVE SMOOTH",
"316 334 OFFCURVE",
"259 399 OFFCURVE",
"165 399 CURVE SMOOTH",
"41 399 LINE",
"41 225 LINE"
);
},
{
closed = 1;
nodes = (
"92 353 LINE",
"160 353 LINE SMOOTH",
"223 353 OFFCURVE",
"263 309 OFFCURVE",
"263 220 CURVE SMOOTH",
"263 191 LINE SMOOTH",
"263 94 OFFCURVE",
"223 47 OFFCURVE",
"160 47 CURVE SMOOTH",
"92 47 LINE",
"92 188 LINE",
"183 188 LINE",
"183 225 LINE",
"92 225 LINE"
);
}
);
width = 345;
},
{
layerId = "256C563F-4683-4C38-8505-F28FAA76841F";
name = Bold;
paths = (
{
closed = 1;
nodes = (
"6 231 LINE",
"6 182 LINE",
"35 182 LINE",
"35 0 LINE",
"165 0 LINE SMOOTH",
"264 0 OFFCURVE",
"325 69 OFFCURVE",
"325 206 CURVE SMOOTH",
"325 334 OFFCURVE",
"264 399 OFFCURVE",
"165 399 CURVE SMOOTH",
"35 399 LINE",
"35 231 LINE"
);
},
{
closed = 1;
nodes = (
"109 333 LINE",
"158 333 LINE SMOOTH",
"214 333 OFFCURVE",
"248 295 OFFCURVE",
"248 220 CURVE SMOOTH",
"248 191 LINE SMOOTH",
"248 108 OFFCURVE",
"214 67 OFFCURVE",
"158 67 CURVE SMOOTH",
"109 67 LINE",
"109 182 LINE",
"183 182 LINE",
"183 231 LINE",
"109 231 LINE"
);
}
);
width = 345;
}
);
unicode = 00D0;
},
{
glyphname = Dcaron;
lastChange = "2015-01-27 09:06:03 +0000";
layers = (
{
layerId = "E0AA17FE-947E-4089-955E-70E92921D86D";
name = Regular;
paths = (
{
closed = 1;
nodes = (
"194 436 LINE",
"245 515 LINE",
"198 515 LINE",
"173 469 LINE",
"146 515 LINE",
"100 515 LINE",
"149 436 LINE"
);
},
{
closed = 1;
nodes = (
"41 0 LINE",
"165 0 LINE SMOOTH",
"259 0 OFFCURVE",
"316 69 OFFCURVE",
"316 206 CURVE SMOOTH",
"316 334 OFFCURVE",
"259 399 OFFCURVE",
"165 399 CURVE SMOOTH",
"41 399 LINE"
);
},
{
closed = 1;
nodes = (
"92 353 LINE",
"160 353 LINE SMOOTH",
"223 353 OFFCURVE",
"263 309 OFFCURVE",
"263 220 CURVE SMOOTH",
"263 191 LINE SMOOTH",
"263 94 OFFCURVE",
"223 47 OFFCURVE",
"160 47 CURVE SMOOTH",
"92 47 LINE"
);
}
);
width = 345;
},
{
layerId = "256C563F-4683-4C38-8505-F28FAA76841F";
name = Bold;
paths = (
{
closed = 1;
nodes = (
"177 436 LINE",
"226 515 LINE",
"173 515 LINE",
"148 474 LINE",
"122 515 LINE",
"69 515 LINE",
"119 436 LINE"
);
},
{
closed = 1;
nodes = (
"35 0 LINE",
"165 0 LINE SMOOTH",
"264 0 OFFCURVE",
"325 69 OFFCURVE",
"325 206 CURVE SMOOTH",
"325 334 OFFCURVE",
"264 399 OFFCURVE",
"165 399 CURVE SMOOTH",
"35 399 LINE"
);
},
{
closed = 1;
nodes = (
"109 333 LINE",
"158 333 LINE SMOOTH",
"214 333 OFFCURVE",
"248 295 OFFCURVE",
"248 220 CURVE SMOOTH",
"248 191 LINE SMOOTH",
"248 108 OFFCURVE",
"214 67 OFFCURVE",
"158 67 CURVE SMOOTH",
"109 67 LINE"
);
}
);
width = 345;
}
);
unicode = 010E;
},
{
glyphname = Dcroat;
lastChange = "2015-01-27 09:06:03 +0000";
layers = (
{
layerId = "E0AA17FE-947E-4089-955E-70E92921D86D";
name = Regular;
paths = (
{
closed = 1;
nodes = (
"3 225 LINE",
"3 188 LINE",
"41 188 LINE",
"41 0 LINE",
"165 0 LINE SMOOTH",
"259 0 OFFCURVE",
"316 69 OFFCURVE",
"316 206 CURVE SMOOTH",
"316 334 OFFCURVE",
"259 399 OFFCURVE",
"165 399 CURVE SMOOTH",
"41 399 LINE",
"41 225 LINE"
);
},
{
closed = 1;
nodes = (
"92 353 LINE",
"160 353 LINE SMOOTH",
"223 353 OFFCURVE",
"263 309 OFFCURVE",
"263 220 CURVE SMOOTH",
"263 191 LINE SMOOTH",
"263 94 OFFCURVE",
"223 47 OFFCURVE",
"160 47 CURVE SMOOTH",
"92 47 LINE",
"92 188 LINE",
"183 188 LINE",
"183 225 LINE",
"92 225 LINE"
);
}
);
width = 345;
},
{
layerId = "256C563F-4683-4C38-8505-F28FAA76841F";
name = Bold;
paths = (
{
closed = 1;
nodes = (
"6 231 LINE",
"6 182 LINE",
"35 182 LINE",
"35 0 LINE",
"165 0 LINE SMOOTH",
"264 0 OFFCURVE",
"325 69 OFFCURVE",
"325 206 CURVE SMOOTH",
"325 334 OFFCURVE",
"264 399 OFFCURVE",
"165 399 CURVE SMOOTH",
"35 399 LINE",
"35 231 LINE"
);
},
{
closed = 1;
nodes = (
"109 333 LINE",
"158 333 LINE SMOOTH",
"214 333 OFFCURVE",
"248 295 OFFCURVE",
"248 220 CURVE SMOOTH",
"248 191 LINE SMOOTH",
"248 108 OFFCURVE",
"214 67 OFFCURVE",
"158 67 CURVE SMOOTH",
"109 67 LINE",
"109 182 LINE",
"183 182 LINE",
"183 231 LINE",
"109 231 LINE"
);
}
);
width = 345;
}
);
unicode = 0110;
},
{
glyphname = E;
lastChange = "2015-01-27 09:06:03 +0000";
layers = (
{
anchors = (
{
name = bottom;
position = "{159, 0}";
},
{
name = ogonek;
position = "{287, 6}";
},
{
name = top;
position = "{159, 399}";
}
);
layerId = "E0AA17FE-947E-4089-955E-70E92921D86D";
name = Regular;
paths = (
{
closed = 1;
nodes = (
"41 0 LINE",
"291 0 LINE",
"291 47 LINE",
"92 47 LINE",
"92 181 LINE",
"262 181 LINE",
"262 228 LINE",
"92 228 LINE",
"92 353 LINE",
"287 353 LINE",
"287 399 LINE",
"41 399 LINE"
);
}
);
width = 319;
},
{
anchors = (
{
name = bottom;
position = "{159, 0}";
},
{
name = ogonek;
position = "{287, 6}";
},
{
name = top;
position = "{159, 399}";
}
);
layerId = "256C563F-4683-4C38-8505-F28FAA76841F";
name = Bold;
paths = (
{
closed = 1;
nodes = (
"35 0 LINE",
"293 0 LINE",
"293 67 LINE",
"109 67 LINE",
"109 171 LINE",
"264 171 LINE",
"264 238 LINE",
"109 238 LINE",
"109 333 LINE",
"289 333 LINE",
"289 399 LINE",
"35 399 LINE"
);
}
);
width = 319;
}
);
unicode = 0045;
},
{
glyphname = Eacute;
lastChange = "2015-01-27 09:06:03 +0000";
layers = (
{
layerId = "E0AA17FE-947E-4089-955E-70E92921D86D";
name = Regular;
paths = (
{
closed = 1;
nodes = (
"287 399 LINE",
"41 399 LINE",
"41 0 LINE",
"291 0 LINE",
"291 47 LINE",
"92 47 LINE",
"92 181 LINE",
"262 181 LINE",
"262 228 LINE",
"92 228 LINE",
"92 353 LINE",
"287 353 LINE"
);
},
{
closed = 1;
nodes = (
"227 515 LINE",
"175 515 LINE",
"125 438 LINE",
"165 438 LINE",
"228 513 LINE"
);
}
);
width = 319;
},
{
layerId = "256C563F-4683-4C38-8505-F28FAA76841F";
name = Bold;
paths = (
{
closed = 1;
nodes = (
"289 399 LINE",
"35 399 LINE",
"35 0 LINE",
"293 0 LINE",
"293 67 LINE",
"109 67 LINE",
"109 171 LINE",
"264 171 LINE",
"264 238 LINE",
"109 238 LINE",
"109 333 LINE",
"289 333 LINE"
);
},
{
closed = 1;
nodes = (
"239 515 LINE",
"169 515 LINE",
"119 438 LINE",
"177 438 LINE",
"240 513 LINE"
);
}
);
width = 319;
}
);
unicode = 00C9;
},
{
glyphname = Ebreve;
lastChange = "2015-01-27 09:06:03 +0000";
layers = (
{
layerId = "E0AA17FE-947E-4089-955E-70E92921D86D";
name = Regular;
paths = (
{
closed = 1;
nodes = (
"194 515 LINE",
"193 506 OFFCURVE",
"179 495 OFFCURVE",
"159 495 CURVE SMOOTH",
"140 495 OFFCURVE",
"127 506 OFFCURVE",
"125 515 CURVE",
"88 515 LINE",
"88 488 OFFCURVE",
"115 458 OFFCURVE",
"159 458 CURVE SMOOTH",
"204 458 OFFCURVE",
"231 488 OFFCURVE",
"231 515 CURVE"
);
},
{
closed = 1;
nodes = (
"41 0 LINE",
"291 0 LINE",
"291 47 LINE",
"92 47 LINE",
"92 181 LINE",
"262 181 LINE",
"262 228 LINE",
"92 228 LINE",
"92 353 LINE",
"287 353 LINE",
"287 399 LINE",
"41 399 LINE"
);
}
);
width = 319;
},
{
layerId = "256C563F-4683-4C38-8505-F28FAA76841F";
name = Bold;
paths = (
{
closed = 1;
nodes = (
"194 515 LINE",
"193 506 OFFCURVE",
"179 495 OFFCURVE",
"159 495 CURVE SMOOTH",
"140 495 OFFCURVE",
"127 506 OFFCURVE",
"125 515 CURVE",
"82 515 LINE",
"82 485 OFFCURVE",
"111 452 OFFCURVE",
"159 452 CURVE SMOOTH",
"208 452 OFFCURVE",
"237 485 OFFCURVE",
"237 515 CURVE"
);
},
{
closed = 1;
nodes = (
"35 0 LINE",
"293 0 LINE",
"293 67 LINE",
"109 67 LINE",
"109 171 LINE",
"264 171 LINE",
"264 238 LINE",
"109 238 LINE",
"109 333 LINE",
"289 333 LINE",
"289 399 LINE",
"35 399 LINE"
);
}
);
width = 319;
}
);
unicode = 0114;
},
{
glyphname = Ecaron;
lastChange = "2015-01-27 09:06:03 +0000";
layers = (
{
layerId = "E0AA17FE-947E-4089-955E-70E92921D86D";
name = Regular;
paths = (
{
closed = 1;
nodes = (
"182 436 LINE",
"232 515 LINE",
"185 515 LINE",
"159 469 LINE",
"133 515 LINE",
"87 515 LINE",
"136 436 LINE"
);
},
{
closed = 1;
nodes = (
"41 0 LINE",
"291 0 LINE",
"291 47 LINE",
"92 47 LINE",
"92 181 LINE",
"262 181 LINE",
"262 228 LINE",
"92 228 LINE",
"92 353 LINE",
"287 353 LINE",
"287 399 LINE",
"41 399 LINE"
);
}
);
width = 319;
},
{
layerId = "256C563F-4683-4C38-8505-F28FAA76841F";
name = Bold;
paths = (
{
closed = 1;
nodes = (
"188 436 LINE",
"238 515 LINE",
"185 515 LINE",
"159 474 LINE",
"133 515 LINE",
"81 515 LINE",
"131 436 LINE"
);
},
{
closed = 1;
nodes = (
"35 0 LINE",
"293 0 LINE",
"293 67 LINE",
"109 67 LINE",
"109 171 LINE",
"264 171 LINE",
"264 238 LINE",
"109 238 LINE",
"109 333 LINE",
"289 333 LINE",
"289 399 LINE",
"35 399 LINE"
);
}
);
width = 319;
}
);
unicode = 011A;
},
{
glyphname = Ecircumflex;
lastChange = "2015-01-27 09:06:03 +0000";
layers = (
{
layerId = "E0AA17FE-947E-4089-955E-70E92921D86D";
name = Regular;
paths = (
{
closed = 1;
nodes = (
"232 435 LINE",
"183 514 LINE",
"137 514 LINE",
"87 435 LINE",
"133 435 LINE",
"159 481 LINE",
"185 435 LINE"
);
},
{
closed = 1;
nodes = (
"41 0 LINE",
"291 0 LINE",
"291 47 LINE",
"92 47 LINE",
"92 181 LINE",
"262 181 LINE",
"262 228 LINE",
"92 228 LINE",
"92 353 LINE",
"287 353 LINE",
"287 399 LINE",
"41 399 LINE"
);
}
);
width = 319;
},
{
layerId = "256C563F-4683-4C38-8505-F28FAA76841F";
name = Bold;
paths = (
{
closed = 1;
nodes = (
"238 436 LINE",
"188 515 LINE",
"131 515 LINE",
"81 436 LINE",
"133 436 LINE",
"159 476 LINE",
"185 436 LINE"
);
},
{
closed = 1;
nodes = (
"35 0 LINE",
"293 0 LINE",
"293 67 LINE",
"109 67 LINE",
"109 171 LINE",
"264 171 LINE",
"264 238 LINE",
"109 238 LINE",
"109 333 LINE",
"289 333 LINE",
"289 399 LINE",
"35 399 LINE"
);
}
);
width = 319;
}
);
unicode = 00CA;
},
{
glyphname = Edieresis;
lastChange = "2015-01-27 09:06:03 +0000";
layers = (
{
layerId = "E0AA17FE-947E-4089-955E-70E92921D86D";
name = Regular;
paths = (
{
closed = 1;
nodes = (
"287 399 LINE",
"41 399 LINE",
"41 0 LINE",
"291 0 LINE",
"291 47 LINE",
"92 47 LINE",
"92 181 LINE",
"262 181 LINE",
"262 228 LINE",
"92 228 LINE",
"92 353 LINE",
"287 353 LINE"
);
},
{
closed = 1;
nodes = (
"141 515 LINE",
"90 515 LINE",
"90 459 LINE",
"141 459 LINE"
);
},
{
closed = 1;
nodes = (
"229 515 LINE",
"178 515 LINE",
"178 459 LINE",
"229 459 LINE"
);
}
);
width = 319;
},
{
layerId = "256C563F-4683-4C38-8505-F28FAA76841F";
name = Bold;
paths = (
{
closed = 1;
nodes = (
"289 399 LINE",
"35 399 LINE",
"35 0 LINE",
"293 0 LINE",
"293 67 LINE",
"109 67 LINE",
"109 171 LINE",
"264 171 LINE",
"264 238 LINE",
"109 238 LINE",
"109 333 LINE",
"289 333 LINE"
);
},
{
closed = 1;
nodes = (
"138 515 LINE",
"79 515 LINE",
"79 451 LINE",
"138 451 LINE"
);
},
{
closed = 1;
nodes = (
"239 515 LINE",
"181 515 LINE",
"181 451 LINE",
"239 451 LINE"
);
}
);
width = 319;
}
);
unicode = 00CB;
},
{
glyphname = Edotaccent;
lastChange = "2015-01-27 09:06:03 +0000";
layers = (
{
layerId = "E0AA17FE-947E-4089-955E-70E92921D86D";
name = Regular;
paths = (
{
closed = 1;
nodes = (
"185 459 LINE",
"185 515 LINE",
"134 515 LINE",
"134 459 LINE"
);
},
{
closed = 1;
nodes = (
"41 0 LINE",
"291 0 LINE",
"291 47 LINE",
"92 47 LINE",
"92 181 LINE",
"262 181 LINE",
"262 228 LINE",
"92 228 LINE",
"92 353 LINE",
"287 353 LINE",
"287 399 LINE",
"41 399 LINE"
);
}
);
width = 319;
},
{
layerId = "256C563F-4683-4C38-8505-F28FAA76841F";
name = Bold;
paths = (
{
closed = 1;
nodes = (
"190 447 LINE",
"190 515 LINE",
"128 515 LINE",
"128 447 LINE"
);
},
{
closed = 1;
nodes = (
"35 0 LINE",
"293 0 LINE",
"293 67 LINE",
"109 67 LINE",
"109 171 LINE",
"264 171 LINE",
"264 238 LINE",
"109 238 LINE",
"109 333 LINE",
"289 333 LINE",
"289 399 LINE",
"35 399 LINE"
);
}
);
width = 319;
}
);
unicode = 0116;
},
{
glyphname = Egrave;
lastChange = "2015-01-27 09:06:03 +0000";
layers = (
{
layerId = "E0AA17FE-947E-4089-955E-70E92921D86D";
name = Regular;
paths = (
{
closed = 1;
nodes = (
"287 399 LINE",
"41 399 LINE",
"41 0 LINE",
"291 0 LINE",
"291 47 LINE",
"92 47 LINE",
"92 181 LINE",
"262 181 LINE",
"262 228 LINE",
"92 228 LINE",
"92 353 LINE",
"287 353 LINE"
);
},
{
closed = 1;
nodes = (
"144 515 LINE",
"92 515 LINE",
"91 513 LINE",
"154 438 LINE",
"194 438 LINE"
);
}
);
width = 319;
},
{
layerId = "256C563F-4683-4C38-8505-F28FAA76841F";
name = Bold;
paths = (
{
closed = 1;
nodes = (
"289 399 LINE",
"35 399 LINE",
"35 0 LINE",
"293 0 LINE",
"293 67 LINE",
"109 67 LINE",
"109 171 LINE",
"264 171 LINE",
"264 238 LINE",
"109 238 LINE",
"109 333 LINE",
"289 333 LINE"
);
},
{
closed = 1;
nodes = (
"149 515 LINE",
"79 515 LINE",
"78 513 LINE",
"142 438 LINE",
"199 438 LINE"
);
}
);
width = 319;
}
);
unicode = 00C8;
},
{
glyphname = Emacron;
lastChange = "2015-01-27 09:06:03 +0000";
layers = (
{
layerId = "E0AA17FE-947E-4089-955E-70E92921D86D";
name = Regular;
paths = (
{
closed = 1;
nodes = (
"233 442 LINE",
"233 484 LINE",
"86 484 LINE",
"86 442 LINE"
);
},
{
closed = 1;
nodes = (
"41 0 LINE",
"291 0 LINE",
"291 47 LINE",
"92 47 LINE",
"92 181 LINE",
"262 181 LINE",
"262 228 LINE",
"92 228 LINE",
"92 353 LINE",
"287 353 LINE",
"287 399 LINE",
"41 399 LINE"
);
}
);
width = 319;
},
{
layerId = "256C563F-4683-4C38-8505-F28FAA76841F";
name = Bold;
paths = (
{
closed = 1;
nodes = (
"233 442 LINE",
"233 493 LINE",
"85 493 LINE",
"85 442 LINE"
);
},
{
closed = 1;
nodes = (
"35 0 LINE",
"293 0 LINE",
"293 67 LINE",
"109 67 LINE",
"109 171 LINE",
"264 171 LINE",
"264 238 LINE",
"109 238 LINE",
"109 333 LINE",
"289 333 LINE",
"289 399 LINE",
"35 399 LINE"
);
}
);
width = 319;
}
);
unicode = 0112;
},
{
glyphname = Eogonek;
lastChange = "2015-01-27 09:06:03 +0000";
layers = (
{
layerId = "E0AA17FE-947E-4089-955E-70E92921D86D";
name = Regular;
paths = (
{
closed = 1;
nodes = (
"287 353 LINE",
"287 399 LINE",
"41 399 LINE",
"41 0 LINE",
"253 0 LINE",
"241 -13 OFFCURVE",
"231 -29 OFFCURVE",
"231 -53 CURVE SMOOTH",
"231 -94 OFFCURVE",
"261 -106 OFFCURVE",
"286 -106 CURVE SMOOTH",
"298 -106 OFFCURVE",
"309 -103 OFFCURVE",
"322 -98 CURVE",
"322 -68 LINE",
"304 -68 LINE SMOOTH",
"284 -68 OFFCURVE",
"277 -53 OFFCURVE",
"277 -36 CURVE SMOOTH",
"277 -22 OFFCURVE",
"284 -9 OFFCURVE",
"291 0 CURVE",
"291 47 LINE",
"92 47 LINE",
"92 181 LINE",
"262 181 LINE",
"262 228 LINE",
"92 228 LINE",
"92 353 LINE"
);
}
);
width = 319;
},
{
layerId = "256C563F-4683-4C38-8505-F28FAA76841F";
name = Bold;
paths = (
{
closed = 1;
nodes = (
"289 333 LINE",
"289 399 LINE",
"35 399 LINE",
"35 0 LINE",
"244 0 LINE",
"230 -14 OFFCURVE",
"218 -31 OFFCURVE",
"218 -58 CURVE SMOOTH",
"218 -98 OFFCURVE",
"249 -111 OFFCURVE",
"276 -111 CURVE SMOOTH",
"289 -111 OFFCURVE",
"301 -108 OFFCURVE",
"314 -103 CURVE",
"314 -71 LINE",
"302 -71 LINE SMOOTH",
"283 -71 OFFCURVE",
"275 -56 OFFCURVE",
"275 -41 CURVE SMOOTH",
"275 -24 OFFCURVE",
"286 -8 OFFCURVE",
"293 0 CURVE",
"293 67 LINE",
"109 67 LINE",
"109 171 LINE",
"264 171 LINE",
"264 238 LINE",
"109 238 LINE",
"109 333 LINE"
);
}
);
width = 319;
}
);
unicode = 0118;
},
{
glyphname = F;
lastChange = "2015-01-27 09:06:03 +0000";
layers = (
{
layerId = "E0AA17FE-947E-4089-955E-70E92921D86D";
name = Regular;
paths = (
{
closed = 1;
nodes = (
"41 0 LINE",
"92 0 LINE",
"92 177 LINE",
"250 177 LINE",
"250 223 LINE",
"92 223 LINE",
"92 353 LINE",
"272 353 LINE",
"272 399 LINE",
"41 399 LINE"
);
}
);
width = 292;
},
{
layerId = "256C563F-4683-4C38-8505-F28FAA76841F";
name = Bold;
paths = (
{
closed = 1;
nodes = (
"35 0 LINE",
"109 0 LINE",
"109 166 LINE",
"246 166 LINE",
"246 233 LINE",
"109 233 LINE",
"109 333 LINE",
"270 333 LINE",
"270 399 LINE",
"35 399 LINE"
);
}
);
width = 292;
}
);
unicode = 0046;
},
{
glyphname = G;
lastChange = "2015-01-27 09:06:03 +0000";
layers = (
{
anchors = (
{
name = bottom;
position = "{186, 0}";
},
{
name = top;
position = "{186, 399}";
}
);
layerId = "E0AA17FE-947E-4089-955E-70E92921D86D";
name = Regular;
paths = (
{
closed = 1;
nodes = (
"89 407 OFFCURVE",
"28 339 OFFCURVE",
"28 200 CURVE SMOOTH",
"28 61 OFFCURVE",
"85 -7 OFFCURVE",
"186 -7 CURVE SMOOTH",
"229 -7 OFFCURVE",
"264 8 OFFCURVE",
"289 44 CURVE",
"300 0 LINE",
"334 0 LINE",
"334 208 LINE",
"178 208 LINE",
"178 163 LINE",
"303 163 LINE",
"281 185 LINE",
"281 154 LINE SMOOTH",
"281 78 OFFCURVE",
"252 40 OFFCURVE",
"186 40 CURVE SMOOTH",
"119 40 OFFCURVE",
"82 88 OFFCURVE",
"82 185 CURVE SMOOTH",
"82 214 LINE SMOOTH",
"82 312 OFFCURVE",
"123 359 OFFCURVE",
"188 359 CURVE SMOOTH",
"244 359 OFFCURVE",
"281 329 OFFCURVE",
"281 264 CURVE",
"334 264 LINE",
"334 360 OFFCURVE",
"272 407 OFFCURVE",
"188 407 CURVE SMOOTH"
);
}
);
width = 372;
},
{
anchors = (
{
name = bottom;
position = "{186, 0}";
},
{
name = top;
position = "{186, 399}";
}
);
layerId = "256C563F-4683-4C38-8505-F28FAA76841F";
name = Bold;
paths = (
{
closed = 1;
nodes = (
"82 407 OFFCURVE",
"20 341 OFFCURVE",
"20 200 CURVE SMOOTH",
"20 58 OFFCURVE",
"76 -7 OFFCURVE",
"174 -7 CURVE SMOOTH",
"216 -7 OFFCURVE",
"255 11 OFFCURVE",
"281 44 CURVE",
"294 0 LINE",
"342 0 LINE",
"342 217 LINE",
"176 217 LINE",
"176 153 LINE",
"297 153 LINE",
"266 181 LINE",
"266 153 LINE SMOOTH",
"266 94 OFFCURVE",
"233 57 OFFCURVE",
"188 57 CURVE SMOOTH",
"125 57 OFFCURVE",
"97 103 OFFCURVE",
"97 185 CURVE SMOOTH",
"97 214 LINE SMOOTH",
"97 294 OFFCURVE",
"125 343 OFFCURVE",
"187 343 CURVE SMOOTH",
"230 343 OFFCURVE",
"266 314 OFFCURVE",
"266 260 CURVE",
"342 260 LINE",
"342 355 OFFCURVE",
"270 407 OFFCURVE",
"189 407 CURVE SMOOTH"
);
}
);
width = 372;
}
);
unicode = 0047;
},
{
glyphname = Gbreve;
lastChange = "2015-01-27 09:06:03 +0000";
layers = (
{
layerId = "E0AA17FE-947E-4089-955E-70E92921D86D";
name = Regular;
paths = (
{
closed = 1;
nodes = (
"221 515 LINE",
"219 506 OFFCURVE",
"206 495 OFFCURVE",
"186 495 CURVE SMOOTH",
"167 495 OFFCURVE",
"153 506 OFFCURVE",
"152 515 CURVE",
"114 515 LINE",
"114 488 OFFCURVE",
"142 458 OFFCURVE",
"186 458 CURVE SMOOTH",
"231 458 OFFCURVE",
"258 488 OFFCURVE",
"258 515 CURVE"
);
},
{
closed = 1;
nodes = (
"89 407 OFFCURVE",
"28 339 OFFCURVE",
"28 200 CURVE SMOOTH",
"28 61 OFFCURVE",
"85 -7 OFFCURVE",
"186 -7 CURVE SMOOTH",
"229 -7 OFFCURVE",
"264 8 OFFCURVE",
"289 44 CURVE",
"300 0 LINE",
"334 0 LINE",
"334 208 LINE",
"178 208 LINE",
"178 163 LINE",
"303 163 LINE",
"281 185 LINE",
"281 154 LINE SMOOTH",
"281 78 OFFCURVE",
"252 40 OFFCURVE",
"186 40 CURVE SMOOTH",
"119 40 OFFCURVE",
"82 88 OFFCURVE",
"82 185 CURVE SMOOTH",
"82 214 LINE SMOOTH",
"82 312 OFFCURVE",
"123 359 OFFCURVE",
"188 359 CURVE SMOOTH",
"244 359 OFFCURVE",
"281 329 OFFCURVE",
"281 264 CURVE",
"334 264 LINE",
"334 360 OFFCURVE",
"272 407 OFFCURVE",
"188 407 CURVE SMOOTH"
);
}
);
width = 372;
},
{
layerId = "256C563F-4683-4C38-8505-F28FAA76841F";
name = Bold;
paths = (
{
closed = 1;
nodes = (
"221 515 LINE",
"219 506 OFFCURVE",
"206 495 OFFCURVE",
"186 495 CURVE SMOOTH",
"167 495 OFFCURVE",
"153 506 OFFCURVE",
"152 515 CURVE",
"108 515 LINE",
"108 485 OFFCURVE",
"138 452 OFFCURVE",
"186 452 CURVE SMOOTH",
"234 452 OFFCURVE",
"264 485 OFFCURVE",
"264 515 CURVE"
);
},
{
closed = 1;
nodes = (
"82 407 OFFCURVE",
"20 341 OFFCURVE",
"20 200 CURVE SMOOTH",
"20 58 OFFCURVE",
"76 -7 OFFCURVE",
"174 -7 CURVE SMOOTH",
"216 -7 OFFCURVE",
"255 11 OFFCURVE",
"281 44 CURVE",
"294 0 LINE",
"342 0 LINE",
"342 217 LINE",
"176 217 LINE",
"176 153 LINE",
"297 153 LINE",
"266 181 LINE",
"266 153 LINE SMOOTH",
"266 94 OFFCURVE",
"233 57 OFFCURVE",
"188 57 CURVE SMOOTH",
"125 57 OFFCURVE",
"97 103 OFFCURVE",
"97 185 CURVE SMOOTH",
"97 214 LINE SMOOTH",
"97 294 OFFCURVE",
"125 343 OFFCURVE",
"187 343 CURVE SMOOTH",
"230 343 OFFCURVE",
"266 314 OFFCURVE",
"266 260 CURVE",
"342 260 LINE",
"342 355 OFFCURVE",
"270 407 OFFCURVE",
"189 407 CURVE SMOOTH"
);
}
);
width = 372;
}
);
unicode = 011E;
},
{
glyphname = Gcircumflex;
lastChange = "2015-01-27 09:06:03 +0000";
layers = (
{
layerId = "E0AA17FE-947E-4089-955E-70E92921D86D";
name = Regular;
paths = (
{
closed = 1;
nodes = (
"258 435 LINE",
"209 514 LINE",
"163 514 LINE",
"113 435 LINE",
"160 435 LINE",
"186 481 LINE",
"212 435 LINE"
);
},
{
closed = 1;
nodes = (
"89 407 OFFCURVE",
"28 339 OFFCURVE",
"28 200 CURVE SMOOTH",
"28 61 OFFCURVE",
"85 -7 OFFCURVE",
"186 -7 CURVE SMOOTH",
"229 -7 OFFCURVE",
"264 8 OFFCURVE",
"289 44 CURVE",
"300 0 LINE",
"334 0 LINE",
"334 208 LINE",
"178 208 LINE",
"178 163 LINE",
"303 163 LINE",
"281 185 LINE",
"281 154 LINE SMOOTH",
"281 78 OFFCURVE",
"252 40 OFFCURVE",
"186 40 CURVE SMOOTH",
"119 40 OFFCURVE",
"82 88 OFFCURVE",
"82 185 CURVE SMOOTH",
"82 214 LINE SMOOTH",
"82 312 OFFCURVE",
"123 359 OFFCURVE",
"188 359 CURVE SMOOTH",
"244 359 OFFCURVE",
"281 329 OFFCURVE",
"281 264 CURVE",
"334 264 LINE",
"334 360 OFFCURVE",
"272 407 OFFCURVE",
"188 407 CURVE SMOOTH"
);
}
);
width = 372;
},
{
layerId = "256C563F-4683-4C38-8505-F28FAA76841F";
name = Bold;
paths = (
{
closed = 1;
nodes = (
"264 436 LINE",
"215 515 LINE",
"158 515 LINE",
"108 436 LINE",
"160 436 LINE",
"186 476 LINE",
"212 436 LINE"
);
},
{
closed = 1;
nodes = (
"82 407 OFFCURVE",
"20 341 OFFCURVE",
"20 200 CURVE SMOOTH",
"20 58 OFFCURVE",
"76 -7 OFFCURVE",
"174 -7 CURVE SMOOTH",
"216 -7 OFFCURVE",
"255 11 OFFCURVE",
"281 44 CURVE",
"294 0 LINE",
"342 0 LINE",
"342 217 LINE",
"176 217 LINE",
"176 153 LINE",
"297 153 LINE",
"266 181 LINE",
"266 153 LINE SMOOTH",
"266 94 OFFCURVE",
"233 57 OFFCURVE",
"188 57 CURVE SMOOTH",
"125 57 OFFCURVE",
"97 103 OFFCURVE",
"97 185 CURVE SMOOTH",
"97 214 LINE SMOOTH",
"97 294 OFFCURVE",
"125 343 OFFCURVE",
"187 343 CURVE SMOOTH",
"230 343 OFFCURVE",
"266 314 OFFCURVE",
"266 260 CURVE",
"342 260 LINE",
"342 355 OFFCURVE",
"270 407 OFFCURVE",
"189 407 CURVE SMOOTH"
);
}
);
width = 372;
}
);
unicode = 011C;
},
{
glyphname = Gcommaaccent;
lastChange = "2015-01-27 09:06:03 +0000";
layers = (
{
layerId = "E0AA17FE-947E-4089-955E-70E92921D86D";
name = Regular;
paths = (
{
closed = 1;
nodes = (
"211 -84 LINE",
"211 -35 LINE",
"161 -35 LINE",
"161 -88 LINE",
"181 -88 LINE",
"168 -129 LINE",
"194 -129 LINE"
);
},
{
closed = 1;
nodes = (
"89 407 OFFCURVE",
"28 339 OFFCURVE",
"28 200 CURVE SMOOTH",
"28 61 OFFCURVE",
"85 -7 OFFCURVE",
"186 -7 CURVE SMOOTH",
"229 -7 OFFCURVE",
"264 8 OFFCURVE",
"289 44 CURVE",
"300 0 LINE",
"334 0 LINE",
"334 208 LINE",
"178 208 LINE",
"178 163 LINE",
"303 163 LINE",
"281 185 LINE",
"281 154 LINE SMOOTH",
"281 78 OFFCURVE",
"252 40 OFFCURVE",
"186 40 CURVE SMOOTH",
"119 40 OFFCURVE",
"82 88 OFFCURVE",
"82 185 CURVE SMOOTH",
"82 214 LINE SMOOTH",
"82 312 OFFCURVE",
"123 359 OFFCURVE",
"188 359 CURVE SMOOTH",
"244 359 OFFCURVE",
"281 329 OFFCURVE",
"281 264 CURVE",
"334 264 LINE",
"334 360 OFFCURVE",
"272 407 OFFCURVE",
"188 407 CURVE SMOOTH"
);
}
);
width = 372;
},
{
layerId = "256C563F-4683-4C38-8505-F28FAA76841F";
name = Bold;
paths = (
{
closed = 1;
nodes = (
"213 -98 LINE",
"213 -32 LINE",
"141 -32 LINE",
"141 -103 LINE",
"169 -103 LINE",
"148 -153 LINE",
"186 -153 LINE"
);
},
{
closed = 1;
nodes = (
"82 407 OFFCURVE",
"20 341 OFFCURVE",
"20 200 CURVE SMOOTH",
"20 58 OFFCURVE",
"76 -7 OFFCURVE",
"174 -7 CURVE SMOOTH",
"216 -7 OFFCURVE",
"255 11 OFFCURVE",
"281 44 CURVE",
"294 0 LINE",
"342 0 LINE",
"342 217 LINE",
"176 217 LINE",
"176 153 LINE",
"297 153 LINE",
"266 181 LINE",
"266 153 LINE SMOOTH",
"266 94 OFFCURVE",
"233 57 OFFCURVE",
"188 57 CURVE SMOOTH",
"125 57 OFFCURVE",
"97 103 OFFCURVE",
"97 185 CURVE SMOOTH",
"97 214 LINE SMOOTH",
"97 294 OFFCURVE",
"125 343 OFFCURVE",
"187 343 CURVE SMOOTH",
"230 343 OFFCURVE",
"266 314 OFFCURVE",
"266 260 CURVE",
"342 260 LINE",
"342 355 OFFCURVE",
"270 407 OFFCURVE",
"189 407 CURVE SMOOTH"
);
}
);
width = 372;
}
);
unicode = 0122;
},
{
glyphname = Gdotaccent;
lastChange = "2015-01-27 09:06:03 +0000";
layers = (
{
layerId = "E0AA17FE-947E-4089-955E-70E92921D86D";
name = Regular;
paths = (
{
closed = 1;
nodes = (
"212 459 LINE",
"212 515 LINE",
"161 515 LINE",
"161 459 LINE"
);
},
{
closed = 1;
nodes = (
"89 407 OFFCURVE",
"28 339 OFFCURVE",
"28 200 CURVE SMOOTH",
"28 61 OFFCURVE",
"85 -7 OFFCURVE",
"186 -7 CURVE SMOOTH",
"229 -7 OFFCURVE",
"264 8 OFFCURVE",
"289 44 CURVE",
"300 0 LINE",
"334 0 LINE",
"334 208 LINE",
"178 208 LINE",
"178 163 LINE",
"303 163 LINE",
"281 185 LINE",
"281 154 LINE SMOOTH",
"281 78 OFFCURVE",
"252 40 OFFCURVE",
"186 40 CURVE SMOOTH",
"119 40 OFFCURVE",
"82 88 OFFCURVE",
"82 185 CURVE SMOOTH",
"82 214 LINE SMOOTH",
"82 312 OFFCURVE",
"123 359 OFFCURVE",
"188 359 CURVE SMOOTH",
"244 359 OFFCURVE",
"281 329 OFFCURVE",
"281 264 CURVE",
"334 264 LINE",
"334 360 OFFCURVE",
"272 407 OFFCURVE",
"188 407 CURVE SMOOTH"
);
}
);
width = 372;
},
{
layerId = "256C563F-4683-4C38-8505-F28FAA76841F";
name = Bold;
paths = (
{
closed = 1;
nodes = (
"217 447 LINE",
"217 515 LINE",
"155 515 LINE",
"155 447 LINE"
);
},
{
closed = 1;
nodes = (
"82 407 OFFCURVE",
"20 341 OFFCURVE",
"20 200 CURVE SMOOTH",
"20 58 OFFCURVE",
"76 -7 OFFCURVE",
"174 -7 CURVE SMOOTH",
"216 -7 OFFCURVE",
"255 11 OFFCURVE",
"281 44 CURVE",
"294 0 LINE",
"342 0 LINE",
"342 217 LINE",
"176 217 LINE",
"176 153 LINE",
"297 153 LINE",
"266 181 LINE",
"266 153 LINE SMOOTH",
"266 94 OFFCURVE",
"233 57 OFFCURVE",
"188 57 CURVE SMOOTH",
"125 57 OFFCURVE",
"97 103 OFFCURVE",
"97 185 CURVE SMOOTH",
"97 214 LINE SMOOTH",
"97 294 OFFCURVE",
"125 343 OFFCURVE",
"187 343 CURVE SMOOTH",
"230 343 OFFCURVE",
"266 314 OFFCURVE",
"266 260 CURVE",
"342 260 LINE",
"342 355 OFFCURVE",
"270 407 OFFCURVE",
"189 407 CURVE SMOOTH"
);
}
);
width = 372;
}
);
unicode = 0120;
},
{
glyphname = H;
lastChange = "2015-01-27 09:06:03 +0000";
layers = (
{
anchors = (
{
name = center;
position = "{173, 200}";
},
{
name = top;
position = "{173, 399}";
}
);
layerId = "E0AA17FE-947E-4089-955E-70E92921D86D";
name = Regular;
paths = (
{
closed = 1;
nodes = (
"304 399 LINE",
"253 399 LINE",
"253 228 LINE",
"92 228 LINE",
"92 399 LINE",
"41 399 LINE",
"41 0 LINE",
"92 0 LINE",
"92 181 LINE",
"253 181 LINE",
"253 0 LINE",
"304 0 LINE"
);
}
);
width = 345;
},
{
anchors = (
{
name = center;
position = "{173, 200}";
},
{
name = top;
position = "{173, 399}";
}
);
layerId = "256C563F-4683-4C38-8505-F28FAA76841F";
name = Bold;
paths = (
{
closed = 1;
nodes = (
"310 399 LINE",
"235 399 LINE",
"235 238 LINE",
"109 238 LINE",
"109 399 LINE",
"35 399 LINE",
"35 0 LINE",
"109 0 LINE",
"109 171 LINE",
"235 171 LINE",
"235 0 LINE",
"310 0 LINE"
);
}
);
width = 345;
}
);
unicode = 0048;
},
{
glyphname = Hbar;
lastChange = "2015-01-27 09:06:03 +0000";
layers = (
{
layerId = "E0AA17FE-947E-4089-955E-70E92921D86D";
name = Regular;
paths = (
{
closed = 1;
nodes = (
"333 285 LINE",
"333 328 LINE",
"304 328 LINE",
"304 399 LINE",
"253 399 LINE",
"253 328 LINE",
"92 328 LINE",
"92 399 LINE",
"41 399 LINE",
"41 328 LINE",
"12 328 LINE",
"12 285 LINE",
"41 285 LINE",
"41 0 LINE",
"92 0 LINE",
"92 179 LINE",
"253 179 LINE",
"253 0 LINE",
"304 0 LINE",
"304 285 LINE"
);
},
{
closed = 1;
nodes = (
"253 225 LINE",
"92 225 LINE",
"92 285 LINE",
"253 285 LINE"
);
}
);
width = 345;
},
{
layerId = "256C563F-4683-4C38-8505-F28FAA76841F";
name = Bold;
paths = (
{
closed = 1;
nodes = (
"339 285 LINE",
"339 336 LINE",
"310 336 LINE",
"310 399 LINE",
"235 399 LINE",
"235 336 LINE",
"109 336 LINE",
"109 399 LINE",
"35 399 LINE",
"35 336 LINE",
"6 336 LINE",
"6 285 LINE",
"35 285 LINE",
"35 0 LINE",
"109 0 LINE",
"109 167 LINE",
"235 167 LINE",
"235 0 LINE",
"310 0 LINE",
"310 285 LINE"
);
},
{
closed = 1;
nodes = (
"235 233 LINE",
"109 233 LINE",
"109 285 LINE",
"235 285 LINE"
);
}
);
width = 345;
}
);
unicode = 0126;
},
{
glyphname = Hcircumflex;
lastChange = "2015-01-27 09:06:03 +0000";
layers = (
{
layerId = "E0AA17FE-947E-4089-955E-70E92921D86D";
name = Regular;
paths = (
{
closed = 1;
nodes = (
"304 399 LINE",
"253 399 LINE",
"253 228 LINE",
"92 228 LINE",
"92 399 LINE",
"41 399 LINE",
"41 0 LINE",
"92 0 LINE",
"92 181 LINE",
"253 181 LINE",
"253 0 LINE",
"304 0 LINE"
);
},
{
closed = 1;
nodes = (
"195 514 LINE",
"150 514 LINE",
"100 435 LINE",
"146 435 LINE",
"173 481 LINE",
"198 435 LINE",
"245 435 LINE"
);
}
);
width = 345;
},
{
layerId = "256C563F-4683-4C38-8505-F28FAA76841F";
name = Bold;
paths = (
{
closed = 1;
nodes = (
"310 399 LINE",
"235 399 LINE",
"235 238 LINE",
"109 238 LINE",
"109 399 LINE",
"35 399 LINE",
"35 0 LINE",
"109 0 LINE",
"109 171 LINE",
"235 171 LINE",
"235 0 LINE",
"310 0 LINE"
);
},
{
closed = 1;
nodes = (
"202 515 LINE",
"144 515 LINE",
"94 436 LINE",
"146 436 LINE",
"173 476 LINE",
"198 436 LINE",
"251 436 LINE"
);
}
);
width = 345;
}
);
unicode = 0124;
},
{
glyphname = I;
lastChange = "2015-01-27 09:06:03 +0000";
layers = (
{
anchors = (
{
name = ogonek;
position = "{119, 6}";
},
{
name = top;
position = "{67, 399}";
}
);
layerId = "E0AA17FE-947E-4089-955E-70E92921D86D";
name = Regular;
paths = (
{
closed = 1;
nodes = (
"92 0 LINE",
"92 399 LINE",
"41 399 LINE",
"41 0 LINE"
);
}
);
width = 133;
},
{
anchors = (
{
name = ogonek;
position = "{119, 6}";
},
{
name = top;
position = "{67, 399}";
}
);
layerId = "256C563F-4683-4C38-8505-F28FAA76841F";
name = Bold;
paths = (
{
closed = 1;
nodes = (
"103 0 LINE",
"103 399 LINE",
"29 399 LINE",
"29 0 LINE"
);
}
);
width = 133;
}
);
unicode = 0049;
},
{
glyphname = IJ;
lastChange = "2015-01-27 09:06:03 +0000";
layers = (
{
layerId = "E0AA17FE-947E-4089-955E-70E92921D86D";
name = Regular;
paths = (
{
closed = 1;
nodes = (
"334 399 LINE",
"283 399 LINE",
"283 92 LINE SMOOTH",
"283 58 OFFCURVE",
"266 40 OFFCURVE",
"237 40 CURVE SMOOTH",
"208 40 OFFCURVE",
"192 58 OFFCURVE",
"192 92 CURVE SMOOTH",
"192 121 LINE",
"140 121 LINE",
"140 95 LINE SMOOTH",
"140 28 OFFCURVE",
"176 -7 OFFCURVE",
"237 -7 CURVE SMOOTH",
"299 -7 OFFCURVE",
"334 28 OFFCURVE",
"334 95 CURVE SMOOTH"
);
},
{
closed = 1;
nodes = (
"92 399 LINE",
"41 399 LINE",
"41 0 LINE",
"92 0 LINE"
);
}
);
width = 372;
},
{
layerId = "256C563F-4683-4C38-8505-F28FAA76841F";
name = Bold;
paths = (
{
closed = 1;
nodes = (
"364 399 LINE",
"289 399 LINE",
"289 101 LINE SMOOTH",
"289 72 OFFCURVE",
"276 57 OFFCURVE",
"251 57 CURVE SMOOTH",
"225 57 OFFCURVE",
"212 72 OFFCURVE",
"212 101 CURVE SMOOTH",
"212 126 LINE",
"138 126 LINE",
"138 95 LINE SMOOTH",
"138 28 OFFCURVE",
"179 -7 OFFCURVE",
"251 -7 CURVE SMOOTH",
"324 -7 OFFCURVE",
"364 28 OFFCURVE",
"364 95 CURVE SMOOTH"
);
},
{
closed = 1;
nodes = (
"103 399 LINE",
"29 399 LINE",
"29 0 LINE",
"103 0 LINE"
);
}
);
width = 399;
}
);
unicode = 0132;
},
{
glyphname = Iacute;
lastChange = "2015-01-27 09:06:03 +0000";
layers = (
{
layerId = "E0AA17FE-947E-4089-955E-70E92921D86D";
name = Regular;
paths = (
{
closed = 1;
nodes = (
"92 399 LINE",
"41 399 LINE",
"41 0 LINE",
"92 0 LINE"
);
},
{
closed = 1;
nodes = (
"134 515 LINE",
"82 515 LINE",
"32 438 LINE",
"72 438 LINE",
"134 513 LINE"
);
}
);
width = 133;
},
{
layerId = "256C563F-4683-4C38-8505-F28FAA76841F";
name = Bold;
paths = (
{
closed = 1;
nodes = (
"103 399 LINE",
"29 399 LINE",
"29 0 LINE",
"103 0 LINE"
);
},
{
closed = 1;
nodes = (
"146 515 LINE",
"76 515 LINE",
"26 438 LINE",
"84 438 LINE",
"147 513 LINE"
);
}
);
width = 133;
}
);
unicode = 00CD;
},
{
glyphname = Ibreve;
lastChange = "2015-01-27 09:06:03 +0000";
layers = (
{
layerId = "E0AA17FE-947E-4089-955E-70E92921D86D";
name = Regular;
paths = (
{
closed = 1;
nodes = (
"92 0 LINE",
"92 399 LINE",
"41 399 LINE",
"41 0 LINE"
);
},
{
closed = 1;
nodes = (
"101 515 LINE",
"100 506 OFFCURVE",
"86 495 OFFCURVE",
"67 495 CURVE SMOOTH",
"47 495 OFFCURVE",
"34 506 OFFCURVE",
"32 515 CURVE",
"-6 515 LINE",
"-6 488 OFFCURVE",
"22 458 OFFCURVE",
"67 458 CURVE SMOOTH",
"111 458 OFFCURVE",
"138 488 OFFCURVE",
"138 515 CURVE"
);
}
);
width = 133;
},
{
layerId = "256C563F-4683-4C38-8505-F28FAA76841F";
name = Bold;
paths = (
{
closed = 1;
nodes = (
"103 0 LINE",
"103 399 LINE",
"29 399 LINE",
"29 0 LINE"
);
},
{
closed = 1;
nodes = (
"101 515 LINE",
"100 506 OFFCURVE",
"86 495 OFFCURVE",
"67 495 CURVE SMOOTH",
"47 495 OFFCURVE",
"34 506 OFFCURVE",
"32 515 CURVE",
"-12 515 LINE",
"-12 485 OFFCURVE",
"18 452 OFFCURVE",
"67 452 CURVE SMOOTH",
"115 452 OFFCURVE",
"144 485 OFFCURVE",
"144 515 CURVE"
);
}
);
width = 133;
}
);
unicode = 012C;
},
{
glyphname = Icircumflex;
lastChange = "2015-01-27 09:06:03 +0000";
layers = (
{
layerId = "E0AA17FE-947E-4089-955E-70E92921D86D";
name = Regular;
paths = (
{
closed = 1;
nodes = (
"92 0 LINE",
"92 399 LINE",
"41 399 LINE",
"41 0 LINE"
);
},
{
closed = 1;
nodes = (
"139 435 LINE",
"90 514 LINE",
"44 514 LINE",
"-7 435 LINE",
"41 435 LINE",
"67 481 LINE",
"93 435 LINE"
);
}
);
width = 133;
},
{
layerId = "256C563F-4683-4C38-8505-F28FAA76841F";
name = Bold;
paths = (
{
closed = 1;
nodes = (
"103 0 LINE",
"103 399 LINE",
"29 399 LINE",
"29 0 LINE"
);
},
{
closed = 1;
nodes = (
"145 436 LINE",
"96 515 LINE",
"38 515 LINE",
"-13 436 LINE",
"41 436 LINE",
"67 476 LINE",
"93 436 LINE"
);
}
);
width = 133;
}
);
unicode = 00CE;
},
{
glyphname = Idieresis;
lastChange = "2015-01-27 09:06:03 +0000";
layers = (
{
layerId = "E0AA17FE-947E-4089-955E-70E92921D86D";
name = Regular;
paths = (
{
closed = 1;
nodes = (
"92 399 LINE",
"41 399 LINE",
"41 0 LINE",
"92 0 LINE"
);
},
{
closed = 1;
nodes = (
"48 515 LINE",
"-3 515 LINE",
"-3 459 LINE",
"48 459 LINE"
);
},
{
closed = 1;
nodes = (
"136 515 LINE",
"85 515 LINE",
"85 459 LINE",
"136 459 LINE"
);
}
);
width = 133;
},
{
layerId = "256C563F-4683-4C38-8505-F28FAA76841F";
name = Bold;
paths = (
{
closed = 1;
nodes = (
"103 399 LINE",
"29 399 LINE",
"29 0 LINE",
"103 0 LINE"
);
},
{
closed = 1;
nodes = (
"45 515 LINE",
"-13 515 LINE",
"-13 451 LINE",
"45 451 LINE"
);
},
{
closed = 1;
nodes = (
"147 515 LINE",
"88 515 LINE",
"88 451 LINE",
"147 451 LINE"
);
}
);
width = 133;
}
);
unicode = 00CF;
},
{
glyphname = Idotaccent;
lastChange = "2015-01-27 09:06:03 +0000";
layers = (
{
layerId = "E0AA17FE-947E-4089-955E-70E92921D86D";
name = Regular;
paths = (
{
closed = 1;
nodes = (
"92 0 LINE",
"92 399 LINE",
"41 399 LINE",
"41 0 LINE"
);
},
{
closed = 1;
nodes = (
"92 459 LINE",
"92 515 LINE",
"42 515 LINE",
"42 459 LINE"
);
}
);
width = 133;
},
{
layerId = "256C563F-4683-4C38-8505-F28FAA76841F";
name = Bold;
paths = (
{
closed = 1;
nodes = (
"103 0 LINE",
"103 399 LINE",
"29 399 LINE",
"29 0 LINE"
);
},
{
closed = 1;
nodes = (
"98 447 LINE",
"98 515 LINE",
"36 515 LINE",
"36 447 LINE"
);
}
);
width = 133;
}
);
unicode = 0130;
},
{
glyphname = Igrave;
lastChange = "2015-01-27 09:06:03 +0000";
layers = (
{
layerId = "E0AA17FE-947E-4089-955E-70E92921D86D";
name = Regular;
paths = (
{
closed = 1;
nodes = (
"92 399 LINE",
"41 399 LINE",
"41 0 LINE",
"92 0 LINE"
);
},
{
closed = 1;
nodes = (
"51 515 LINE",
"-1 515 LINE",
"-2 513 LINE",
"61 438 LINE",
"101 438 LINE"
);
}
);
width = 133;
},
{
layerId = "256C563F-4683-4C38-8505-F28FAA76841F";
name = Bold;
paths = (
{
closed = 1;
nodes = (
"103 399 LINE",
"29 399 LINE",
"29 0 LINE",
"103 0 LINE"
);
},
{
closed = 1;
nodes = (
"57 515 LINE",
"-13 515 LINE",
"-14 513 LINE",
"49 438 LINE",
"107 438 LINE"
);
}
);
width = 133;
}
);
unicode = 00CC;
},
{
glyphname = Imacron;
lastChange = "2015-01-27 09:06:03 +0000";
layers = (
{
layerId = "E0AA17FE-947E-4089-955E-70E92921D86D";
name = Regular;
paths = (
{
closed = 1;
nodes = (
"92 0 LINE",
"92 399 LINE",
"41 399 LINE",
"41 0 LINE"
);
},
{
closed = 1;
nodes = (
"140 442 LINE",
"140 484 LINE",
"-7 484 LINE",
"-7 442 LINE"
);
}
);
width = 133;
},
{
layerId = "256C563F-4683-4C38-8505-F28FAA76841F";
name = Bold;
paths = (
{
closed = 1;
nodes = (
"103 0 LINE",
"103 399 LINE",
"29 399 LINE",
"29 0 LINE"
);
},
{
closed = 1;
nodes = (
"141 442 LINE",
"141 493 LINE",
"-8 493 LINE",
"-8 442 LINE"
);
}
);
width = 133;
}
);
unicode = 012A;
},
{
glyphname = Iogonek;
lastChange = "2015-01-27 09:06:03 +0000";
layers = (
{
layerId = "E0AA17FE-947E-4089-955E-70E92921D86D";
name = Regular;
paths = (
{
closed = 1;
nodes = (
"92 399 LINE",
"41 399 LINE",
"41 0 LINE",
"54 0 LINE",
"42 -13 OFFCURVE",
"33 -28 OFFCURVE",
"33 -53 CURVE SMOOTH",
"33 -94 OFFCURVE",
"63 -106 OFFCURVE",
"88 -106 CURVE SMOOTH",
"100 -106 OFFCURVE",
"111 -103 OFFCURVE",
"123 -98 CURVE",
"123 -68 LINE",
"105 -68 LINE SMOOTH",
"86 -68 OFFCURVE",
"78 -53 OFFCURVE",
"78 -36 CURVE SMOOTH",
"78 -20 OFFCURVE",
"86 -9 OFFCURVE",
"92 0 CURVE"
);
}
);
width = 133;
},
{
layerId = "256C563F-4683-4C38-8505-F28FAA76841F";
name = Bold;
paths = (
{
closed = 1;
nodes = (
"103 399 LINE",
"29 399 LINE",
"29 0 LINE",
"55 0 LINE",
"41 -14 OFFCURVE",
"29 -31 OFFCURVE",
"29 -58 CURVE SMOOTH",
"29 -98 OFFCURVE",
"61 -111 OFFCURVE",
"87 -111 CURVE SMOOTH",
"100 -111 OFFCURVE",
"112 -108 OFFCURVE",
"125 -103 CURVE",
"125 -71 LINE",
"113 -71 LINE SMOOTH",
"93 -71 OFFCURVE",
"86 -56 OFFCURVE",
"86 -41 CURVE SMOOTH",
"86 -24 OFFCURVE",
"98 -8 OFFCURVE",
"103 0 CURVE"
);
}
);
width = 133;
}
);
unicode = 012E;
},
{
glyphname = Itilde;
lastChange = "2015-01-27 09:06:03 +0000";
layers = (
{
layerId = "E0AA17FE-947E-4089-955E-70E92921D86D";
name = Regular;
paths = (
{
closed = 1;
nodes = (
"92 0 LINE",
"92 399 LINE",
"41 399 LINE",
"41 0 LINE"
);
},
{
closed = 1;
nodes = (
"118 515 LINE",
"116 501 OFFCURVE",
"108 497 OFFCURVE",
"98 497 CURVE SMOOTH",
"75 497 OFFCURVE",
"56 515 OFFCURVE",
"31 515 CURVE SMOOTH",
"-4 515 OFFCURVE",
"-18 480 OFFCURVE",
"-18 454 CURVE",
"15 454 LINE",
"17 467 OFFCURVE",
"24 472 OFFCURVE",
"35 472 CURVE SMOOTH",
"58 472 OFFCURVE",
"77 454 OFFCURVE",
"102 454 CURVE SMOOTH",
"137 454 OFFCURVE",
"152 488 OFFCURVE",
"152 515 CURVE"
);
}
);
width = 133;
},
{
layerId = "256C563F-4683-4C38-8505-F28FAA76841F";
name = Bold;
paths = (
{
closed = 1;
nodes = (
"103 0 LINE",
"103 399 LINE",
"29 399 LINE",
"29 0 LINE"
);
},
{
closed = 1;
nodes = (
"126 515 LINE",
"123 498 OFFCURVE",
"116 493 OFFCURVE",
"103 493 CURVE SMOOTH",
"77 493 OFFCURVE",
"55 515 OFFCURVE",
"26 515 CURVE SMOOTH",
"-15 515 OFFCURVE",
"-32 475 OFFCURVE",
"-32 444 CURVE",
"7 444 LINE",
"10 459 OFFCURVE",
"18 465 OFFCURVE",
"30 465 CURVE SMOOTH",
"57 465 OFFCURVE",
"79 444 OFFCURVE",
"107 444 CURVE SMOOTH",
"148 444 OFFCURVE",
"165 482 OFFCURVE",
"165 515 CURVE"
);
}
);
width = 133;
}
);
unicode = 0128;
},
{
glyphname = J;
lastChange = "2015-01-27 09:06:03 +0000";
layers = (
{
anchors = (
{
name = top;
position = "{119, 399}";
}
);
layerId = "E0AA17FE-947E-4089-955E-70E92921D86D";
name = Regular;
paths = (
{
closed = 1;
nodes = (
"201 399 LINE",
"150 399 LINE",
"150 92 LINE SMOOTH",
"150 58 OFFCURVE",
"133 40 OFFCURVE",
"104 40 CURVE SMOOTH",
"75 40 OFFCURVE",
"59 58 OFFCURVE",
"59 92 CURVE SMOOTH",
"59 121 LINE",
"7 121 LINE",
"7 95 LINE SMOOTH",
"7 28 OFFCURVE",
"43 -7 OFFCURVE",
"104 -7 CURVE SMOOTH",
"165 -7 OFFCURVE",
"201 28 OFFCURVE",
"201 95 CURVE SMOOTH"
);
}
);
width = 239;
},
{
anchors = (
{
name = top;
position = "{133, 399}";
}
);
layerId = "256C563F-4683-4C38-8505-F28FAA76841F";
name = Bold;
paths = (
{
closed = 1;
nodes = (
"231 399 LINE",
"156 399 LINE",
"156 101 LINE SMOOTH",
"156 72 OFFCURVE",
"143 57 OFFCURVE",
"118 57 CURVE SMOOTH",
"93 57 OFFCURVE",
"79 72 OFFCURVE",
"79 101 CURVE SMOOTH",
"79 126 LINE",
"5 126 LINE",
"5 95 LINE SMOOTH",
"5 28 OFFCURVE",
"46 -7 OFFCURVE",
"118 -7 CURVE SMOOTH",
"190 -7 OFFCURVE",
"231 28 OFFCURVE",
"231 95 CURVE SMOOTH"
);
}
);
width = 266;
}
);
unicode = 004A;
},
{
glyphname = Jcircumflex;
lastChange = "2015-01-27 09:06:03 +0000";
layers = (
{
layerId = "E0AA17FE-947E-4089-955E-70E92921D86D";
name = Regular;
paths = (
{
closed = 1;
nodes = (
"201 399 LINE",
"150 399 LINE",
"150 92 LINE SMOOTH",
"150 58 OFFCURVE",
"133 40 OFFCURVE",
"104 40 CURVE SMOOTH",
"75 40 OFFCURVE",
"59 58 OFFCURVE",
"59 92 CURVE SMOOTH",
"59 121 LINE",
"7 121 LINE",
"7 95 LINE SMOOTH",
"7 28 OFFCURVE",
"43 -7 OFFCURVE",
"104 -7 CURVE SMOOTH",
"165 -7 OFFCURVE",
"201 28 OFFCURVE",
"201 95 CURVE SMOOTH"
);
},
{
closed = 1;
nodes = (
"198 514 LINE",
"153 514 LINE",
"103 435 LINE",
"150 435 LINE",
"177 481 LINE",
"202 435 LINE",
"248 435 LINE"
);
}
);
width = 239;
},
{
layerId = "256C563F-4683-4C38-8505-F28FAA76841F";
name = Bold;
paths = (
{
closed = 1;
nodes = (
"231 399 LINE",
"156 399 LINE",
"156 101 LINE SMOOTH",
"156 72 OFFCURVE",
"143 57 OFFCURVE",
"118 57 CURVE SMOOTH",
"93 57 OFFCURVE",
"79 72 OFFCURVE",
"79 101 CURVE SMOOTH",
"79 126 LINE",
"5 126 LINE",
"5 95 LINE SMOOTH",
"5 28 OFFCURVE",
"46 -7 OFFCURVE",
"118 -7 CURVE SMOOTH",
"190 -7 OFFCURVE",
"231 28 OFFCURVE",
"231 95 CURVE SMOOTH"
);
},
{
closed = 1;
nodes = (
"230 515 LINE",
"173 515 LINE",
"123 436 LINE",
"175 436 LINE",
"201 476 LINE",
"227 436 LINE",
"279 436 LINE"
);
}
);
width = 266;
}
);
unicode = 0134;
},
{
glyphname = K;
lastChange = "2015-01-27 09:06:03 +0000";
layers = (
{
anchors = (
{
name = bottom;
position = "{159, 0}";
},
{
name = top;
position = "{159, 399}";
}
);
layerId = "E0AA17FE-947E-4089-955E-70E92921D86D";
name = Regular;
paths = (
{
closed = 1;
nodes = (
"92 188 LINE",
"92 399 LINE",
"41 399 LINE",
"41 0 LINE",
"92 0 LINE",
"92 124 LINE",
"156 195 LINE",
"254 0 LINE",
"312 0 LINE",
"188 239 LINE",
"308 399 LINE",
"250 399 LINE"
);
}
);
width = 319;
},
{
anchors = (
{
name = bottom;
position = "{173, 0}";
},
{
name = top;
position = "{173, 399}";
}
);
layerId = "256C563F-4683-4C38-8505-F28FAA76841F";
name = Bold;
paths = (
{
closed = 1;
nodes = (
"110 195 LINE",
"110 399 LINE",
"35 399 LINE",
"35 0 LINE",
"110 0 LINE",
"110 102 LINE",
"173 179 LINE",
"259 0 LINE",
"343 0 LINE",
"221 237 LINE",
"339 399 LINE",
"256 399 LINE"
);
}
);
width = 345;
}
);
unicode = 004B;
},
{
glyphname = Kcommaaccent;
lastChange = "2015-01-27 09:06:03 +0000";
layers = (
{
layerId = "E0AA17FE-947E-4089-955E-70E92921D86D";
name = Regular;
paths = (
{
closed = 1;
nodes = (
"184 -84 LINE",
"184 -35 LINE",
"134 -35 LINE",
"134 -88 LINE",
"154 -88 LINE",
"142 -129 LINE",
"167 -129 LINE"
);
},
{
closed = 1;
nodes = (
"92 188 LINE",
"92 399 LINE",
"41 399 LINE",
"41 0 LINE",
"92 0 LINE",
"92 124 LINE",
"156 195 LINE",
"254 0 LINE",
"312 0 LINE",
"188 239 LINE",
"308 399 LINE",
"250 399 LINE"
);
}
);
width = 319;
},
{
layerId = "256C563F-4683-4C38-8505-F28FAA76841F";
name = Bold;
paths = (
{
closed = 1;
nodes = (
"208 -98 LINE",
"208 -32 LINE",
"136 -32 LINE",
"136 -103 LINE",
"165 -103 LINE",
"144 -153 LINE",
"182 -153 LINE"
);
},
{
closed = 1;
nodes = (
"110 195 LINE",
"110 399 LINE",
"35 399 LINE",
"35 0 LINE",
"110 0 LINE",
"110 102 LINE",
"173 179 LINE",
"259 0 LINE",
"343 0 LINE",
"221 237 LINE",
"339 399 LINE",
"256 399 LINE"
);
}
);
width = 345;
}
);
unicode = 0136;
},
{
glyphname = L;
lastChange = "2015-01-27 09:06:03 +0000";
layers = (
{
anchors = (
{
name = bottom;
position = "{133, 0}";
},
{
name = top;
position = "{133, 399}";
}
);
layerId = "E0AA17FE-947E-4089-955E-70E92921D86D";
name = Regular;
paths = (
{
closed = 1;
nodes = (
"92 399 LINE",
"41 399 LINE",
"41 0 LINE",
"255 0 LINE",
"255 47 LINE",
"92 47 LINE"
);
}
);
width = 266;
},
{
anchors = (
{
name = bottom;
position = "{146, 0}";
},
{
name = top;
position = "{146, 399}";
}
);
layerId = "256C563F-4683-4C38-8505-F28FAA76841F";
name = Bold;
paths = (
{
closed = 1;
nodes = (
"109 399 LINE",
"35 399 LINE",
"35 0 LINE",
"279 0 LINE",
"279 70 LINE",
"109 70 LINE"
);
}
);
width = 292;
}
);
unicode = 004C;
},
{
glyphname = Lacute;
lastChange = "2015-01-27 09:06:03 +0000";
layers = (
{
layerId = "E0AA17FE-947E-4089-955E-70E92921D86D";
name = Regular;
paths = (
{
closed = 1;
nodes = (
"92 399 LINE",
"41 399 LINE",
"41 0 LINE",
"255 0 LINE",
"255 47 LINE",
"92 47 LINE"
);
},
{
closed = 1;
nodes = (
"132 515 LINE",
"80 515 LINE",
"30 438 LINE",
"71 438 LINE",
"133 513 LINE"
);
}
);
width = 266;
},
{
layerId = "256C563F-4683-4C38-8505-F28FAA76841F";
name = Bold;
paths = (
{
closed = 1;
nodes = (
"109 399 LINE",
"35 399 LINE",
"35 0 LINE",
"279 0 LINE",
"279 70 LINE",
"109 70 LINE"
);
},
{
closed = 1;
nodes = (
"154 515 LINE",
"84 515 LINE",
"34 438 LINE",
"92 438 LINE",
"154 513 LINE"
);
}
);
width = 292;
}
);
unicode = 0139;
},
{
glyphname = Lcaron;
lastChange = "2015-01-27 09:06:03 +0000";
layers = (
{
layerId = "E0AA17FE-947E-4089-955E-70E92921D86D";
name = Regular;
paths = (
{
closed = 1;
nodes = (
"92 399 LINE",
"41 399 LINE",
"41 0 LINE",
"255 0 LINE",
"255 47 LINE",
"92 47 LINE"
);
},
{
closed = 1;
nodes = (
"244 399 LINE",
"186 399 LINE",
"186 337 LINE",
"209 337 LINE",
"186 264 LINE",
"216 264 LINE",
"244 342 LINE"
);
}
);
width = 266;
},
{
layerId = "256C563F-4683-4C38-8505-F28FAA76841F";
name = Bold;
paths = (
{
closed = 1;
nodes = (
"109 399 LINE",
"35 399 LINE",
"35 0 LINE",
"279 0 LINE",
"279 70 LINE",
"109 70 LINE"
);
},
{
closed = 1;
nodes = (
"279 399 LINE",
"198 399 LINE",
"198 320 LINE",
"230 320 LINE",
"198 229 LINE",
"240 229 LINE",
"279 327 LINE"
);
}
);
width = 292;
}
);
unicode = 013D;
},
{
glyphname = Lcommaaccent;
lastChange = "2015-01-27 09:06:03 +0000";
layers = (
{
layerId = "E0AA17FE-947E-4089-955E-70E92921D86D";
name = Regular;
paths = (
{
closed = 1;
nodes = (
"92 399 LINE",
"41 399 LINE",
"41 0 LINE",
"255 0 LINE",
"255 47 LINE",
"92 47 LINE"
);
},
{
closed = 1;
nodes = (
"158 -35 LINE",
"108 -35 LINE",
"108 -88 LINE",
"128 -88 LINE",
"115 -129 LINE",
"141 -129 LINE",
"158 -84 LINE"
);
}
);
width = 266;
},
{
layerId = "256C563F-4683-4C38-8505-F28FAA76841F";
name = Bold;
paths = (
{
closed = 1;
nodes = (
"109 399 LINE",
"35 399 LINE",
"35 0 LINE",
"279 0 LINE",
"279 70 LINE",
"109 70 LINE"
);
},
{
closed = 1;
nodes = (
"182 -32 LINE",
"110 -32 LINE",
"110 -103 LINE",
"138 -103 LINE",
"118 -153 LINE",
"156 -153 LINE",
"182 -98 LINE"
);
}
);
width = 292;
}
);
unicode = 013B;
},
{
glyphname = Ldot;
lastChange = "2015-01-27 09:06:03 +0000";
layers = (
{
layerId = "E0AA17FE-947E-4089-955E-70E92921D86D";
name = Regular;
paths = (
{
closed = 1;
nodes = (
"92 399 LINE",
"41 399 LINE",
"41 0 LINE",
"255 0 LINE",
"255 47 LINE",
"92 47 LINE"
);
},
{
closed = 1;
nodes = (
"231 306 LINE",
"172 306 LINE",
"172 241 LINE",
"231 241 LINE"
);
}
);
width = 266;
},
{
layerId = "256C563F-4683-4C38-8505-F28FAA76841F";
name = Bold;
paths = (
{
closed = 1;
nodes = (
"109 399 LINE",
"35 399 LINE",
"35 0 LINE",
"279 0 LINE",
"279 70 LINE",
"109 70 LINE"
);
},
{
closed = 1;
nodes = (
"244 305 LINE",
"183 305 LINE",
"183 239 LINE",
"244 239 LINE"
);
}
);
width = 292;
}
);
unicode = 013F;
},
{
glyphname = Lslash;
lastChange = "2015-01-27 09:06:03 +0000";
layers = (
{
layerId = "E0AA17FE-947E-4089-955E-70E92921D86D";
name = Regular;
paths = (
{
closed = 1;
nodes = (
"92 399 LINE",
"41 399 LINE",
"41 185 LINE",
"0 148 LINE",
"0 107 LINE",
"41 143 LINE",
"41 0 LINE",
"255 0 LINE",
"255 47 LINE",
"92 47 LINE",
"92 188 LINE",
"172 258 LINE",
"172 301 LINE",
"92 230 LINE"
);
}
);
width = 266;
},
{
layerId = "256C563F-4683-4C38-8505-F28FAA76841F";
name = Bold;
paths = (
{
closed = 1;
nodes = (
"109 399 LINE",
"35 399 LINE",
"35 193 LINE",
"0 163 LINE",
"0 107 LINE",
"35 138 LINE",
"35 0 LINE",
"279 0 LINE",
"279 70 LINE",
"109 70 LINE",
"109 204 LINE",
"177 264 LINE",
"177 320 LINE",
"109 260 LINE"
);
}
);
width = 292;
}
);
unicode = 0141;
},
{
glyphname = M;
lastChange = "2015-01-27 09:06:03 +0000";
layers = (
{
layerId = "E0AA17FE-947E-4089-955E-70E92921D86D";
name = Regular;
paths = (
{
closed = 1;
nodes = (
"362 399 LINE",
"284 399 LINE",
"214 138 LINE SMOOTH",
"206 109 OFFCURVE",
"200 47 OFFCURVE",
"200 47 CURVE SMOOTH",
"198 47 LINE SMOOTH",
"198 47 OFFCURVE",
"192 108 OFFCURVE",
"185 138 CURVE SMOOTH",
"114 399 LINE",
"36 399 LINE",
"36 0 LINE",
"82 0 LINE",
"82 290 LINE SMOOTH",
"82 302 OFFCURVE",
"78 352 OFFCURVE",
"78 352 CURVE",
"81 352 LINE",
"85 331 OFFCURVE",
"88 310 OFFCURVE",
"93 290 CURVE SMOOTH",
"173 0 LINE",
"219 0 LINE",
"299 290 LINE SMOOTH",
"304 310 OFFCURVE",
"308 331 OFFCURVE",
"312 352 CURVE",
"314 352 LINE",
"314 352 OFFCURVE",
"310 304 OFFCURVE",
"310 290 CURVE SMOOTH",
"310 0 LINE",
"362 0 LINE"
);
}
);
width = 398;
},
{
layerId = "256C563F-4683-4C38-8505-F28FAA76841F";
name = Bold;
paths = (
{
closed = 1;
nodes = (
"367 399 LINE",
"266 399 LINE",
"217 179 LINE SMOOTH",
"212 156 OFFCURVE",
"204 89 OFFCURVE",
"204 89 CURVE SMOOTH",
"201 89 LINE SMOOTH",
"201 89 OFFCURVE",
"191 153 OFFCURVE",
"185 179 CURVE SMOOTH",
"136 399 LINE",
"31 399 LINE",
"31 0 LINE",
"94 0 LINE",
"94 254 LINE SMOOTH",
"94 270 OFFCURVE",
"92 319 OFFCURVE",
"92 319 CURVE",
"94 319 LINE",
"98 298 OFFCURVE",
"103 277 OFFCURVE",
"108 256 CURVE SMOOTH",
"164 0 LINE",
"229 0 LINE",
"289 273 LINE SMOOTH",
"293 289 OFFCURVE",
"295 304 OFFCURVE",
"299 319 CURVE",
"301 319 LINE",
"301 319 OFFCURVE",
"299 273 OFFCURVE",
"299 254 CURVE SMOOTH",
"299 0 LINE",
"367 0 LINE"
);
}
);
width = 398;
}
);
unicode = 004D;
},
{
glyphname = N;
lastChange = "2015-01-27 09:06:03 +0000";
layers = (
{
anchors = (
{
name = bottom;
position = "{173, 0}";
},
{
name = top;
position = "{173, 399}";
}
);
layerId = "E0AA17FE-947E-4089-955E-70E92921D86D";
name = Regular;
paths = (
{
closed = 1;
nodes = (
"304 399 LINE",
"258 399 LINE",
"258 148 LINE SMOOTH",
"258 136 OFFCURVE",
"260 96 OFFCURVE",
"260 96 CURVE",
"258 95 LINE",
"258 95 OFFCURVE",
"243 133 OFFCURVE",
"233 148 CURVE SMOOTH",
"85 399 LINE",
"41 399 LINE",
"41 0 LINE",
"87 0 LINE",
"87 254 LINE SMOOTH",
"87 271 OFFCURVE",
"84 308 OFFCURVE",
"84 308 CURVE",
"86 308 LINE",
"86 308 OFFCURVE",
"102 272 OFFCURVE",
"112 254 CURVE SMOOTH",
"262 0 LINE",
"304 0 LINE"
);
}
);
width = 345;
},
{
anchors = (
{
name = bottom;
position = "{173, 0}";
},
{
name = top;
position = "{173, 399}";
}
);
layerId = "256C563F-4683-4C38-8505-F28FAA76841F";
name = Bold;
paths = (
{
closed = 1;
nodes = (
"310 399 LINE",
"244 399 LINE",
"244 177 LINE SMOOTH",
"244 171 OFFCURVE",
"244 144 OFFCURVE",
"244 144 CURVE",
"243 142 LINE",
"243 142 OFFCURVE",
"231 169 OFFCURVE",
"224 179 CURVE SMOOTH",
"101 399 LINE",
"35 399 LINE",
"35 0 LINE",
"101 0 LINE",
"101 223 LINE SMOOTH",
"101 233 OFFCURVE",
"100 256 OFFCURVE",
"100 256 CURVE",
"102 258 LINE",
"102 258 OFFCURVE",
"115 229 OFFCURVE",
"120 220 CURVE SMOOTH",
"244 0 LINE",
"310 0 LINE"
);
}
);
width = 345;
}
);
unicode = 004E;
},
{
glyphname = Nacute;
lastChange = "2015-01-27 09:06:03 +0000";
layers = (
{
layerId = "E0AA17FE-947E-4089-955E-70E92921D86D";
name = Regular;
paths = (
{
closed = 1;
nodes = (
"304 399 LINE",
"258 399 LINE",
"258 148 LINE SMOOTH",
"258 136 OFFCURVE",
"260 96 OFFCURVE",
"260 96 CURVE",
"258 95 LINE",
"258 95 OFFCURVE",
"243 133 OFFCURVE",
"233 148 CURVE SMOOTH",
"85 399 LINE",
"41 399 LINE",
"41 0 LINE",
"87 0 LINE",
"87 254 LINE SMOOTH",
"87 271 OFFCURVE",
"84 308 OFFCURVE",
"84 308 CURVE",
"86 308 LINE",
"86 308 OFFCURVE",
"102 272 OFFCURVE",
"112 254 CURVE SMOOTH",
"262 0 LINE",
"304 0 LINE"
);
},
{
closed = 1;
nodes = (
"240 515 LINE",
"188 515 LINE",
"138 438 LINE",
"179 438 LINE",
"241 513 LINE"
);
}
);
width = 345;
},
{
layerId = "256C563F-4683-4C38-8505-F28FAA76841F";
name = Bold;
paths = (
{
closed = 1;
nodes = (
"310 399 LINE",
"244 399 LINE",
"244 177 LINE SMOOTH",
"244 171 OFFCURVE",
"244 144 OFFCURVE",
"244 144 CURVE",
"243 142 LINE",
"243 142 OFFCURVE",
"231 169 OFFCURVE",
"224 179 CURVE SMOOTH",
"101 399 LINE",
"35 399 LINE",
"35 0 LINE",
"101 0 LINE",
"101 223 LINE SMOOTH",
"101 233 OFFCURVE",
"100 256 OFFCURVE",
"100 256 CURVE",
"102 258 LINE",
"102 258 OFFCURVE",
"115 229 OFFCURVE",
"120 220 CURVE SMOOTH",
"244 0 LINE",
"310 0 LINE"
);
},
{
closed = 1;
nodes = (
"252 515 LINE",
"183 515 LINE",
"132 438 LINE",
"190 438 LINE",
"253 513 LINE"
);
}
);
width = 345;
}
);
unicode = 0143;
},
{
glyphname = Ncaron;
lastChange = "2015-01-27 09:06:03 +0000";
layers = (
{
layerId = "E0AA17FE-947E-4089-955E-70E92921D86D";
name = Regular;
paths = (
{
closed = 1;
nodes = (
"304 399 LINE",
"258 399 LINE",
"258 148 LINE SMOOTH",
"258 136 OFFCURVE",
"260 96 OFFCURVE",
"260 96 CURVE",
"258 95 LINE",
"258 95 OFFCURVE",
"243 133 OFFCURVE",
"233 148 CURVE SMOOTH",
"85 399 LINE",
"41 399 LINE",
"41 0 LINE",
"87 0 LINE",
"87 254 LINE SMOOTH",
"87 271 OFFCURVE",
"84 308 OFFCURVE",
"84 308 CURVE",
"86 308 LINE",
"86 308 OFFCURVE",
"102 272 OFFCURVE",
"112 254 CURVE SMOOTH",
"262 0 LINE",
"304 0 LINE"
);
},
{
closed = 1;
nodes = (
"245 515 LINE",
"198 515 LINE",
"173 469 LINE",
"146 515 LINE",
"100 515 LINE",
"149 436 LINE",
"194 436 LINE"
);
}
);
width = 345;
},
{
layerId = "256C563F-4683-4C38-8505-F28FAA76841F";
name = Bold;
paths = (
{
closed = 1;
nodes = (
"310 399 LINE",
"244 399 LINE",
"244 177 LINE SMOOTH",
"244 171 OFFCURVE",
"244 144 OFFCURVE",
"244 144 CURVE",
"243 142 LINE",
"243 142 OFFCURVE",
"231 169 OFFCURVE",
"224 179 CURVE SMOOTH",
"101 399 LINE",
"35 399 LINE",
"35 0 LINE",
"101 0 LINE",
"101 223 LINE SMOOTH",
"101 233 OFFCURVE",
"100 256 OFFCURVE",
"100 256 CURVE",
"102 258 LINE",
"102 258 OFFCURVE",
"115 229 OFFCURVE",
"120 220 CURVE SMOOTH",
"244 0 LINE",
"310 0 LINE"
);
},
{
closed = 1;
nodes = (
"251 515 LINE",
"198 515 LINE",
"173 474 LINE",
"146 515 LINE",
"94 515 LINE",
"144 436 LINE",
"202 436 LINE"
);
}
);
width = 345;
}
);
unicode = 0147;
},
{
glyphname = Ncommaaccent;
lastChange = "2015-01-27 09:06:03 +0000";
layers = (
{
layerId = "E0AA17FE-947E-4089-955E-70E92921D86D";
name = Regular;
paths = (
{
closed = 1;
nodes = (
"304 399 LINE",
"258 399 LINE",
"258 148 LINE SMOOTH",
"258 136 OFFCURVE",
"260 96 OFFCURVE",
"260 96 CURVE",
"258 95 LINE",
"258 95 OFFCURVE",
"243 133 OFFCURVE",
"233 148 CURVE SMOOTH",
"85 399 LINE",
"41 399 LINE",
"41 0 LINE",
"87 0 LINE",
"87 254 LINE SMOOTH",
"87 271 OFFCURVE",
"84 308 OFFCURVE",
"84 308 CURVE",
"86 308 LINE",
"86 308 OFFCURVE",
"102 272 OFFCURVE",
"112 254 CURVE SMOOTH",
"262 0 LINE",
"304 0 LINE"
);
},
{
closed = 1;
nodes = (
"198 -35 LINE",
"148 -35 LINE",
"148 -88 LINE",
"168 -88 LINE",
"154 -129 LINE",
"181 -129 LINE",
"198 -84 LINE"
);
}
);
width = 345;
},
{
layerId = "256C563F-4683-4C38-8505-F28FAA76841F";
name = Bold;
paths = (
{
closed = 1;
nodes = (
"310 399 LINE",
"244 399 LINE",
"244 177 LINE SMOOTH",
"244 171 OFFCURVE",
"244 144 OFFCURVE",
"244 144 CURVE",
"243 142 LINE",
"243 142 OFFCURVE",
"231 169 OFFCURVE",
"224 179 CURVE SMOOTH",
"101 399 LINE",
"35 399 LINE",
"35 0 LINE",
"101 0 LINE",
"101 223 LINE SMOOTH",
"101 233 OFFCURVE",
"100 256 OFFCURVE",
"100 256 CURVE",
"102 258 LINE",
"102 258 OFFCURVE",
"115 229 OFFCURVE",
"120 220 CURVE SMOOTH",
"244 0 LINE",
"310 0 LINE"
);
},
{
closed = 1;
nodes = (
"208 -32 LINE",
"136 -32 LINE",
"136 -103 LINE",
"165 -103 LINE",
"144 -153 LINE",
"182 -153 LINE",
"208 -98 LINE"
);
}
);
width = 345;
}
);
unicode = 0145;
},
{
glyphname = Eng;
lastChange = "2015-01-27 09:06:03 +0000";
layers = (
{
layerId = "E0AA17FE-947E-4089-955E-70E92921D86D";
name = Regular;
paths = (
{
closed = 1;
nodes = (
"304 399 LINE",
"256 399 LINE",
"258 148 LINE SMOOTH",
"258 136 OFFCURVE",
"260 96 OFFCURVE",
"260 96 CURVE",
"258 95 LINE",
"258 95 OFFCURVE",
"243 133 OFFCURVE",
"233 148 CURVE SMOOTH",
"85 399 LINE",
"41 399 LINE",
"41 0 LINE",
"87 0 LINE",
"87 254 LINE SMOOTH",
"87 271 OFFCURVE",
"84 308 OFFCURVE",
"84 308 CURVE",
"86 308 LINE",
"86 308 OFFCURVE",
"102 272 OFFCURVE",
"112 254 CURVE SMOOTH",
"256 9 LINE",
"256 -38 LINE SMOOTH",
"256 -56 OFFCURVE",
"247 -66 OFFCURVE",
"229 -66 CURVE SMOOTH",
"204 -66 LINE",
"204 -99 LINE",
"214 -103 OFFCURVE",
"229 -106 OFFCURVE",
"244 -106 CURVE SMOOTH",
"290 -106 OFFCURVE",
"304 -71 OFFCURVE",
"304 -36 CURVE SMOOTH"
);
}
);
width = 345;
},
{
layerId = "256C563F-4683-4C38-8505-F28FAA76841F";
name = Bold;
paths = (
{
closed = 1;
nodes = (
"310 399 LINE",
"244 399 LINE",
"244 177 LINE SMOOTH",
"244 171 OFFCURVE",
"244 144 OFFCURVE",
"244 144 CURVE",
"243 142 LINE",
"243 142 OFFCURVE",
"231 169 OFFCURVE",
"224 179 CURVE SMOOTH",
"101 399 LINE",
"35 399 LINE",
"35 0 LINE",
"101 0 LINE",
"101 223 LINE SMOOTH",
"101 233 OFFCURVE",
"100 256 OFFCURVE",
"100 256 CURVE",
"102 258 LINE",
"102 258 OFFCURVE",
"115 229 OFFCURVE",
"120 220 CURVE SMOOTH",
"242 0 LINE",
"242 -19 LINE SMOOTH",
"242 -38 OFFCURVE",
"233 -47 OFFCURVE",
"214 -47 CURVE SMOOTH",
"188 -47 LINE",
"188 -99 LINE",
"200 -103 OFFCURVE",
"221 -106 OFFCURVE",
"239 -106 CURVE SMOOTH",
"295 -106 OFFCURVE",
"310 -65 OFFCURVE",
"310 -24 CURVE SMOOTH"
);
}
);
width = 345;
}
);
unicode = 014A;
},
{
glyphname = Ntilde;
lastChange = "2015-01-27 09:06:03 +0000";
layers = (
{
layerId = "E0AA17FE-947E-4089-955E-70E92921D86D";
name = Regular;
paths = (
{
closed = 1;
nodes = (
"304 399 LINE",
"258 399 LINE",
"258 148 LINE SMOOTH",
"258 136 OFFCURVE",
"260 96 OFFCURVE",
"260 96 CURVE",
"258 95 LINE",
"258 95 OFFCURVE",
"243 133 OFFCURVE",
"233 148 CURVE SMOOTH",
"85 399 LINE",
"41 399 LINE",
"41 0 LINE",
"87 0 LINE",
"87 254 LINE SMOOTH",
"87 271 OFFCURVE",
"84 308 OFFCURVE",
"84 308 CURVE",
"86 308 LINE",
"86 308 OFFCURVE",
"102 272 OFFCURVE",
"112 254 CURVE SMOOTH",
"262 0 LINE",
"304 0 LINE"
);
},
{
closed = 1;
nodes = (
"223 515 LINE",
"222 501 OFFCURVE",
"214 497 OFFCURVE",
"204 497 CURVE SMOOTH",
"181 497 OFFCURVE",
"162 515 OFFCURVE",
"137 515 CURVE SMOOTH",
"102 515 OFFCURVE",
"88 480 OFFCURVE",
"88 454 CURVE",
"121 454 LINE",
"123 467 OFFCURVE",
"130 472 OFFCURVE",
"141 472 CURVE SMOOTH",
"163 472 OFFCURVE",
"183 454 OFFCURVE",
"208 454 CURVE SMOOTH",
"243 454 OFFCURVE",
"258 488 OFFCURVE",
"258 515 CURVE"
);
}
);
width = 345;
},
{
layerId = "256C563F-4683-4C38-8505-F28FAA76841F";
name = Bold;
paths = (
{
closed = 1;
nodes = (
"310 399 LINE",
"244 399 LINE",
"244 177 LINE SMOOTH",
"244 171 OFFCURVE",
"244 144 OFFCURVE",
"244 144 CURVE",
"243 142 LINE",
"243 142 OFFCURVE",
"231 169 OFFCURVE",
"224 179 CURVE SMOOTH",
"101 399 LINE",
"35 399 LINE",
"35 0 LINE",
"101 0 LINE",
"101 223 LINE SMOOTH",
"101 233 OFFCURVE",
"100 256 OFFCURVE",
"100 256 CURVE",
"102 258 LINE",
"102 258 OFFCURVE",
"115 229 OFFCURVE",
"120 220 CURVE SMOOTH",
"244 0 LINE",
"310 0 LINE"
);
},
{
closed = 1;
nodes = (
"232 515 LINE",
"229 498 OFFCURVE",
"221 493 OFFCURVE",
"209 493 CURVE SMOOTH",
"183 493 OFFCURVE",
"160 515 OFFCURVE",
"132 515 CURVE SMOOTH",
"91 515 OFFCURVE",
"74 475 OFFCURVE",
"74 444 CURVE",
"113 444 LINE",
"115 459 OFFCURVE",
"123 465 OFFCURVE",
"136 465 CURVE SMOOTH",
"162 465 OFFCURVE",
"185 444 OFFCURVE",
"213 444 CURVE SMOOTH",
"254 444 OFFCURVE",
"270 482 OFFCURVE",
"270 515 CURVE"
);
}
);
width = 345;
}
);
unicode = 00D1;
},
{
glyphname = O;
lastChange = "2015-01-27 09:06:03 +0000";
layers = (
{
anchors = (
{
name = top;
position = "{186, 399}";
}
);
layerId = "E0AA17FE-947E-4089-955E-70E92921D86D";
name = Regular;
paths = (
{
closed = 1;
nodes = (
"88 407 OFFCURVE",
"28 339 OFFCURVE",
"28 200 CURVE SMOOTH",
"28 61 OFFCURVE",
"88 -7 OFFCURVE",
"186 -7 CURVE SMOOTH",
"284 -7 OFFCURVE",
"343 61 OFFCURVE",
"343 200 CURVE SMOOTH",
"343 339 OFFCURVE",
"284 407 OFFCURVE",
"186 407 CURVE SMOOTH"
);
},
{
closed = 1;
nodes = (
"250 359 OFFCURVE",
"289 312 OFFCURVE",
"289 214 CURVE SMOOTH",
"289 185 LINE SMOOTH",
"289 88 OFFCURVE",
"250 40 OFFCURVE",
"186 40 CURVE SMOOTH",
"122 40 OFFCURVE",
"82 88 OFFCURVE",
"82 185 CURVE SMOOTH",
"82 214 LINE SMOOTH",
"82 312 OFFCURVE",
"122 359 OFFCURVE",
"186 359 CURVE SMOOTH"
);
}
);
width = 372;
},
{
anchors = (
{
name = top;
position = "{186, 399}";
}
);
layerId = "256C563F-4683-4C38-8505-F28FAA76841F";
name = Bold;
paths = (
{
closed = 1;
nodes = (
"83 407 OFFCURVE",
"20 341 OFFCURVE",
"20 200 CURVE SMOOTH",
"20 59 OFFCURVE",
"83 -7 OFFCURVE",
"186 -7 CURVE SMOOTH",
"289 -7 OFFCURVE",
"352 59 OFFCURVE",
"352 200 CURVE SMOOTH",
"352 341 OFFCURVE",
"289 407 OFFCURVE",
"186 407 CURVE SMOOTH"
);
},
{
closed = 1;
nodes = (
"245 343 OFFCURVE",
"275 294 OFFCURVE",
"275 214 CURVE SMOOTH",
"275 185 LINE SMOOTH",
"275 105 OFFCURVE",
"245 57 OFFCURVE",
"186 57 CURVE SMOOTH",
"127 57 OFFCURVE",
"97 105 OFFCURVE",
"97 185 CURVE SMOOTH",
"97 214 LINE SMOOTH",
"97 294 OFFCURVE",
"127 343 OFFCURVE",
"186 343 CURVE SMOOTH"
);
}
);
width = 372;
}
);
unicode = 004F;
},
{
glyphname = Oacute;
lastChange = "2015-01-27 09:06:03 +0000";
layers = (
{
layerId = "E0AA17FE-947E-4089-955E-70E92921D86D";
name = Regular;
paths = (
{
closed = 1;
nodes = (
"88 407 OFFCURVE",
"28 339 OFFCURVE",
"28 200 CURVE SMOOTH",
"28 61 OFFCURVE",
"88 -7 OFFCURVE",
"186 -7 CURVE SMOOTH",
"284 -7 OFFCURVE",
"343 61 OFFCURVE",
"343 200 CURVE SMOOTH",
"343 339 OFFCURVE",
"284 407 OFFCURVE",
"186 407 CURVE SMOOTH"
);
},
{
closed = 1;
nodes = (
"250 359 OFFCURVE",
"289 312 OFFCURVE",
"289 214 CURVE SMOOTH",
"289 185 LINE SMOOTH",
"289 88 OFFCURVE",
"250 40 OFFCURVE",
"186 40 CURVE SMOOTH",
"122 40 OFFCURVE",
"82 88 OFFCURVE",
"82 185 CURVE SMOOTH",
"82 214 LINE SMOOTH",
"82 312 OFFCURVE",
"122 359 OFFCURVE",
"186 359 CURVE SMOOTH"
);
},
{
closed = 1;
nodes = (
"254 515 LINE",
"202 515 LINE",
"152 438 LINE",
"192 438 LINE",
"254 513 LINE"
);
}
);
width = 372;
},
{
layerId = "256C563F-4683-4C38-8505-F28FAA76841F";
name = Bold;
paths = (
{
closed = 1;
nodes = (
"83 407 OFFCURVE",
"20 341 OFFCURVE",
"20 200 CURVE SMOOTH",
"20 59 OFFCURVE",
"83 -7 OFFCURVE",
"186 -7 CURVE SMOOTH",
"289 -7 OFFCURVE",
"352 59 OFFCURVE",
"352 200 CURVE SMOOTH",
"352 341 OFFCURVE",
"289 407 OFFCURVE",
"186 407 CURVE SMOOTH"
);
},
{
closed = 1;
nodes = (
"245 343 OFFCURVE",
"275 294 OFFCURVE",
"275 214 CURVE SMOOTH",
"275 185 LINE SMOOTH",
"275 105 OFFCURVE",
"245 57 OFFCURVE",
"186 57 CURVE SMOOTH",
"127 57 OFFCURVE",
"97 105 OFFCURVE",
"97 185 CURVE SMOOTH",
"97 214 LINE SMOOTH",
"97 294 OFFCURVE",
"127 343 OFFCURVE",
"186 343 CURVE SMOOTH"
);
},
{
closed = 1;
nodes = (
"266 515 LINE",
"196 515 LINE",
"146 438 LINE",
"204 438 LINE",
"267 513 LINE"
);
}
);
width = 372;
}
);
unicode = 00D3;
},
{
glyphname = Obreve;
lastChange = "2015-01-27 09:06:03 +0000";
layers = (
{
layerId = "E0AA17FE-947E-4089-955E-70E92921D86D";
name = Regular;
paths = (
{
closed = 1;
nodes = (
"88 407 OFFCURVE",
"28 339 OFFCURVE",
"28 200 CURVE SMOOTH",
"28 61 OFFCURVE",
"88 -7 OFFCURVE",
"186 -7 CURVE SMOOTH",
"284 -7 OFFCURVE",
"343 61 OFFCURVE",
"343 200 CURVE SMOOTH",
"343 339 OFFCURVE",
"284 407 OFFCURVE",
"186 407 CURVE SMOOTH"
);
},
{
closed = 1;
nodes = (
"250 359 OFFCURVE",
"289 312 OFFCURVE",
"289 214 CURVE SMOOTH",
"289 185 LINE SMOOTH",
"289 88 OFFCURVE",
"250 40 OFFCURVE",
"186 40 CURVE SMOOTH",
"122 40 OFFCURVE",
"82 88 OFFCURVE",
"82 185 CURVE SMOOTH",
"82 214 LINE SMOOTH",
"82 312 OFFCURVE",
"122 359 OFFCURVE",
"186 359 CURVE SMOOTH"
);
},
{
closed = 1;
nodes = (
"221 515 LINE",
"219 506 OFFCURVE",
"206 495 OFFCURVE",
"186 495 CURVE SMOOTH",
"167 495 OFFCURVE",
"153 506 OFFCURVE",
"152 515 CURVE",
"114 515 LINE",
"114 488 OFFCURVE",
"142 458 OFFCURVE",
"186 458 CURVE SMOOTH",
"231 458 OFFCURVE",
"258 488 OFFCURVE",
"258 515 CURVE"
);
}
);
width = 372;
},
{
layerId = "256C563F-4683-4C38-8505-F28FAA76841F";
name = Bold;
paths = (
{
closed = 1;
nodes = (
"83 407 OFFCURVE",
"20 341 OFFCURVE",
"20 200 CURVE SMOOTH",
"20 59 OFFCURVE",
"83 -7 OFFCURVE",
"186 -7 CURVE SMOOTH",
"289 -7 OFFCURVE",
"352 59 OFFCURVE",
"352 200 CURVE SMOOTH",
"352 341 OFFCURVE",
"289 407 OFFCURVE",
"186 407 CURVE SMOOTH"
);
},
{
closed = 1;
nodes = (
"245 343 OFFCURVE",
"275 294 OFFCURVE",
"275 214 CURVE SMOOTH",
"275 185 LINE SMOOTH",
"275 105 OFFCURVE",
"245 57 OFFCURVE",
"186 57 CURVE SMOOTH",
"127 57 OFFCURVE",
"97 105 OFFCURVE",
"97 185 CURVE SMOOTH",
"97 214 LINE SMOOTH",
"97 294 OFFCURVE",
"127 343 OFFCURVE",
"186 343 CURVE SMOOTH"
);
},
{
closed = 1;
nodes = (
"221 515 LINE",
"219 506 OFFCURVE",
"206 495 OFFCURVE",
"186 495 CURVE SMOOTH",
"167 495 OFFCURVE",
"153 506 OFFCURVE",
"152 515 CURVE",
"108 515 LINE",
"108 485 OFFCURVE",
"138 452 OFFCURVE",
"186 452 CURVE SMOOTH",
"234 452 OFFCURVE",
"264 485 OFFCURVE",
"264 515 CURVE"
);
}
);
width = 372;
}
);
unicode = 014E;
},
{
glyphname = Ocircumflex;
lastChange = "2015-01-27 09:06:03 +0000";
layers = (
{
layerId = "E0AA17FE-947E-4089-955E-70E92921D86D";
name = Regular;
paths = (
{
closed = 1;
nodes = (
"88 407 OFFCURVE",
"28 339 OFFCURVE",
"28 200 CURVE SMOOTH",
"28 61 OFFCURVE",
"88 -7 OFFCURVE",
"186 -7 CURVE SMOOTH",
"284 -7 OFFCURVE",
"343 61 OFFCURVE",
"343 200 CURVE SMOOTH",
"343 339 OFFCURVE",
"284 407 OFFCURVE",
"186 407 CURVE SMOOTH"
);
},
{
closed = 1;
nodes = (
"250 359 OFFCURVE",
"289 312 OFFCURVE",
"289 214 CURVE SMOOTH",
"289 185 LINE SMOOTH",
"289 88 OFFCURVE",
"250 40 OFFCURVE",
"186 40 CURVE SMOOTH",
"122 40 OFFCURVE",
"82 88 OFFCURVE",
"82 185 CURVE SMOOTH",
"82 214 LINE SMOOTH",
"82 312 OFFCURVE",
"122 359 OFFCURVE",
"186 359 CURVE SMOOTH"
);
},
{
closed = 1;
nodes = (
"258 435 LINE",
"209 514 LINE",
"163 514 LINE",
"113 435 LINE",
"160 435 LINE",
"186 481 LINE",
"212 435 LINE"
);
}
);
width = 372;
},
{
layerId = "256C563F-4683-4C38-8505-F28FAA76841F";
name = Bold;
paths = (
{
closed = 1;
nodes = (
"83 407 OFFCURVE",
"20 341 OFFCURVE",
"20 200 CURVE SMOOTH",
"20 59 OFFCURVE",
"83 -7 OFFCURVE",
"186 -7 CURVE SMOOTH",
"289 -7 OFFCURVE",
"352 59 OFFCURVE",
"352 200 CURVE SMOOTH",
"352 341 OFFCURVE",
"289 407 OFFCURVE",
"186 407 CURVE SMOOTH"
);
},
{
closed = 1;
nodes = (
"245 343 OFFCURVE",
"275 294 OFFCURVE",
"275 214 CURVE SMOOTH",
"275 185 LINE SMOOTH",
"275 105 OFFCURVE",
"245 57 OFFCURVE",
"186 57 CURVE SMOOTH",
"127 57 OFFCURVE",
"97 105 OFFCURVE",
"97 185 CURVE SMOOTH",
"97 214 LINE SMOOTH",
"97 294 OFFCURVE",
"127 343 OFFCURVE",
"186 343 CURVE SMOOTH"
);
},
{
closed = 1;
nodes = (
"264 436 LINE",
"215 515 LINE",
"158 515 LINE",
"108 436 LINE",
"160 436 LINE",
"186 476 LINE",
"212 436 LINE"
);
}
);
width = 372;
}
);
unicode = 00D4;
},
{
glyphname = Odieresis;
lastChange = "2015-01-27 09:06:03 +0000";
layers = (
{
layerId = "E0AA17FE-947E-4089-955E-70E92921D86D";
name = Regular;
paths = (
{
closed = 1;
nodes = (
"88 407 OFFCURVE",
"28 339 OFFCURVE",
"28 200 CURVE SMOOTH",
"28 61 OFFCURVE",
"88 -7 OFFCURVE",
"186 -7 CURVE SMOOTH",
"284 -7 OFFCURVE",
"343 61 OFFCURVE",
"343 200 CURVE SMOOTH",
"343 339 OFFCURVE",
"284 407 OFFCURVE",
"186 407 CURVE SMOOTH"
);
},
{
closed = 1;
nodes = (
"250 359 OFFCURVE",
"289 312 OFFCURVE",
"289 214 CURVE SMOOTH",
"289 185 LINE SMOOTH",
"289 88 OFFCURVE",
"250 40 OFFCURVE",
"186 40 CURVE SMOOTH",
"122 40 OFFCURVE",
"82 88 OFFCURVE",
"82 185 CURVE SMOOTH",
"82 214 LINE SMOOTH",
"82 312 OFFCURVE",
"122 359 OFFCURVE",
"186 359 CURVE SMOOTH"
);
},
{
closed = 1;
nodes = (
"168 515 LINE",
"117 515 LINE",
"117 459 LINE",
"168 459 LINE"
);
},
{
closed = 1;
nodes = (
"255 515 LINE",
"204 515 LINE",
"204 459 LINE",
"255 459 LINE"
);
}
);
width = 372;
},
{
layerId = "256C563F-4683-4C38-8505-F28FAA76841F";
name = Bold;
paths = (
{
closed = 1;
nodes = (
"83 407 OFFCURVE",
"20 341 OFFCURVE",
"20 200 CURVE SMOOTH",
"20 59 OFFCURVE",
"83 -7 OFFCURVE",
"186 -7 CURVE SMOOTH",
"289 -7 OFFCURVE",
"352 59 OFFCURVE",
"352 200 CURVE SMOOTH",
"352 341 OFFCURVE",
"289 407 OFFCURVE",
"186 407 CURVE SMOOTH"
);
},
{
closed = 1;
nodes = (
"245 343 OFFCURVE",
"275 294 OFFCURVE",
"275 214 CURVE SMOOTH",
"275 185 LINE SMOOTH",
"275 105 OFFCURVE",
"245 57 OFFCURVE",
"186 57 CURVE SMOOTH",
"127 57 OFFCURVE",
"97 105 OFFCURVE",
"97 185 CURVE SMOOTH",
"97 214 LINE SMOOTH",
"97 294 OFFCURVE",
"127 343 OFFCURVE",
"186 343 CURVE SMOOTH"
);
},
{
closed = 1;
nodes = (
"164 515 LINE",
"106 515 LINE",
"106 451 LINE",
"164 451 LINE"
);
},
{
closed = 1;
nodes = (
"266 515 LINE",
"208 515 LINE",
"208 451 LINE",
"266 451 LINE"
);
}
);
width = 372;
}
);
unicode = 00D6;
},
{
glyphname = Ograve;
lastChange = "2015-01-27 09:06:03 +0000";
layers = (
{
layerId = "E0AA17FE-947E-4089-955E-70E92921D86D";
name = Regular;
paths = (
{
closed = 1;
nodes = (
"88 407 OFFCURVE",
"28 339 OFFCURVE",
"28 200 CURVE SMOOTH",
"28 61 OFFCURVE",
"88 -7 OFFCURVE",
"186 -7 CURVE SMOOTH",
"284 -7 OFFCURVE",
"343 61 OFFCURVE",
"343 200 CURVE SMOOTH",
"343 339 OFFCURVE",
"284 407 OFFCURVE",
"186 407 CURVE SMOOTH"
);
},
{
closed = 1;
nodes = (
"250 359 OFFCURVE",
"289 312 OFFCURVE",
"289 214 CURVE SMOOTH",
"289 185 LINE SMOOTH",
"289 88 OFFCURVE",
"250 40 OFFCURVE",
"186 40 CURVE SMOOTH",
"122 40 OFFCURVE",
"82 88 OFFCURVE",
"82 185 CURVE SMOOTH",
"82 214 LINE SMOOTH",
"82 312 OFFCURVE",
"122 359 OFFCURVE",
"186 359 CURVE SMOOTH"
);
},
{
closed = 1;
nodes = (
"171 515 LINE",
"118 515 LINE",
"118 513 LINE",
"181 438 LINE",
"221 438 LINE"
);
}
);
width = 372;
},
{
layerId = "256C563F-4683-4C38-8505-F28FAA76841F";
name = Bold;
paths = (
{
closed = 1;
nodes = (
"83 407 OFFCURVE",
"20 341 OFFCURVE",
"20 200 CURVE SMOOTH",
"20 59 OFFCURVE",
"83 -7 OFFCURVE",
"186 -7 CURVE SMOOTH",
"289 -7 OFFCURVE",
"352 59 OFFCURVE",
"352 200 CURVE SMOOTH",
"352 341 OFFCURVE",
"289 407 OFFCURVE",
"186 407 CURVE SMOOTH"
);
},
{
closed = 1;
nodes = (
"245 343 OFFCURVE",
"275 294 OFFCURVE",
"275 214 CURVE SMOOTH",
"275 185 LINE SMOOTH",
"275 105 OFFCURVE",
"245 57 OFFCURVE",
"186 57 CURVE SMOOTH",
"127 57 OFFCURVE",
"97 105 OFFCURVE",
"97 185 CURVE SMOOTH",
"97 214 LINE SMOOTH",
"97 294 OFFCURVE",
"127 343 OFFCURVE",
"186 343 CURVE SMOOTH"
);
},
{
closed = 1;
nodes = (
"176 515 LINE",
"106 515 LINE",
"105 513 LINE",
"168 438 LINE",
"226 438 LINE"
);
}
);
width = 372;
}
);
unicode = 00D2;
},
{
glyphname = Ohungarumlaut;
lastChange = "2015-01-27 09:06:03 +0000";
layers = (
{
layerId = "E0AA17FE-947E-4089-955E-70E92921D86D";
name = Regular;
paths = (
{
closed = 1;
nodes = (
"88 407 OFFCURVE",
"28 339 OFFCURVE",
"28 200 CURVE SMOOTH",
"28 61 OFFCURVE",
"88 -7 OFFCURVE",
"186 -7 CURVE SMOOTH",
"284 -7 OFFCURVE",
"343 61 OFFCURVE",
"343 200 CURVE SMOOTH",
"343 339 OFFCURVE",
"284 407 OFFCURVE",
"186 407 CURVE SMOOTH"
);
},
{
closed = 1;
nodes = (
"250 359 OFFCURVE",
"289 312 OFFCURVE",
"289 214 CURVE SMOOTH",
"289 185 LINE SMOOTH",
"289 88 OFFCURVE",
"250 40 OFFCURVE",
"186 40 CURVE SMOOTH",
"122 40 OFFCURVE",
"82 88 OFFCURVE",
"82 185 CURVE SMOOTH",
"82 214 LINE SMOOTH",
"82 312 OFFCURVE",
"122 359 OFFCURVE",
"186 359 CURVE SMOOTH"
);
},
{
closed = 1;
nodes = (
"218 515 LINE",
"167 515 LINE",
"130 438 LINE",
"170 438 LINE",
"219 513 LINE"
);
},
{
closed = 1;
nodes = (
"295 515 LINE",
"243 515 LINE",
"206 438 LINE",
"246 438 LINE",
"295 513 LINE"
);
}
);
width = 372;
},
{
layerId = "256C563F-4683-4C38-8505-F28FAA76841F";
name = Bold;
paths = (
{
closed = 1;
nodes = (
"83 407 OFFCURVE",
"20 341 OFFCURVE",
"20 200 CURVE SMOOTH",
"20 59 OFFCURVE",
"83 -7 OFFCURVE",
"186 -7 CURVE SMOOTH",
"289 -7 OFFCURVE",
"352 59 OFFCURVE",
"352 200 CURVE SMOOTH",
"352 341 OFFCURVE",
"289 407 OFFCURVE",
"186 407 CURVE SMOOTH"
);
},
{
closed = 1;
nodes = (
"245 343 OFFCURVE",
"275 294 OFFCURVE",
"275 214 CURVE SMOOTH",
"275 185 LINE SMOOTH",
"275 105 OFFCURVE",
"245 57 OFFCURVE",
"186 57 CURVE SMOOTH",
"127 57 OFFCURVE",
"97 105 OFFCURVE",
"97 185 CURVE SMOOTH",
"97 214 LINE SMOOTH",
"97 294 OFFCURVE",
"127 343 OFFCURVE",
"186 343 CURVE SMOOTH"
);
},
{
closed = 1;
nodes = (
"215 515 LINE",
"157 515 LINE",
"121 438 LINE",
"167 438 LINE",
"215 513 LINE"
);
},
{
closed = 1;
nodes = (
"297 515 LINE",
"239 515 LINE",
"202 438 LINE",
"248 438 LINE",
"297 513 LINE"
);
}
);
width = 372;
}
);
unicode = 0150;
},
{
glyphname = Omacron;
lastChange = "2015-01-27 09:06:03 +0000";
layers = (
{
layerId = "E0AA17FE-947E-4089-955E-70E92921D86D";
name = Regular;
paths = (
{
closed = 1;
nodes = (
"88 407 OFFCURVE",
"28 339 OFFCURVE",
"28 200 CURVE SMOOTH",
"28 61 OFFCURVE",
"88 -7 OFFCURVE",
"186 -7 CURVE SMOOTH",
"284 -7 OFFCURVE",
"343 61 OFFCURVE",
"343 200 CURVE SMOOTH",
"343 339 OFFCURVE",
"284 407 OFFCURVE",
"186 407 CURVE SMOOTH"
);
},
{
closed = 1;
nodes = (
"250 359 OFFCURVE",
"289 312 OFFCURVE",
"289 214 CURVE SMOOTH",
"289 185 LINE SMOOTH",
"289 88 OFFCURVE",
"250 40 OFFCURVE",
"186 40 CURVE SMOOTH",
"122 40 OFFCURVE",
"82 88 OFFCURVE",
"82 185 CURVE SMOOTH",
"82 214 LINE SMOOTH",
"82 312 OFFCURVE",
"122 359 OFFCURVE",
"186 359 CURVE SMOOTH"
);
},
{
closed = 1;
nodes = (
"259 442 LINE",
"259 484 LINE",
"113 484 LINE",
"113 442 LINE"
);
}
);
width = 372;
},
{
layerId = "256C563F-4683-4C38-8505-F28FAA76841F";
name = Bold;
paths = (
{
closed = 1;
nodes = (
"83 407 OFFCURVE",
"20 341 OFFCURVE",
"20 200 CURVE SMOOTH",
"20 59 OFFCURVE",
"83 -7 OFFCURVE",
"186 -7 CURVE SMOOTH",
"289 -7 OFFCURVE",
"352 59 OFFCURVE",
"352 200 CURVE SMOOTH",
"352 341 OFFCURVE",
"289 407 OFFCURVE",
"186 407 CURVE SMOOTH"
);
},
{
closed = 1;
nodes = (
"245 343 OFFCURVE",
"275 294 OFFCURVE",
"275 214 CURVE SMOOTH",
"275 185 LINE SMOOTH",
"275 105 OFFCURVE",
"245 57 OFFCURVE",
"186 57 CURVE SMOOTH",
"127 57 OFFCURVE",
"97 105 OFFCURVE",
"97 185 CURVE SMOOTH",
"97 214 LINE SMOOTH",
"97 294 OFFCURVE",
"127 343 OFFCURVE",
"186 343 CURVE SMOOTH"
);
},
{
closed = 1;
nodes = (
"260 442 LINE",
"260 493 LINE",
"112 493 LINE",
"112 442 LINE"
);
}
);
width = 372;
}
);
unicode = 014C;
},
{
glyphname = Oslash;
lastChange = "2015-01-27 09:06:03 +0000";
layers = (
{
anchors = (
{
name = top;
position = "{186, 399}";
}
);
layerId = "E0AA17FE-947E-4089-955E-70E92921D86D";
name = Regular;
paths = (
{
closed = 1;
nodes = (
"343 421 LINE",
"306 421 LINE",
"279 378 LINE",
"254 397 OFFCURVE",
"223 407 OFFCURVE",
"186 407 CURVE SMOOTH",
"88 407 OFFCURVE",
"28 339 OFFCURVE",
"28 200 CURVE SMOOTH",
"28 130 OFFCURVE",
"43 78 OFFCURVE",
"71 44 CURVE",
"29 -22 LINE",
"67 -22 LINE",
"93 22 LINE",
"118 3 OFFCURVE",
"149 -7 OFFCURVE",
"186 -7 CURVE SMOOTH",
"284 -7 OFFCURVE",
"343 61 OFFCURVE",
"343 200 CURVE SMOOTH",
"343 269 OFFCURVE",
"328 320 OFFCURVE",
"301 355 CURVE"
);
},
{
closed = 1;
nodes = (
"272 307 LINE",
"283 284 OFFCURVE",
"289 253 OFFCURVE",
"289 214 CURVE SMOOTH",
"289 185 LINE SMOOTH",
"289 88 OFFCURVE",
"250 40 OFFCURVE",
"186 40 CURVE SMOOTH",
"159 40 OFFCURVE",
"137 48 OFFCURVE",
"120 65 CURVE"
);
},
{
closed = 1;
nodes = (
"212 359 OFFCURVE",
"234 351 OFFCURVE",
"252 334 CURVE",
"100 92 LINE",
"88 115 OFFCURVE",
"82 146 OFFCURVE",
"82 185 CURVE SMOOTH",
"82 214 LINE SMOOTH",
"82 312 OFFCURVE",
"122 359 OFFCURVE",
"186 359 CURVE SMOOTH"
);
}
);
width = 372;
},
{
anchors = (
{
name = top;
position = "{186, 399}";
}
);
layerId = "256C563F-4683-4C38-8505-F28FAA76841F";
name = Bold;
paths = (
{
closed = 1;
nodes = (
"349 421 LINE",
"300 421 LINE",
"276 384 LINE",
"251 399 OFFCURVE",
"221 407 OFFCURVE",
"186 407 CURVE SMOOTH",
"83 407 OFFCURVE",
"20 341 OFFCURVE",
"20 200 CURVE SMOOTH",
"20 129 OFFCURVE",
"36 78 OFFCURVE",
"64 43 CURVE",
"23 -22 LINE",
"72 -22 LINE",
"96 16 LINE",
"121 1 OFFCURVE",
"151 -7 OFFCURVE",
"186 -7 CURVE SMOOTH",
"289 -7 OFFCURVE",
"352 59 OFFCURVE",
"352 200 CURVE SMOOTH",
"352 270 OFFCURVE",
"336 322 OFFCURVE",
"308 355 CURVE"
);
},
{
closed = 1;
nodes = (
"264 285 LINE",
"272 266 OFFCURVE",
"275 242 OFFCURVE",
"275 214 CURVE SMOOTH",
"275 185 LINE SMOOTH",
"275 105 OFFCURVE",
"245 57 OFFCURVE",
"186 57 CURVE SMOOTH",
"164 57 OFFCURVE",
"146 63 OFFCURVE",
"133 75 CURVE"
);
},
{
closed = 1;
nodes = (
"208 343 OFFCURVE",
"225 336 OFFCURVE",
"239 324 CURVE",
"107 113 LINE",
"100 133 OFFCURVE",
"97 158 OFFCURVE",
"97 185 CURVE SMOOTH",
"97 214 LINE SMOOTH",
"97 294 OFFCURVE",
"127 343 OFFCURVE",
"186 343 CURVE SMOOTH"
);
}
);
width = 372;
}
);
unicode = 00D8;
},
{
glyphname = Oslashacute;
lastChange = "2015-01-27 09:06:03 +0000";
layers = (
{
layerId = "E0AA17FE-947E-4089-955E-70E92921D86D";
name = Regular;
paths = (
{
closed = 1;
nodes = (
"343 421 LINE",
"306 421 LINE",
"279 378 LINE",
"254 397 OFFCURVE",
"223 407 OFFCURVE",
"186 407 CURVE SMOOTH",
"88 407 OFFCURVE",
"28 339 OFFCURVE",
"28 200 CURVE SMOOTH",
"28 130 OFFCURVE",
"43 78 OFFCURVE",
"71 44 CURVE",
"29 -22 LINE",
"67 -22 LINE",
"93 22 LINE",
"118 3 OFFCURVE",
"149 -7 OFFCURVE",
"186 -7 CURVE SMOOTH",
"284 -7 OFFCURVE",
"343 61 OFFCURVE",
"343 200 CURVE SMOOTH",
"343 269 OFFCURVE",
"328 320 OFFCURVE",
"301 355 CURVE"
);
},
{
closed = 1;
nodes = (
"272 307 LINE",
"283 284 OFFCURVE",
"289 253 OFFCURVE",
"289 214 CURVE SMOOTH",
"289 185 LINE SMOOTH",
"289 88 OFFCURVE",
"250 40 OFFCURVE",
"186 40 CURVE SMOOTH",
"159 40 OFFCURVE",
"137 48 OFFCURVE",
"120 65 CURVE"
);
},
{
closed = 1;
nodes = (
"212 359 OFFCURVE",
"234 351 OFFCURVE",
"252 334 CURVE",
"100 92 LINE",
"88 115 OFFCURVE",
"82 146 OFFCURVE",
"82 185 CURVE SMOOTH",
"82 214 LINE SMOOTH",
"82 312 OFFCURVE",
"122 359 OFFCURVE",
"186 359 CURVE SMOOTH"
);
},
{
closed = 1;
nodes = (
"254 515 LINE",
"202 515 LINE",
"152 438 LINE",
"192 438 LINE",
"254 513 LINE"
);
}
);
width = 372;
},
{
layerId = "256C563F-4683-4C38-8505-F28FAA76841F";
name = Bold;
paths = (
{
closed = 1;
nodes = (
"349 421 LINE",
"300 421 LINE",
"276 384 LINE",
"251 399 OFFCURVE",
"221 407 OFFCURVE",
"186 407 CURVE SMOOTH",
"83 407 OFFCURVE",
"20 341 OFFCURVE",
"20 200 CURVE SMOOTH",
"20 129 OFFCURVE",
"36 78 OFFCURVE",
"64 43 CURVE",
"23 -22 LINE",
"72 -22 LINE",
"96 16 LINE",
"121 1 OFFCURVE",
"151 -7 OFFCURVE",
"186 -7 CURVE SMOOTH",
"289 -7 OFFCURVE",
"352 59 OFFCURVE",
"352 200 CURVE SMOOTH",
"352 270 OFFCURVE",
"336 322 OFFCURVE",
"308 355 CURVE"
);
},
{
closed = 1;
nodes = (
"264 285 LINE",
"272 266 OFFCURVE",
"275 242 OFFCURVE",
"275 214 CURVE SMOOTH",
"275 185 LINE SMOOTH",
"275 105 OFFCURVE",
"245 57 OFFCURVE",
"186 57 CURVE SMOOTH",
"164 57 OFFCURVE",
"146 63 OFFCURVE",
"133 75 CURVE"
);
},
{
closed = 1;
nodes = (
"208 343 OFFCURVE",
"225 336 OFFCURVE",
"239 324 CURVE",
"107 113 LINE",
"100 133 OFFCURVE",
"97 158 OFFCURVE",
"97 185 CURVE SMOOTH",
"97 214 LINE SMOOTH",
"97 294 OFFCURVE",
"127 343 OFFCURVE",
"186 343 CURVE SMOOTH"
);
},
{
closed = 1;
nodes = (
"266 515 LINE",
"196 515 LINE",
"146 438 LINE",
"204 438 LINE",
"267 513 LINE"
);
}
);
width = 372;
}
);
unicode = 01FE;
},
{
glyphname = Otilde;
lastChange = "2015-01-27 09:06:03 +0000";
layers = (
{
layerId = "E0AA17FE-947E-4089-955E-70E92921D86D";
name = Regular;
paths = (
{
closed = 1;
nodes = (
"88 407 OFFCURVE",
"28 339 OFFCURVE",
"28 200 CURVE SMOOTH",
"28 61 OFFCURVE",
"88 -7 OFFCURVE",
"186 -7 CURVE SMOOTH",
"284 -7 OFFCURVE",
"343 61 OFFCURVE",
"343 200 CURVE SMOOTH",
"343 339 OFFCURVE",
"284 407 OFFCURVE",
"186 407 CURVE SMOOTH"
);
},
{
closed = 1;
nodes = (
"250 359 OFFCURVE",
"289 312 OFFCURVE",
"289 214 CURVE SMOOTH",
"289 185 LINE SMOOTH",
"289 88 OFFCURVE",
"250 40 OFFCURVE",
"186 40 CURVE SMOOTH",
"122 40 OFFCURVE",
"82 88 OFFCURVE",
"82 185 CURVE SMOOTH",
"82 214 LINE SMOOTH",
"82 312 OFFCURVE",
"122 359 OFFCURVE",
"186 359 CURVE SMOOTH"
);
},
{
closed = 1;
nodes = (
"237 515 LINE",
"235 501 OFFCURVE",
"228 497 OFFCURVE",
"217 497 CURVE SMOOTH",
"194 497 OFFCURVE",
"175 515 OFFCURVE",
"150 515 CURVE SMOOTH",
"115 515 OFFCURVE",
"101 480 OFFCURVE",
"101 454 CURVE",
"134 454 LINE",
"136 467 OFFCURVE",
"144 472 OFFCURVE",
"154 472 CURVE SMOOTH",
"177 472 OFFCURVE",
"196 454 OFFCURVE",
"221 454 CURVE SMOOTH",
"256 454 OFFCURVE",
"271 488 OFFCURVE",
"271 515 CURVE"
);
}
);
width = 372;
},
{
layerId = "256C563F-4683-4C38-8505-F28FAA76841F";
name = Bold;
paths = (
{
closed = 1;
nodes = (
"83 407 OFFCURVE",
"20 341 OFFCURVE",
"20 200 CURVE SMOOTH",
"20 59 OFFCURVE",
"83 -7 OFFCURVE",
"186 -7 CURVE SMOOTH",
"289 -7 OFFCURVE",
"352 59 OFFCURVE",
"352 200 CURVE SMOOTH",
"352 341 OFFCURVE",
"289 407 OFFCURVE",
"186 407 CURVE SMOOTH"
);
},
{
closed = 1;
nodes = (
"245 343 OFFCURVE",
"275 294 OFFCURVE",
"275 214 CURVE SMOOTH",
"275 185 LINE SMOOTH",
"275 105 OFFCURVE",
"245 57 OFFCURVE",
"186 57 CURVE SMOOTH",
"127 57 OFFCURVE",
"97 105 OFFCURVE",
"97 185 CURVE SMOOTH",
"97 214 LINE SMOOTH",
"97 294 OFFCURVE",
"127 343 OFFCURVE",
"186 343 CURVE SMOOTH"
);
},
{
closed = 1;
nodes = (
"245 515 LINE",
"243 498 OFFCURVE",
"235 493 OFFCURVE",
"223 493 CURVE SMOOTH",
"196 493 OFFCURVE",
"174 515 OFFCURVE",
"146 515 CURVE SMOOTH",
"105 515 OFFCURVE",
"88 475 OFFCURVE",
"88 444 CURVE",
"127 444 LINE",
"129 459 OFFCURVE",
"137 465 OFFCURVE",
"150 465 CURVE SMOOTH",
"176 465 OFFCURVE",
"198 444 OFFCURVE",
"227 444 CURVE SMOOTH",
"268 444 OFFCURVE",
"284 482 OFFCURVE",
"284 515 CURVE"
);
}
);
width = 372;
}
);
unicode = 00D5;
},
{
glyphname = OE;
lastChange = "2015-01-27 09:06:03 +0000";
layers = (
{
anchors = (
{
name = top;
position = "{239, 399}";
}
);
layerId = "E0AA17FE-947E-4089-955E-70E92921D86D";
name = Regular;
paths = (
{
closed = 1;
nodes = (
"77 407 OFFCURVE",
"28 339 OFFCURVE",
"28 200 CURVE SMOOTH",
"28 61 OFFCURVE",
"77 -7 OFFCURVE",
"159 -7 CURVE SMOOTH",
"196 -7 OFFCURVE",
"226 8 OFFCURVE",
"248 40 CURVE",
"248 0 LINE",
"457 0 LINE",
"457 47 LINE",
"299 47 LINE",
"299 181 LINE",
"427 181 LINE",
"427 228 LINE",
"299 228 LINE",
"299 353 LINE",
"453 353 LINE",
"453 399 LINE",
"248 399 LINE",
"248 360 LINE",
"226 391 OFFCURVE",
"196 407 OFFCURVE",
"159 407 CURVE SMOOTH"
);
},
{
closed = 1;
nodes = (
"216 359 OFFCURVE",
"248 312 OFFCURVE",
"248 214 CURVE SMOOTH",
"248 185 LINE SMOOTH",
"248 88 OFFCURVE",
"216 40 OFFCURVE",
"165 40 CURVE SMOOTH",
"113 40 OFFCURVE",
"82 88 OFFCURVE",
"82 185 CURVE SMOOTH",
"82 214 LINE SMOOTH",
"82 312 OFFCURVE",
"113 359 OFFCURVE",
"165 359 CURVE SMOOTH"
);
}
);
width = 478;
},
{
anchors = (
{
name = top;
position = "{239, 399}";
}
);
layerId = "256C563F-4683-4C38-8505-F28FAA76841F";
name = Bold;
paths = (
{
closed = 1;
nodes = (
"68 407 OFFCURVE",
"18 341 OFFCURVE",
"18 200 CURVE SMOOTH",
"18 59 OFFCURVE",
"68 -7 OFFCURVE",
"150 -7 CURVE SMOOTH",
"186 -7 OFFCURVE",
"215 7 OFFCURVE",
"238 36 CURVE",
"238 0 LINE",
"461 0 LINE",
"461 67 LINE",
"312 67 LINE",
"312 171 LINE",
"432 171 LINE",
"432 238 LINE",
"312 238 LINE",
"312 333 LINE",
"457 333 LINE",
"457 399 LINE",
"238 399 LINE",
"238 364 LINE",
"215 393 OFFCURVE",
"186 407 OFFCURVE",
"150 407 CURVE SMOOTH"
);
},
{
closed = 1;
nodes = (
"214 343 OFFCURVE",
"237 306 OFFCURVE",
"237 214 CURVE SMOOTH",
"237 185 LINE SMOOTH",
"237 94 OFFCURVE",
"214 57 OFFCURVE",
"165 57 CURVE SMOOTH",
"118 57 OFFCURVE",
"94 94 OFFCURVE",
"94 185 CURVE SMOOTH",
"94 214 LINE SMOOTH",
"94 306 OFFCURVE",
"118 343 OFFCURVE",
"165 343 CURVE SMOOTH"
);
}
);
width = 478;
}
);
unicode = 0152;
},
{
glyphname = P;
lastChange = "2015-01-27 09:06:03 +0000";
layers = (
{
layerId = "E0AA17FE-947E-4089-955E-70E92921D86D";
name = Regular;
paths = (
{
closed = 1;
nodes = (
"92 165 LINE",
"183 165 LINE SMOOTH",
"258 165 OFFCURVE",
"303 213 OFFCURVE",
"303 283 CURVE SMOOTH",
"303 353 OFFCURVE",
"262 399 OFFCURVE",
"183 399 CURVE SMOOTH",
"41 399 LINE",
"41 0 LINE",
"92 0 LINE"
);
},
{
closed = 1;
nodes = (
"92 353 LINE",
"182 353 LINE SMOOTH",
"225 353 OFFCURVE",
"249 326 OFFCURVE",
"249 283 CURVE SMOOTH",
"249 240 OFFCURVE",
"223 212 OFFCURVE",
"182 212 CURVE SMOOTH",
"92 212 LINE"
);
}
);
width = 319;
},
{
layerId = "256C563F-4683-4C38-8505-F28FAA76841F";
name = Bold;
paths = (
{
closed = 1;
nodes = (
"109 155 LINE",
"178 155 LINE SMOOTH",
"253 155 OFFCURVE",
"303 204 OFFCURVE",
"303 279 CURVE SMOOTH",
"303 349 OFFCURVE",
"260 399 OFFCURVE",
"178 399 CURVE SMOOTH",
"35 399 LINE",
"35 0 LINE",
"109 0 LINE"
);
},
{
closed = 1;
nodes = (
"109 333 LINE",
"170 333 LINE SMOOTH",
"206 333 OFFCURVE",
"226 312 OFFCURVE",
"226 279 CURVE SMOOTH",
"226 243 OFFCURVE",
"206 221 OFFCURVE",
"170 221 CURVE SMOOTH",
"109 221 LINE"
);
}
);
width = 319;
}
);
unicode = 0050;
},
{
glyphname = Thorn;
lastChange = "2015-01-27 09:06:03 +0000";
layers = (
{
layerId = "E0AA17FE-947E-4089-955E-70E92921D86D";
name = Regular;
paths = (
{
closed = 1;
nodes = (
"92 399 LINE",
"41 399 LINE",
"41 0 LINE",
"92 0 LINE",
"92 86 LINE",
"183 86 LINE SMOOTH",
"258 86 OFFCURVE",
"303 133 OFFCURVE",
"303 204 CURVE SMOOTH",
"303 273 OFFCURVE",
"262 320 OFFCURVE",
"183 320 CURVE SMOOTH",
"92 320 LINE"
);
},
{
closed = 1;
nodes = (
"182 273 LINE",
"225 273 OFFCURVE",
"249 247 OFFCURVE",
"249 204 CURVE SMOOTH",
"249 161 OFFCURVE",
"223 132 OFFCURVE",
"182 132 CURVE SMOOTH",
"92 132 LINE",
"92 273 LINE"
);
}
);
width = 319;
},
{
layerId = "256C563F-4683-4C38-8505-F28FAA76841F";
name = Bold;
paths = (
{
closed = 1;
nodes = (
"109 399 LINE",
"35 399 LINE",
"35 0 LINE",
"109 0 LINE",
"109 84 LINE",
"178 84 LINE SMOOTH",
"253 84 OFFCURVE",
"303 133 OFFCURVE",
"303 208 CURVE SMOOTH",
"303 278 OFFCURVE",
"260 329 OFFCURVE",
"178 329 CURVE SMOOTH",
"109 329 LINE"
);
},
{
closed = 1;
nodes = (
"170 262 LINE",
"206 262 OFFCURVE",
"226 241 OFFCURVE",
"226 208 CURVE SMOOTH",
"226 172 OFFCURVE",
"206 150 OFFCURVE",
"170 150 CURVE SMOOTH",
"109 150 LINE",
"109 262 LINE"
);
}
);
width = 319;
}
);
unicode = 00DE;
},
{
glyphname = Q;
lastChange = "2015-01-27 09:06:03 +0000";
layers = (
{
layerId = "E0AA17FE-947E-4089-955E-70E92921D86D";
name = Regular;
paths = (
{
closed = 1;
nodes = (
"28 61 OFFCURVE",
"88 -7 OFFCURVE",
"186 -7 CURVE SMOOTH",
"193 -7 LINE",
"262 -72 LINE",
"331 -72 LINE",
"248 4 LINE",
"308 28 OFFCURVE",
"343 94 OFFCURVE",
"343 200 CURVE SMOOTH",
"343 339 OFFCURVE",
"284 407 OFFCURVE",
"186 407 CURVE SMOOTH",
"88 407 OFFCURVE",
"28 339 OFFCURVE",
"28 200 CURVE SMOOTH"
);
},
{
closed = 1;
nodes = (
"82 214 LINE",
"82 312 OFFCURVE",
"122 359 OFFCURVE",
"186 359 CURVE SMOOTH",
"250 359 OFFCURVE",
"289 312 OFFCURVE",
"289 214 CURVE SMOOTH",
"289 185 LINE SMOOTH",
"289 88 OFFCURVE",
"250 40 OFFCURVE",
"186 40 CURVE SMOOTH",
"122 40 OFFCURVE",
"82 88 OFFCURVE",
"82 185 CURVE SMOOTH"
);
}
);
width = 372;
},
{
layerId = "256C563F-4683-4C38-8505-F28FAA76841F";
name = Bold;
paths = (
{
closed = 1;
nodes = (
"20 59 OFFCURVE",
"83 -7 OFFCURVE",
"186 -7 CURVE SMOOTH",
"193 -7 LINE",
"250 -72 LINE",
"342 -72 LINE",
"265 10 LINE",
"320 38 OFFCURVE",
"352 100 OFFCURVE",
"352 200 CURVE SMOOTH",
"352 341 OFFCURVE",
"289 407 OFFCURVE",
"186 407 CURVE SMOOTH",
"83 407 OFFCURVE",
"20 341 OFFCURVE",
"20 200 CURVE SMOOTH"
);
},
{
closed = 1;
nodes = (
"97 214 LINE",
"97 294 OFFCURVE",
"127 343 OFFCURVE",
"186 343 CURVE SMOOTH",
"245 343 OFFCURVE",
"275 294 OFFCURVE",
"275 214 CURVE SMOOTH",
"275 185 LINE SMOOTH",
"275 105 OFFCURVE",
"245 57 OFFCURVE",
"186 57 CURVE SMOOTH",
"127 57 OFFCURVE",
"97 105 OFFCURVE",
"97 185 CURVE SMOOTH"
);
}
);
width = 372;
}
);
unicode = 0051;
},
{
glyphname = R;
lastChange = "2015-01-27 09:06:03 +0000";
layers = (
{
anchors = (
{
name = bottom;
position = "{173, 0}";
},
{
name = top;
position = "{173, 399}";
}
);
layerId = "E0AA17FE-947E-4089-955E-70E92921D86D";
name = Regular;
paths = (
{
closed = 1;
nodes = (
"41 399 LINE",
"41 0 LINE",
"92 0 LINE",
"92 177 LINE",
"199 177 LINE",
"273 0 LINE",
"330 0 LINE",
"250 186 LINE",
"295 201 OFFCURVE",
"321 239 OFFCURVE",
"321 289 CURVE SMOOTH",
"321 355 OFFCURVE",
"280 399 OFFCURVE",
"202 399 CURVE SMOOTH"
);
},
{
closed = 1;
nodes = (
"200 353 LINE",
"244 353 OFFCURVE",
"268 329 OFFCURVE",
"268 289 CURVE SMOOTH",
"268 249 OFFCURVE",
"241 223 OFFCURVE",
"200 223 CURVE SMOOTH",
"92 223 LINE",
"92 353 LINE"
);
}
);
width = 345;
},
{
anchors = (
{
name = bottom;
position = "{173, 0}";
},
{
name = top;
position = "{173, 399}";
}
);
layerId = "256C563F-4683-4C38-8505-F28FAA76841F";
name = Bold;
paths = (
{
closed = 1;
nodes = (
"35 399 LINE",
"35 0 LINE",
"109 0 LINE",
"109 167 LINE",
"187 167 LINE",
"254 0 LINE",
"334 0 LINE",
"258 183 LINE",
"299 200 OFFCURVE",
"324 237 OFFCURVE",
"324 285 CURVE SMOOTH",
"324 351 OFFCURVE",
"283 399 OFFCURVE",
"202 399 CURVE SMOOTH"
);
},
{
closed = 1;
nodes = (
"194 333 LINE",
"229 333 OFFCURVE",
"244 314 OFFCURVE",
"244 285 CURVE SMOOTH",
"244 252 OFFCURVE",
"228 233 OFFCURVE",
"192 233 CURVE SMOOTH",
"109 233 LINE",
"109 333 LINE"
);
}
);
width = 345;
}
);
unicode = 0052;
},
{
glyphname = Racute;
lastChange = "2015-01-27 09:06:03 +0000";
layers = (
{
layerId = "E0AA17FE-947E-4089-955E-70E92921D86D";
name = Regular;
paths = (
{
closed = 1;
nodes = (
"41 399 LINE",
"41 0 LINE",
"92 0 LINE",
"92 177 LINE",
"199 177 LINE",
"273 0 LINE",
"330 0 LINE",
"250 186 LINE",
"295 201 OFFCURVE",
"321 239 OFFCURVE",
"321 289 CURVE SMOOTH",
"321 355 OFFCURVE",
"280 399 OFFCURVE",
"202 399 CURVE SMOOTH"
);
},
{
closed = 1;
nodes = (
"200 353 LINE",
"244 353 OFFCURVE",
"268 329 OFFCURVE",
"268 289 CURVE SMOOTH",
"268 249 OFFCURVE",
"241 223 OFFCURVE",
"200 223 CURVE SMOOTH",
"92 223 LINE",
"92 353 LINE"
);
},
{
closed = 1;
nodes = (
"227 515 LINE",
"175 515 LINE",
"125 438 LINE",
"165 438 LINE",
"228 513 LINE"
);
}
);
width = 345;
},
{
layerId = "256C563F-4683-4C38-8505-F28FAA76841F";
name = Bold;
paths = (
{
closed = 1;
nodes = (
"35 399 LINE",
"35 0 LINE",
"109 0 LINE",
"109 167 LINE",
"187 167 LINE",
"254 0 LINE",
"334 0 LINE",
"258 183 LINE",
"299 200 OFFCURVE",
"324 237 OFFCURVE",
"324 285 CURVE SMOOTH",
"324 351 OFFCURVE",
"283 399 OFFCURVE",
"202 399 CURVE SMOOTH"
);
},
{
closed = 1;
nodes = (
"194 333 LINE",
"229 333 OFFCURVE",
"244 314 OFFCURVE",
"244 285 CURVE SMOOTH",
"244 252 OFFCURVE",
"228 233 OFFCURVE",
"192 233 CURVE SMOOTH",
"109 233 LINE",
"109 333 LINE"
);
},
{
closed = 1;
nodes = (
"252 515 LINE",
"183 515 LINE",
"132 438 LINE",
"190 438 LINE",
"253 513 LINE"
);
}
);
width = 345;
}
);
unicode = 0154;
},
{
glyphname = Rcaron;
lastChange = "2015-01-27 09:06:03 +0000";
layers = (
{
layerId = "E0AA17FE-947E-4089-955E-70E92921D86D";
name = Regular;
paths = (
{
closed = 1;
nodes = (
"41 399 LINE",
"41 0 LINE",
"92 0 LINE",
"92 177 LINE",
"199 177 LINE",
"273 0 LINE",
"330 0 LINE",
"250 186 LINE",
"295 201 OFFCURVE",
"321 239 OFFCURVE",
"321 289 CURVE SMOOTH",
"321 355 OFFCURVE",
"280 399 OFFCURVE",
"202 399 CURVE SMOOTH"
);
},
{
closed = 1;
nodes = (
"200 353 LINE",
"244 353 OFFCURVE",
"268 329 OFFCURVE",
"268 289 CURVE SMOOTH",
"268 249 OFFCURVE",
"241 223 OFFCURVE",
"200 223 CURVE SMOOTH",
"92 223 LINE",
"92 353 LINE"
);
},
{
closed = 1;
nodes = (
"245 515 LINE",
"198 515 LINE",
"173 469 LINE",
"146 515 LINE",
"100 515 LINE",
"149 436 LINE",
"194 436 LINE"
);
}
);
width = 345;
},
{
layerId = "256C563F-4683-4C38-8505-F28FAA76841F";
name = Bold;
paths = (
{
closed = 1;
nodes = (
"35 399 LINE",
"35 0 LINE",
"109 0 LINE",
"109 167 LINE",
"187 167 LINE",
"254 0 LINE",
"334 0 LINE",
"258 183 LINE",
"299 200 OFFCURVE",
"324 237 OFFCURVE",
"324 285 CURVE SMOOTH",
"324 351 OFFCURVE",
"283 399 OFFCURVE",
"202 399 CURVE SMOOTH"
);
},
{
closed = 1;
nodes = (
"194 333 LINE",
"229 333 OFFCURVE",
"244 314 OFFCURVE",
"244 285 CURVE SMOOTH",
"244 252 OFFCURVE",
"228 233 OFFCURVE",
"192 233 CURVE SMOOTH",
"109 233 LINE",
"109 333 LINE"
);
},
{
closed = 1;
nodes = (
"251 515 LINE",
"198 515 LINE",
"173 474 LINE",
"146 515 LINE",
"94 515 LINE",
"144 436 LINE",
"202 436 LINE"
);
}
);
width = 345;
}
);
unicode = 0158;
},
{
glyphname = Rcommaaccent;
lastChange = "2015-01-27 09:06:03 +0000";
layers = (
{
layerId = "E0AA17FE-947E-4089-955E-70E92921D86D";
name = Regular;
paths = (
{
closed = 1;
nodes = (
"41 399 LINE",
"41 0 LINE",
"92 0 LINE",
"92 177 LINE",
"199 177 LINE",
"273 0 LINE",
"330 0 LINE",
"250 186 LINE",
"295 201 OFFCURVE",
"321 239 OFFCURVE",
"321 289 CURVE SMOOTH",
"321 355 OFFCURVE",
"280 399 OFFCURVE",
"202 399 CURVE SMOOTH"
);
},
{
closed = 1;
nodes = (
"198 -35 LINE",
"148 -35 LINE",
"148 -88 LINE",
"168 -88 LINE",
"154 -129 LINE",
"181 -129 LINE",
"198 -84 LINE"
);
},
{
closed = 1;
nodes = (
"200 353 LINE",
"244 353 OFFCURVE",
"268 329 OFFCURVE",
"268 289 CURVE SMOOTH",
"268 249 OFFCURVE",
"241 223 OFFCURVE",
"200 223 CURVE SMOOTH",
"92 223 LINE",
"92 353 LINE"
);
}
);
width = 345;
},
{
layerId = "256C563F-4683-4C38-8505-F28FAA76841F";
name = Bold;
paths = (
{
closed = 1;
nodes = (
"35 399 LINE",
"35 0 LINE",
"109 0 LINE",
"109 167 LINE",
"187 167 LINE",
"254 0 LINE",
"334 0 LINE",
"258 183 LINE",
"299 200 OFFCURVE",
"324 237 OFFCURVE",
"324 285 CURVE SMOOTH",
"324 351 OFFCURVE",
"283 399 OFFCURVE",
"202 399 CURVE SMOOTH"
);
},
{
closed = 1;
nodes = (
"208 -32 LINE",
"136 -32 LINE",
"136 -103 LINE",
"165 -103 LINE",
"144 -153 LINE",
"182 -153 LINE",
"208 -98 LINE"
);
},
{
closed = 1;
nodes = (
"194 333 LINE",
"229 333 OFFCURVE",
"244 314 OFFCURVE",
"244 285 CURVE SMOOTH",
"244 252 OFFCURVE",
"228 233 OFFCURVE",
"192 233 CURVE SMOOTH",
"109 233 LINE",
"109 333 LINE"
);
}
);
width = 345;
}
);
unicode = 0156;
},
{
glyphname = S;
lastChange = "2015-01-27 09:06:03 +0000";
layers = (
{
anchors = (
{
name = bottom;
position = "{159, 0}";
},
{
name = top;
position = "{159, 399}";
}
);
layerId = "E0AA17FE-947E-4089-955E-70E92921D86D";
name = Regular;
paths = (
{
closed = 1;
nodes = (
"89 407 OFFCURVE",
"32 373 OFFCURVE",
"32 299 CURVE SMOOTH",
"32 155 OFFCURVE",
"240 208 OFFCURVE",
"240 107 CURVE SMOOTH",
"240 63 OFFCURVE",
"210 40 OFFCURVE",
"156 40 CURVE SMOOTH",
"111 40 OFFCURVE",
"77 63 OFFCURVE",
"77 113 CURVE SMOOTH",
"77 116 OFFCURVE",
"78 124 OFFCURVE",
"78 125 CURVE",
"24 125 LINE",
"24 123 OFFCURVE",
"24 117 OFFCURVE",
"24 113 CURVE SMOOTH",
"24 25 OFFCURVE",
"86 -7 OFFCURVE",
"158 -7 CURVE SMOOTH",
"236 -7 OFFCURVE",
"294 26 OFFCURVE",
"294 115 CURVE SMOOTH",
"294 256 OFFCURVE",
"86 208 OFFCURVE",
"86 304 CURVE SMOOTH",
"86 342 OFFCURVE",
"118 359 OFFCURVE",
"160 359 CURVE SMOOTH",
"200 359 OFFCURVE",
"231 337 OFFCURVE",
"231 296 CURVE SMOOTH",
"231 287 LINE",
"284 287 LINE",
"284 294 LINE SMOOTH",
"284 374 OFFCURVE",
"229 407 OFFCURVE",
"159 407 CURVE SMOOTH"
);
}
);
width = 319;
},
{
anchors = (
{
name = bottom;
position = "{159, 0}";
},
{
name = top;
position = "{159, 399}";
}
);
layerId = "256C563F-4683-4C38-8505-F28FAA76841F";
name = Bold;
paths = (
{
closed = 1;
nodes = (
"88 407 OFFCURVE",
"26 370 OFFCURVE",
"26 295 CURVE SMOOTH",
"26 143 OFFCURVE",
"219 199 OFFCURVE",
"219 104 CURVE SMOOTH",
"219 81 OFFCURVE",
"204 57 OFFCURVE",
"159 57 CURVE SMOOTH",
"118 57 OFFCURVE",
"95 83 OFFCURVE",
"95 121 CURVE SMOOTH",
"95 123 OFFCURVE",
"96 129 OFFCURVE",
"96 130 CURVE",
"18 130 LINE",
"18 127 OFFCURVE",
"18 122 OFFCURVE",
"18 117 CURVE SMOOTH",
"18 35 OFFCURVE",
"82 -7 OFFCURVE",
"156 -7 CURVE SMOOTH",
"239 -7 OFFCURVE",
"297 28 OFFCURVE",
"297 120 CURVE SMOOTH",
"297 267 OFFCURVE",
"103 219 OFFCURVE",
"103 300 CURVE SMOOTH",
"103 324 OFFCURVE",
"123 343 OFFCURVE",
"158 343 CURVE SMOOTH",
"192 343 OFFCURVE",
"213 321 OFFCURVE",
"213 287 CURVE SMOOTH",
"213 282 LINE",
"289 282 LINE",
"289 289 LINE SMOOTH",
"289 371 OFFCURVE",
"230 407 OFFCURVE",
"159 407 CURVE SMOOTH"
);
}
);
width = 319;
}
);
unicode = 0053;
},
{
glyphname = Sacute;
lastChange = "2015-01-27 09:06:03 +0000";
layers = (
{
layerId = "E0AA17FE-947E-4089-955E-70E92921D86D";
name = Regular;
paths = (
{
closed = 1;
nodes = (
"89 407 OFFCURVE",
"32 373 OFFCURVE",
"32 299 CURVE SMOOTH",
"32 155 OFFCURVE",
"240 208 OFFCURVE",
"240 107 CURVE SMOOTH",
"240 63 OFFCURVE",
"210 40 OFFCURVE",
"156 40 CURVE SMOOTH",
"111 40 OFFCURVE",
"77 63 OFFCURVE",
"77 113 CURVE SMOOTH",
"77 116 OFFCURVE",
"78 124 OFFCURVE",
"78 125 CURVE",
"24 125 LINE",
"24 123 OFFCURVE",
"24 117 OFFCURVE",
"24 113 CURVE SMOOTH",
"24 25 OFFCURVE",
"86 -7 OFFCURVE",
"158 -7 CURVE SMOOTH",
"236 -7 OFFCURVE",
"294 26 OFFCURVE",
"294 115 CURVE SMOOTH",
"294 256 OFFCURVE",
"86 208 OFFCURVE",
"86 304 CURVE SMOOTH",
"86 342 OFFCURVE",
"118 359 OFFCURVE",
"160 359 CURVE SMOOTH",
"200 359 OFFCURVE",
"231 337 OFFCURVE",
"231 296 CURVE SMOOTH",
"231 287 LINE",
"284 287 LINE",
"284 294 LINE SMOOTH",
"284 374 OFFCURVE",
"229 407 OFFCURVE",
"159 407 CURVE SMOOTH"
);
},
{
closed = 1;
nodes = (
"227 515 LINE",
"175 515 LINE",
"125 438 LINE",
"165 438 LINE",
"228 513 LINE"
);
}
);
width = 319;
},
{
layerId = "256C563F-4683-4C38-8505-F28FAA76841F";
name = Bold;
paths = (
{
closed = 1;
nodes = (
"88 407 OFFCURVE",
"26 370 OFFCURVE",
"26 295 CURVE SMOOTH",
"26 143 OFFCURVE",
"219 199 OFFCURVE",
"219 104 CURVE SMOOTH",
"219 81 OFFCURVE",
"204 57 OFFCURVE",
"159 57 CURVE SMOOTH",
"118 57 OFFCURVE",
"95 83 OFFCURVE",
"95 121 CURVE SMOOTH",
"95 123 OFFCURVE",
"96 129 OFFCURVE",
"96 130 CURVE",
"18 130 LINE",
"18 127 OFFCURVE",
"18 122 OFFCURVE",
"18 117 CURVE SMOOTH",
"18 35 OFFCURVE",
"82 -7 OFFCURVE",
"156 -7 CURVE SMOOTH",
"239 -7 OFFCURVE",
"297 28 OFFCURVE",
"297 120 CURVE SMOOTH",
"297 267 OFFCURVE",
"103 219 OFFCURVE",
"103 300 CURVE SMOOTH",
"103 324 OFFCURVE",
"123 343 OFFCURVE",
"158 343 CURVE SMOOTH",
"192 343 OFFCURVE",
"213 321 OFFCURVE",
"213 287 CURVE SMOOTH",
"213 282 LINE",
"289 282 LINE",
"289 289 LINE SMOOTH",
"289 371 OFFCURVE",
"230 407 OFFCURVE",
"159 407 CURVE SMOOTH"
);
},
{
closed = 1;
nodes = (
"239 515 LINE",
"169 515 LINE",
"119 438 LINE",
"177 438 LINE",
"240 513 LINE"
);
}
);
width = 319;
}
);
unicode = 015A;
},
{
glyphname = Scaron;
lastChange = "2015-01-27 09:06:03 +0000";
layers = (
{
layerId = "E0AA17FE-947E-4089-955E-70E92921D86D";
name = Regular;
paths = (
{
closed = 1;
nodes = (
"89 407 OFFCURVE",
"32 373 OFFCURVE",
"32 299 CURVE SMOOTH",
"32 155 OFFCURVE",
"240 208 OFFCURVE",
"240 107 CURVE SMOOTH",
"240 63 OFFCURVE",
"210 40 OFFCURVE",
"156 40 CURVE SMOOTH",
"111 40 OFFCURVE",
"77 63 OFFCURVE",
"77 113 CURVE SMOOTH",
"77 116 OFFCURVE",
"78 124 OFFCURVE",
"78 125 CURVE",
"24 125 LINE",
"24 123 OFFCURVE",
"24 117 OFFCURVE",
"24 113 CURVE SMOOTH",
"24 25 OFFCURVE",
"86 -7 OFFCURVE",
"158 -7 CURVE SMOOTH",
"236 -7 OFFCURVE",
"294 26 OFFCURVE",
"294 115 CURVE SMOOTH",
"294 256 OFFCURVE",
"86 208 OFFCURVE",
"86 304 CURVE SMOOTH",
"86 342 OFFCURVE",
"118 359 OFFCURVE",
"160 359 CURVE SMOOTH",
"200 359 OFFCURVE",
"231 337 OFFCURVE",
"231 296 CURVE SMOOTH",
"231 287 LINE",
"284 287 LINE",
"284 294 LINE SMOOTH",
"284 374 OFFCURVE",
"229 407 OFFCURVE",
"159 407 CURVE SMOOTH"
);
},
{
closed = 1;
nodes = (
"182 436 LINE",
"232 515 LINE",
"185 515 LINE",
"159 469 LINE",
"133 515 LINE",
"87 515 LINE",
"136 436 LINE"
);
}
);
width = 319;
},
{
layerId = "256C563F-4683-4C38-8505-F28FAA76841F";
name = Bold;
paths = (
{
closed = 1;
nodes = (
"88 407 OFFCURVE",
"26 370 OFFCURVE",
"26 295 CURVE SMOOTH",
"26 143 OFFCURVE",
"219 199 OFFCURVE",
"219 104 CURVE SMOOTH",
"219 81 OFFCURVE",
"204 57 OFFCURVE",
"159 57 CURVE SMOOTH",
"118 57 OFFCURVE",
"95 83 OFFCURVE",
"95 121 CURVE SMOOTH",
"95 123 OFFCURVE",
"96 129 OFFCURVE",
"96 130 CURVE",
"18 130 LINE",
"18 127 OFFCURVE",
"18 122 OFFCURVE",
"18 117 CURVE SMOOTH",
"18 35 OFFCURVE",
"82 -7 OFFCURVE",
"156 -7 CURVE SMOOTH",
"239 -7 OFFCURVE",
"297 28 OFFCURVE",
"297 120 CURVE SMOOTH",
"297 267 OFFCURVE",
"103 219 OFFCURVE",
"103 300 CURVE SMOOTH",
"103 324 OFFCURVE",
"123 343 OFFCURVE",
"158 343 CURVE SMOOTH",
"192 343 OFFCURVE",
"213 321 OFFCURVE",
"213 287 CURVE SMOOTH",
"213 282 LINE",
"289 282 LINE",
"289 289 LINE SMOOTH",
"289 371 OFFCURVE",
"230 407 OFFCURVE",
"159 407 CURVE SMOOTH"
);
},
{
closed = 1;
nodes = (
"188 436 LINE",
"238 515 LINE",
"185 515 LINE",
"159 474 LINE",
"133 515 LINE",
"81 515 LINE",
"131 436 LINE"
);
}
);
width = 319;
}
);
unicode = 0160;
},
{
glyphname = Scedilla;
lastChange = "2015-01-27 09:06:03 +0000";
layers = (
{
layerId = "E0AA17FE-947E-4089-955E-70E92921D86D";
name = Regular;
paths = (
{
closed = 1;
nodes = (
"89 407 OFFCURVE",
"32 373 OFFCURVE",
"32 299 CURVE SMOOTH",
"32 155 OFFCURVE",
"240 208 OFFCURVE",
"240 107 CURVE SMOOTH",
"240 63 OFFCURVE",
"210 40 OFFCURVE",
"156 40 CURVE SMOOTH",
"111 40 OFFCURVE",
"77 63 OFFCURVE",
"77 113 CURVE SMOOTH",
"77 116 OFFCURVE",
"78 124 OFFCURVE",
"78 125 CURVE",
"24 125 LINE",
"24 123 OFFCURVE",
"24 117 OFFCURVE",
"24 113 CURVE SMOOTH",
"24 34 OFFCURVE",
"73 0 OFFCURVE",
"137 -6 CURVE",
"131 -45 LINE",
"150 -45 LINE SMOOTH",
"165 -45 OFFCURVE",
"170 -49 OFFCURVE",
"170 -59 CURVE SMOOTH",
"170 -70 OFFCURVE",
"162 -73 OFFCURVE",
"149 -73 CURVE SMOOTH",
"105 -73 LINE",
"105 -101 LINE",
"119 -104 OFFCURVE",
"137 -106 OFFCURVE",
"154 -106 CURVE SMOOTH",
"177 -106 OFFCURVE",
"214 -98 OFFCURVE",
"214 -59 CURVE SMOOTH",
"214 -32 OFFCURVE",
"192 -22 OFFCURVE",
"167 -21 CURVE",
"169 -7 LINE",
"241 -3 OFFCURVE",
"294 30 OFFCURVE",
"294 115 CURVE SMOOTH",
"294 256 OFFCURVE",
"86 208 OFFCURVE",
"86 304 CURVE SMOOTH",
"86 342 OFFCURVE",
"118 359 OFFCURVE",
"160 359 CURVE SMOOTH",
"200 359 OFFCURVE",
"231 337 OFFCURVE",
"231 296 CURVE SMOOTH",
"231 287 LINE",
"284 287 LINE",
"284 294 LINE SMOOTH",
"284 374 OFFCURVE",
"229 407 OFFCURVE",
"159 407 CURVE SMOOTH"
);
}
);
width = 319;
},
{
layerId = "256C563F-4683-4C38-8505-F28FAA76841F";
name = Bold;
paths = (
{
closed = 1;
nodes = (
"88 407 OFFCURVE",
"26 370 OFFCURVE",
"26 295 CURVE SMOOTH",
"26 143 OFFCURVE",
"219 199 OFFCURVE",
"219 104 CURVE SMOOTH",
"219 81 OFFCURVE",
"204 57 OFFCURVE",
"159 57 CURVE SMOOTH",
"118 57 OFFCURVE",
"95 83 OFFCURVE",
"95 121 CURVE SMOOTH",
"95 123 OFFCURVE",
"96 129 OFFCURVE",
"96 130 CURVE",
"18 130 LINE",
"18 127 OFFCURVE",
"18 122 OFFCURVE",
"18 117 CURVE SMOOTH",
"18 43 OFFCURVE",
"68 3 OFFCURVE",
"131 -5 CURVE",
"127 -45 LINE",
"146 -45 LINE SMOOTH",
"161 -45 OFFCURVE",
"165 -49 OFFCURVE",
"165 -59 CURVE SMOOTH",
"165 -70 OFFCURVE",
"158 -73 OFFCURVE",
"144 -73 CURVE SMOOTH",
"103 -73 LINE",
"103 -101 LINE",
"117 -104 OFFCURVE",
"136 -106 OFFCURVE",
"152 -106 CURVE SMOOTH",
"177 -106 OFFCURVE",
"215 -98 OFFCURVE",
"215 -59 CURVE SMOOTH",
"215 -32 OFFCURVE",
"194 -21 OFFCURVE",
"169 -19 CURVE",
"171 -7 LINE",
"245 -2 OFFCURVE",
"297 34 OFFCURVE",
"297 120 CURVE SMOOTH",
"297 267 OFFCURVE",
"103 219 OFFCURVE",
"103 300 CURVE SMOOTH",
"103 324 OFFCURVE",
"123 343 OFFCURVE",
"158 343 CURVE SMOOTH",
"192 343 OFFCURVE",
"213 321 OFFCURVE",
"213 287 CURVE SMOOTH",
"213 282 LINE",
"289 282 LINE",
"289 289 LINE SMOOTH",
"289 371 OFFCURVE",
"230 407 OFFCURVE",
"159 407 CURVE SMOOTH"
);
}
);
width = 319;
}
);
unicode = 015E;
},
{
glyphname = Scircumflex;
lastChange = "2015-01-27 09:06:03 +0000";
layers = (
{
layerId = "E0AA17FE-947E-4089-955E-70E92921D86D";
name = Regular;
paths = (
{
closed = 1;
nodes = (
"89 407 OFFCURVE",
"32 373 OFFCURVE",
"32 299 CURVE SMOOTH",
"32 155 OFFCURVE",
"240 208 OFFCURVE",
"240 107 CURVE SMOOTH",
"240 63 OFFCURVE",
"210 40 OFFCURVE",
"156 40 CURVE SMOOTH",
"111 40 OFFCURVE",
"77 63 OFFCURVE",
"77 113 CURVE SMOOTH",
"77 116 OFFCURVE",
"78 124 OFFCURVE",
"78 125 CURVE",
"24 125 LINE",
"24 123 OFFCURVE",
"24 117 OFFCURVE",
"24 113 CURVE SMOOTH",
"24 25 OFFCURVE",
"86 -7 OFFCURVE",
"158 -7 CURVE SMOOTH",
"236 -7 OFFCURVE",
"294 26 OFFCURVE",
"294 115 CURVE SMOOTH",
"294 256 OFFCURVE",
"86 208 OFFCURVE",
"86 304 CURVE SMOOTH",
"86 342 OFFCURVE",
"118 359 OFFCURVE",
"160 359 CURVE SMOOTH",
"200 359 OFFCURVE",
"231 337 OFFCURVE",
"231 296 CURVE SMOOTH",
"231 287 LINE",
"284 287 LINE",
"284 294 LINE SMOOTH",
"284 374 OFFCURVE",
"229 407 OFFCURVE",
"159 407 CURVE SMOOTH"
);
},
{
closed = 1;
nodes = (
"232 435 LINE",
"183 514 LINE",
"137 514 LINE",
"87 435 LINE",
"133 435 LINE",
"159 481 LINE",
"185 435 LINE"
);
}
);
width = 319;
},
{
layerId = "256C563F-4683-4C38-8505-F28FAA76841F";
name = Bold;
paths = (
{
closed = 1;
nodes = (
"88 407 OFFCURVE",
"26 370 OFFCURVE",
"26 295 CURVE SMOOTH",
"26 143 OFFCURVE",
"219 199 OFFCURVE",
"219 104 CURVE SMOOTH",
"219 81 OFFCURVE",
"204 57 OFFCURVE",
"159 57 CURVE SMOOTH",
"118 57 OFFCURVE",
"95 83 OFFCURVE",
"95 121 CURVE SMOOTH",
"95 123 OFFCURVE",
"96 129 OFFCURVE",
"96 130 CURVE",
"18 130 LINE",
"18 127 OFFCURVE",
"18 122 OFFCURVE",
"18 117 CURVE SMOOTH",
"18 35 OFFCURVE",
"82 -7 OFFCURVE",
"156 -7 CURVE SMOOTH",
"239 -7 OFFCURVE",
"297 28 OFFCURVE",
"297 120 CURVE SMOOTH",
"297 267 OFFCURVE",
"103 219 OFFCURVE",
"103 300 CURVE SMOOTH",
"103 324 OFFCURVE",
"123 343 OFFCURVE",
"158 343 CURVE SMOOTH",
"192 343 OFFCURVE",
"213 321 OFFCURVE",
"213 287 CURVE SMOOTH",
"213 282 LINE",
"289 282 LINE",
"289 289 LINE SMOOTH",
"289 371 OFFCURVE",
"230 407 OFFCURVE",
"159 407 CURVE SMOOTH"
);
},
{
closed = 1;
nodes = (
"238 436 LINE",
"188 515 LINE",
"131 515 LINE",
"81 436 LINE",
"133 436 LINE",
"159 476 LINE",
"185 436 LINE"
);
}
);
width = 319;
}
);
unicode = 015C;
},
{
glyphname = T;
lastChange = "2015-01-27 09:06:03 +0000";
layers = (
{
anchors = (
{
name = bottom;
position = "{146, 0}";
},
{
name = center;
position = "{146, 200}";
},
{
name = top;
position = "{146, 399}";
}
);
layerId = "E0AA17FE-947E-4089-955E-70E92921D86D";
name = Regular;
paths = (
{
closed = 1;
nodes = (
"280 399 LINE",
"11 399 LINE",
"11 353 LINE",
"120 353 LINE",
"120 0 LINE",
"171 0 LINE",
"171 353 LINE",
"280 353 LINE"
);
}
);
width = 292;
},
{
anchors = (
{
name = bottom;
position = "{146, 0}";
},
{
name = center;
position = "{146, 200}";
},
{
name = top;
position = "{146, 399}";
}
);
layerId = "256C563F-4683-4C38-8505-F28FAA76841F";
name = Bold;
paths = (
{
closed = 1;
nodes = (
"283 399 LINE",
"10 399 LINE",
"10 333 LINE",
"109 333 LINE",
"109 0 LINE",
"183 0 LINE",
"183 333 LINE",
"283 333 LINE"
);
}
);
width = 292;
}
);
unicode = 0054;
},
{
glyphname = Tbar;
lastChange = "2015-01-27 09:06:03 +0000";
layers = (
{
layerId = "E0AA17FE-947E-4089-955E-70E92921D86D";
name = Regular;
paths = (
{
closed = 1;
nodes = (
"280 399 LINE",
"11 399 LINE",
"11 353 LINE",
"120 353 LINE",
"120 229 LINE",
"45 229 LINE",
"45 186 LINE",
"120 186 LINE",
"120 0 LINE",
"171 0 LINE",
"171 186 LINE",
"248 186 LINE",
"248 229 LINE",
"171 229 LINE",
"171 353 LINE",
"280 353 LINE"
);
}
);
width = 292;
},
{
layerId = "256C563F-4683-4C38-8505-F28FAA76841F";
name = Bold;
paths = (
{
closed = 1;
nodes = (
"283 399 LINE",
"10 399 LINE",
"10 333 LINE",
"109 333 LINE",
"109 229 LINE",
"43 229 LINE",
"43 179 LINE",
"109 179 LINE",
"109 0 LINE",
"183 0 LINE",
"183 179 LINE",
"248 179 LINE",
"248 229 LINE",
"183 229 LINE",
"183 333 LINE",
"283 333 LINE"
);
}
);
width = 292;
}
);
unicode = 0166;
},
{
glyphname = Tcaron;
lastChange = "2015-01-27 09:06:03 +0000";
layers = (
{
layerId = "E0AA17FE-947E-4089-955E-70E92921D86D";
name = Regular;
paths = (
{
closed = 1;
nodes = (
"280 399 LINE",
"11 399 LINE",
"11 353 LINE",
"120 353 LINE",
"120 0 LINE",
"171 0 LINE",
"171 353 LINE",
"280 353 LINE"
);
},
{
closed = 1;
nodes = (
"218 515 LINE",
"172 515 LINE",
"146 469 LINE",
"120 515 LINE",
"73 515 LINE",
"123 436 LINE",
"168 436 LINE"
);
}
);
width = 292;
},
{
layerId = "256C563F-4683-4C38-8505-F28FAA76841F";
name = Bold;
paths = (
{
closed = 1;
nodes = (
"283 399 LINE",
"10 399 LINE",
"10 333 LINE",
"109 333 LINE",
"109 0 LINE",
"183 0 LINE",
"183 333 LINE",
"283 333 LINE"
);
},
{
closed = 1;
nodes = (
"224 515 LINE",
"172 515 LINE",
"146 474 LINE",
"120 515 LINE",
"68 515 LINE",
"118 436 LINE",
"175 436 LINE"
);
}
);
width = 292;
}
);
unicode = 0164;
},
{
glyphname = Tcommaaccent;
lastChange = "2015-01-27 09:06:03 +0000";
layers = (
{
layerId = "E0AA17FE-947E-4089-955E-70E92921D86D";
name = Regular;
paths = (
{
closed = 1;
nodes = (
"280 399 LINE",
"11 399 LINE",
"11 353 LINE",
"120 353 LINE",
"120 0 LINE",
"171 0 LINE",
"171 353 LINE",
"280 353 LINE"
);
},
{
closed = 1;
nodes = (
"171 -35 LINE",
"121 -35 LINE",
"121 -88 LINE",
"141 -88 LINE",
"128 -129 LINE",
"154 -129 LINE",
"171 -84 LINE"
);
}
);
width = 292;
},
{
layerId = "256C563F-4683-4C38-8505-F28FAA76841F";
name = Bold;
paths = (
{
closed = 1;
nodes = (
"283 399 LINE",
"10 399 LINE",
"10 333 LINE",
"109 333 LINE",
"109 0 LINE",
"183 0 LINE",
"183 333 LINE",
"283 333 LINE"
);
},
{
closed = 1;
nodes = (
"182 -32 LINE",
"110 -32 LINE",
"110 -103 LINE",
"138 -103 LINE",
"118 -153 LINE",
"156 -153 LINE",
"182 -98 LINE"
);
}
);
width = 292;
}
);
unicode = 021A;
},
{
glyphname = U;
lastChange = "2015-01-27 09:06:03 +0000";
layers = (
{
anchors = (
{
name = ogonek;
position = "{310, 6}";
},
{
name = top;
position = "{173, 399}";
}
);
layerId = "E0AA17FE-947E-4089-955E-70E92921D86D";
name = Regular;
paths = (
{
closed = 1;
nodes = (
"304 399 LINE",
"253 399 LINE",
"253 127 LINE SMOOTH",
"253 71 OFFCURVE",
"223 40 OFFCURVE",
"173 40 CURVE SMOOTH",
"123 40 OFFCURVE",
"92 71 OFFCURVE",
"92 127 CURVE SMOOTH",
"92 399 LINE",
"41 399 LINE",
"41 130 LINE SMOOTH",
"41 40 OFFCURVE",
"90 -7 OFFCURVE",
"173 -7 CURVE SMOOTH",
"254 -7 OFFCURVE",
"304 40 OFFCURVE",
"304 130 CURVE SMOOTH"
);
}
);
width = 345;
},
{
anchors = (
{
name = ogonek;
position = "{310, 6}";
},
{
name = top;
position = "{173, 399}";
}
);
layerId = "256C563F-4683-4C38-8505-F28FAA76841F";
name = Bold;
paths = (
{
closed = 1;
nodes = (
"310 399 LINE",
"235 399 LINE",
"235 128 LINE SMOOTH",
"235 82 OFFCURVE",
"212 57 OFFCURVE",
"173 57 CURVE SMOOTH",
"133 57 OFFCURVE",
"110 82 OFFCURVE",
"110 128 CURVE SMOOTH",
"110 399 LINE",
"36 399 LINE",
"36 125 LINE SMOOTH",
"36 38 OFFCURVE",
"87 -7 OFFCURVE",
"173 -7 CURVE SMOOTH",
"258 -7 OFFCURVE",
"310 38 OFFCURVE",
"310 125 CURVE SMOOTH"
);
}
);
width = 345;
}
);
unicode = 0055;
},
{
glyphname = Uacute;
lastChange = "2015-01-27 09:06:03 +0000";
layers = (
{
layerId = "E0AA17FE-947E-4089-955E-70E92921D86D";
name = Regular;
paths = (
{
closed = 1;
nodes = (
"304 399 LINE",
"253 399 LINE",
"253 127 LINE SMOOTH",
"253 71 OFFCURVE",
"223 40 OFFCURVE",
"173 40 CURVE SMOOTH",
"123 40 OFFCURVE",
"92 71 OFFCURVE",
"92 127 CURVE SMOOTH",
"92 399 LINE",
"41 399 LINE",
"41 130 LINE SMOOTH",
"41 40 OFFCURVE",
"90 -7 OFFCURVE",
"173 -7 CURVE SMOOTH",
"254 -7 OFFCURVE",
"304 40 OFFCURVE",
"304 130 CURVE SMOOTH"
);
},
{
closed = 1;
nodes = (
"240 515 LINE",
"188 515 LINE",
"138 438 LINE",
"179 438 LINE",
"241 513 LINE"
);
}
);
width = 345;
},
{
layerId = "256C563F-4683-4C38-8505-F28FAA76841F";
name = Bold;
paths = (
{
closed = 1;
nodes = (
"310 399 LINE",
"235 399 LINE",
"235 128 LINE SMOOTH",
"235 82 OFFCURVE",
"212 57 OFFCURVE",
"173 57 CURVE SMOOTH",
"133 57 OFFCURVE",
"110 82 OFFCURVE",
"110 128 CURVE SMOOTH",
"110 399 LINE",
"36 399 LINE",
"36 125 LINE SMOOTH",
"36 38 OFFCURVE",
"87 -7 OFFCURVE",
"173 -7 CURVE SMOOTH",
"258 -7 OFFCURVE",
"310 38 OFFCURVE",
"310 125 CURVE SMOOTH"
);
},
{
closed = 1;
nodes = (
"252 515 LINE",
"183 515 LINE",
"132 438 LINE",
"190 438 LINE",
"253 513 LINE"
);
}
);
width = 345;
}
);
unicode = 00DA;
},
{
glyphname = Ubreve;
lastChange = "2015-01-27 09:06:03 +0000";
layers = (
{
layerId = "E0AA17FE-947E-4089-955E-70E92921D86D";
name = Regular;
paths = (
{
closed = 1;
nodes = (
"304 399 LINE",
"253 399 LINE",
"253 127 LINE SMOOTH",
"253 71 OFFCURVE",
"223 40 OFFCURVE",
"173 40 CURVE SMOOTH",
"123 40 OFFCURVE",
"92 71 OFFCURVE",
"92 127 CURVE SMOOTH",
"92 399 LINE",
"41 399 LINE",
"41 130 LINE SMOOTH",
"41 40 OFFCURVE",
"90 -7 OFFCURVE",
"173 -7 CURVE SMOOTH",
"254 -7 OFFCURVE",
"304 40 OFFCURVE",
"304 130 CURVE SMOOTH"
);
},
{
closed = 1;
nodes = (
"208 515 LINE",
"206 506 OFFCURVE",
"192 495 OFFCURVE",
"173 495 CURVE SMOOTH",
"153 495 OFFCURVE",
"140 506 OFFCURVE",
"138 515 CURVE",
"100 515 LINE",
"100 488 OFFCURVE",
"128 458 OFFCURVE",
"173 458 CURVE SMOOTH",
"217 458 OFFCURVE",
"244 488 OFFCURVE",
"244 515 CURVE"
);
}
);
width = 345;
},
{
layerId = "256C563F-4683-4C38-8505-F28FAA76841F";
name = Bold;
paths = (
{
closed = 1;
nodes = (
"310 399 LINE",
"235 399 LINE",
"235 128 LINE SMOOTH",
"235 82 OFFCURVE",
"212 57 OFFCURVE",
"173 57 CURVE SMOOTH",
"133 57 OFFCURVE",
"110 82 OFFCURVE",
"110 128 CURVE SMOOTH",
"110 399 LINE",
"36 399 LINE",
"36 125 LINE SMOOTH",
"36 38 OFFCURVE",
"87 -7 OFFCURVE",
"173 -7 CURVE SMOOTH",
"258 -7 OFFCURVE",
"310 38 OFFCURVE",
"310 125 CURVE SMOOTH"
);
},
{
closed = 1;
nodes = (
"207 515 LINE",
"206 506 OFFCURVE",
"192 495 OFFCURVE",
"172 495 CURVE SMOOTH",
"153 495 OFFCURVE",
"140 506 OFFCURVE",
"138 515 CURVE",
"95 515 LINE",
"95 485 OFFCURVE",
"124 452 OFFCURVE",
"172 452 CURVE SMOOTH",
"220 452 OFFCURVE",
"250 485 OFFCURVE",
"250 515 CURVE"
);
}
);
width = 345;
}
);
unicode = 016C;
},
{
glyphname = Ucircumflex;
lastChange = "2015-01-27 09:06:03 +0000";
layers = (
{
layerId = "E0AA17FE-947E-4089-955E-70E92921D86D";
name = Regular;
paths = (
{
closed = 1;
nodes = (
"304 399 LINE",
"253 399 LINE",
"253 127 LINE SMOOTH",
"253 71 OFFCURVE",
"223 40 OFFCURVE",
"173 40 CURVE SMOOTH",
"123 40 OFFCURVE",
"92 71 OFFCURVE",
"92 127 CURVE SMOOTH",
"92 399 LINE",
"41 399 LINE",
"41 130 LINE SMOOTH",
"41 40 OFFCURVE",
"90 -7 OFFCURVE",
"173 -7 CURVE SMOOTH",
"254 -7 OFFCURVE",
"304 40 OFFCURVE",
"304 130 CURVE SMOOTH"
);
},
{
closed = 1;
nodes = (
"195 514 LINE",
"150 514 LINE",
"100 435 LINE",
"146 435 LINE",
"173 481 LINE",
"198 435 LINE",
"245 435 LINE"
);
}
);
width = 345;
},
{
layerId = "256C563F-4683-4C38-8505-F28FAA76841F";
name = Bold;
paths = (
{
closed = 1;
nodes = (
"310 399 LINE",
"235 399 LINE",
"235 128 LINE SMOOTH",
"235 82 OFFCURVE",
"212 57 OFFCURVE",
"173 57 CURVE SMOOTH",
"133 57 OFFCURVE",
"110 82 OFFCURVE",
"110 128 CURVE SMOOTH",
"110 399 LINE",
"36 399 LINE",
"36 125 LINE SMOOTH",
"36 38 OFFCURVE",
"87 -7 OFFCURVE",
"173 -7 CURVE SMOOTH",
"258 -7 OFFCURVE",
"310 38 OFFCURVE",
"310 125 CURVE SMOOTH"
);
},
{
closed = 1;
nodes = (
"202 515 LINE",
"144 515 LINE",
"94 436 LINE",
"146 436 LINE",
"173 476 LINE",
"198 436 LINE",
"251 436 LINE"
);
}
);
width = 345;
}
);
unicode = 00DB;
},
{
glyphname = Udieresis;
lastChange = "2015-01-27 09:06:03 +0000";
layers = (
{
layerId = "E0AA17FE-947E-4089-955E-70E92921D86D";
name = Regular;
paths = (
{
closed = 1;
nodes = (
"304 399 LINE",
"253 399 LINE",
"253 127 LINE SMOOTH",
"253 71 OFFCURVE",
"223 40 OFFCURVE",
"173 40 CURVE SMOOTH",
"123 40 OFFCURVE",
"92 71 OFFCURVE",
"92 127 CURVE SMOOTH",
"92 399 LINE",
"41 399 LINE",
"41 130 LINE SMOOTH",
"41 40 OFFCURVE",
"90 -7 OFFCURVE",
"173 -7 CURVE SMOOTH",
"254 -7 OFFCURVE",
"304 40 OFFCURVE",
"304 130 CURVE SMOOTH"
);
},
{
closed = 1;
nodes = (
"154 515 LINE",
"103 515 LINE",
"103 459 LINE",
"154 459 LINE"
);
},
{
closed = 1;
nodes = (
"242 515 LINE",
"190 515 LINE",
"190 459 LINE",
"242 459 LINE"
);
}
);
width = 345;
},
{
layerId = "256C563F-4683-4C38-8505-F28FAA76841F";
name = Bold;
paths = (
{
closed = 1;
nodes = (
"310 399 LINE",
"235 399 LINE",
"235 128 LINE SMOOTH",
"235 82 OFFCURVE",
"212 57 OFFCURVE",
"173 57 CURVE SMOOTH",
"133 57 OFFCURVE",
"110 82 OFFCURVE",
"110 128 CURVE SMOOTH",
"110 399 LINE",
"36 399 LINE",
"36 125 LINE SMOOTH",
"36 38 OFFCURVE",
"87 -7 OFFCURVE",
"173 -7 CURVE SMOOTH",
"258 -7 OFFCURVE",
"310 38 OFFCURVE",
"310 125 CURVE SMOOTH"
);
},
{
closed = 1;
nodes = (
"151 515 LINE",
"93 515 LINE",
"93 451 LINE",
"151 451 LINE"
);
},
{
closed = 1;
nodes = (
"253 515 LINE",
"194 515 LINE",
"194 451 LINE",
"253 451 LINE"
);
}
);
width = 345;
}
);
unicode = 00DC;
},
{
glyphname = Ugrave;
lastChange = "2015-01-27 09:06:03 +0000";
layers = (
{
layerId = "E0AA17FE-947E-4089-955E-70E92921D86D";
name = Regular;
paths = (
{
closed = 1;
nodes = (
"304 399 LINE",
"253 399 LINE",
"253 127 LINE SMOOTH",
"253 71 OFFCURVE",
"223 40 OFFCURVE",
"173 40 CURVE SMOOTH",
"123 40 OFFCURVE",
"92 71 OFFCURVE",
"92 127 CURVE SMOOTH",
"92 399 LINE",
"41 399 LINE",
"41 130 LINE SMOOTH",
"41 40 OFFCURVE",
"90 -7 OFFCURVE",
"173 -7 CURVE SMOOTH",
"254 -7 OFFCURVE",
"304 40 OFFCURVE",
"304 130 CURVE SMOOTH"
);
},
{
closed = 1;
nodes = (
"158 515 LINE",
"104 515 LINE",
"103 513 LINE",
"167 438 LINE",
"207 438 LINE"
);
}
);
width = 345;
},
{
layerId = "256C563F-4683-4C38-8505-F28FAA76841F";
name = Bold;
paths = (
{
closed = 1;
nodes = (
"310 399 LINE",
"235 399 LINE",
"235 128 LINE SMOOTH",
"235 82 OFFCURVE",
"212 57 OFFCURVE",
"173 57 CURVE SMOOTH",
"133 57 OFFCURVE",
"110 82 OFFCURVE",
"110 128 CURVE SMOOTH",
"110 399 LINE",
"36 399 LINE",
"36 125 LINE SMOOTH",
"36 38 OFFCURVE",
"87 -7 OFFCURVE",
"173 -7 CURVE SMOOTH",
"258 -7 OFFCURVE",
"310 38 OFFCURVE",
"310 125 CURVE SMOOTH"
);
},
{
closed = 1;
nodes = (
"163 515 LINE",
"93 515 LINE",
"92 513 LINE",
"155 438 LINE",
"213 438 LINE"
);
}
);
width = 345;
}
);
unicode = 00D9;
},
{
glyphname = Uhungarumlaut;
lastChange = "2015-01-27 09:06:03 +0000";
layers = (
{
layerId = "E0AA17FE-947E-4089-955E-70E92921D86D";
name = Regular;
paths = (
{
closed = 1;
nodes = (
"304 399 LINE",
"253 399 LINE",
"253 127 LINE SMOOTH",
"253 71 OFFCURVE",
"223 40 OFFCURVE",
"173 40 CURVE SMOOTH",
"123 40 OFFCURVE",
"92 71 OFFCURVE",
"92 127 CURVE SMOOTH",
"92 399 LINE",
"41 399 LINE",
"41 130 LINE SMOOTH",
"41 40 OFFCURVE",
"90 -7 OFFCURVE",
"173 -7 CURVE SMOOTH",
"254 -7 OFFCURVE",
"304 40 OFFCURVE",
"304 130 CURVE SMOOTH"
);
},
{
closed = 1;
nodes = (
"205 515 LINE",
"153 515 LINE",
"117 438 LINE",
"157 438 LINE",
"206 513 LINE"
);
},
{
closed = 1;
nodes = (
"281 515 LINE",
"229 515 LINE",
"193 438 LINE",
"233 438 LINE",
"281 513 LINE"
);
}
);
width = 345;
},
{
layerId = "256C563F-4683-4C38-8505-F28FAA76841F";
name = Bold;
paths = (
{
closed = 1;
nodes = (
"310 399 LINE",
"235 399 LINE",
"235 128 LINE SMOOTH",
"235 82 OFFCURVE",
"212 57 OFFCURVE",
"173 57 CURVE SMOOTH",
"133 57 OFFCURVE",
"110 82 OFFCURVE",
"110 128 CURVE SMOOTH",
"110 399 LINE",
"36 399 LINE",
"36 125 LINE SMOOTH",
"36 38 OFFCURVE",
"87 -7 OFFCURVE",
"173 -7 CURVE SMOOTH",
"258 -7 OFFCURVE",
"310 38 OFFCURVE",
"310 125 CURVE SMOOTH"
);
},
{
closed = 1;
nodes = (
"201 515 LINE",
"143 515 LINE",
"107 438 LINE",
"153 438 LINE",
"202 513 LINE"
);
},
{
closed = 1;
nodes = (
"283 515 LINE",
"224 515 LINE",
"188 438 LINE",
"234 438 LINE",
"283 513 LINE"
);
}
);
width = 345;
}
);
unicode = 0170;
},
{
glyphname = Umacron;
lastChange = "2015-01-27 09:06:03 +0000";
layers = (
{
layerId = "E0AA17FE-947E-4089-955E-70E92921D86D";
name = Regular;
paths = (
{
closed = 1;
nodes = (
"304 399 LINE",
"253 399 LINE",
"253 127 LINE SMOOTH",
"253 71 OFFCURVE",
"223 40 OFFCURVE",
"173 40 CURVE SMOOTH",
"123 40 OFFCURVE",
"92 71 OFFCURVE",
"92 127 CURVE SMOOTH",
"92 399 LINE",
"41 399 LINE",
"41 130 LINE SMOOTH",
"41 40 OFFCURVE",
"90 -7 OFFCURVE",
"173 -7 CURVE SMOOTH",
"254 -7 OFFCURVE",
"304 40 OFFCURVE",
"304 130 CURVE SMOOTH"
);
},
{
closed = 1;
nodes = (
"245 484 LINE",
"100 484 LINE",
"100 442 LINE",
"245 442 LINE"
);
}
);
width = 345;
},
{
layerId = "256C563F-4683-4C38-8505-F28FAA76841F";
name = Bold;
paths = (
{
closed = 1;
nodes = (
"310 399 LINE",
"235 399 LINE",
"235 128 LINE SMOOTH",
"235 82 OFFCURVE",
"212 57 OFFCURVE",
"173 57 CURVE SMOOTH",
"133 57 OFFCURVE",
"110 82 OFFCURVE",
"110 128 CURVE SMOOTH",
"110 399 LINE",
"36 399 LINE",
"36 125 LINE SMOOTH",
"36 38 OFFCURVE",
"87 -7 OFFCURVE",
"173 -7 CURVE SMOOTH",
"258 -7 OFFCURVE",
"310 38 OFFCURVE",
"310 125 CURVE SMOOTH"
);
},
{
closed = 1;
nodes = (
"247 493 LINE",
"98 493 LINE",
"98 442 LINE",
"247 442 LINE"
);
}
);
width = 345;
}
);
unicode = 016A;
},
{
glyphname = Uogonek;
lastChange = "2015-01-27 09:06:03 +0000";
layers = (
{
layerId = "E0AA17FE-947E-4089-955E-70E92921D86D";
name = Regular;
paths = (
{
closed = 1;
nodes = (
"304 399 LINE",
"253 399 LINE",
"253 127 LINE SMOOTH",
"253 71 OFFCURVE",
"223 40 OFFCURVE",
"173 40 CURVE SMOOTH",
"123 40 OFFCURVE",
"92 71 OFFCURVE",
"92 127 CURVE SMOOTH",
"92 399 LINE",
"41 399 LINE",
"41 130 LINE SMOOTH",
"41 40 OFFCURVE",
"90 -7 OFFCURVE",
"173 -7 CURVE SMOOTH",
"183 -7 OFFCURVE",
"189 -7 OFFCURVE",
"196 -5 CURVE",
"194 3 LINE",
"181 -11 OFFCURVE",
"170 -28 OFFCURVE",
"170 -53 CURVE SMOOTH",
"170 -94 OFFCURVE",
"200 -106 OFFCURVE",
"225 -106 CURVE SMOOTH",
"237 -106 OFFCURVE",
"248 -103 OFFCURVE",
"260 -98 CURVE",
"260 -68 LINE",
"243 -68 LINE SMOOTH",
"223 -68 OFFCURVE",
"215 -53 OFFCURVE",
"215 -36 CURVE SMOOTH",
"215 -20 OFFCURVE",
"224 -5 OFFCURVE",
"231 3 CURVE",
"277 22 OFFCURVE",
"304 64 OFFCURVE",
"304 130 CURVE SMOOTH"
);
}
);
width = 345;
},
{
layerId = "256C563F-4683-4C38-8505-F28FAA76841F";
name = Bold;
paths = (
{
closed = 1;
nodes = (
"310 399 LINE",
"235 399 LINE",
"235 132 LINE SMOOTH",
"235 83 OFFCURVE",
"212 57 OFFCURVE",
"173 57 CURVE SMOOTH",
"133 57 OFFCURVE",
"110 83 OFFCURVE",
"110 132 CURVE SMOOTH",
"110 399 LINE",
"36 399 LINE",
"36 130 LINE SMOOTH",
"36 40 OFFCURVE",
"87 -7 OFFCURVE",
"173 -7 CURVE SMOOTH",
"185 -7 OFFCURVE",
"196 -7 OFFCURVE",
"208 -5 CURVE",
"191 7 LINE",
"175 -8 OFFCURVE",
"161 -26 OFFCURVE",
"161 -55 CURVE SMOOTH",
"161 -96 OFFCURVE",
"192 -108 OFFCURVE",
"219 -108 CURVE SMOOTH",
"232 -108 OFFCURVE",
"244 -105 OFFCURVE",
"258 -100 CURVE",
"258 -68 LINE",
"244 -68 LINE SMOOTH",
"225 -68 OFFCURVE",
"218 -53 OFFCURVE",
"218 -38 CURVE SMOOTH",
"218 -22 OFFCURVE",
"229 -5 OFFCURVE",
"236 3 CURVE",
"283 21 OFFCURVE",
"310 64 OFFCURVE",
"310 130 CURVE SMOOTH"
);
}
);
width = 345;
}
);
unicode = 0172;
},
{
glyphname = Uring;
lastChange = "2015-01-27 09:06:03 +0000";
layers = (
{
layerId = "E0AA17FE-947E-4089-955E-70E92921D86D";
name = Regular;
paths = (
{
closed = 1;
nodes = (
"304 399 LINE",
"253 399 LINE",
"253 127 LINE SMOOTH",
"253 71 OFFCURVE",
"223 40 OFFCURVE",
"173 40 CURVE SMOOTH",
"123 40 OFFCURVE",
"92 71 OFFCURVE",
"92 127 CURVE SMOOTH",
"92 399 LINE",
"41 399 LINE",
"41 130 LINE SMOOTH",
"41 40 OFFCURVE",
"90 -7 OFFCURVE",
"173 -7 CURVE SMOOTH",
"254 -7 OFFCURVE",
"304 40 OFFCURVE",
"304 130 CURVE SMOOTH"
);
},
{
closed = 1;
nodes = (
"142 533 OFFCURVE",
"117 508 OFFCURVE",
"117 477 CURVE SMOOTH",
"117 445 OFFCURVE",
"142 421 OFFCURVE",
"173 421 CURVE SMOOTH",
"204 421 OFFCURVE",
"229 446 OFFCURVE",
"229 477 CURVE SMOOTH",
"229 507 OFFCURVE",
"204 533 OFFCURVE",
"173 533 CURVE SMOOTH"
);
},
{
closed = 1;
nodes = (
"188 507 OFFCURVE",
"202 494 OFFCURVE",
"202 477 CURVE SMOOTH",
"202 461 OFFCURVE",
"188 447 OFFCURVE",
"173 447 CURVE SMOOTH",
"156 447 OFFCURVE",
"143 461 OFFCURVE",
"143 477 CURVE SMOOTH",
"143 494 OFFCURVE",
"156 507 OFFCURVE",
"173 507 CURVE SMOOTH"
);
}
);
width = 345;
},
{
layerId = "256C563F-4683-4C38-8505-F28FAA76841F";
name = Bold;
paths = (
{
closed = 1;
nodes = (
"310 399 LINE",
"235 399 LINE",
"235 128 LINE SMOOTH",
"235 82 OFFCURVE",
"212 57 OFFCURVE",
"173 57 CURVE SMOOTH",
"133 57 OFFCURVE",
"110 82 OFFCURVE",
"110 128 CURVE SMOOTH",
"110 399 LINE",
"36 399 LINE",
"36 125 LINE SMOOTH",
"36 38 OFFCURVE",
"87 -7 OFFCURVE",
"173 -7 CURVE SMOOTH",
"258 -7 OFFCURVE",
"310 38 OFFCURVE",
"310 125 CURVE SMOOTH"
);
},
{
closed = 1;
nodes = (
"142 532 OFFCURVE",
"117 507 OFFCURVE",
"117 476 CURVE SMOOTH",
"117 444 OFFCURVE",
"142 420 OFFCURVE",
"173 420 CURVE SMOOTH",
"204 420 OFFCURVE",
"229 445 OFFCURVE",
"229 476 CURVE SMOOTH",
"229 506 OFFCURVE",
"204 532 OFFCURVE",
"173 532 CURVE SMOOTH"
);
},
{
closed = 1;
nodes = (
"187 503 OFFCURVE",
"199 491 OFFCURVE",
"199 476 CURVE SMOOTH",
"199 461 OFFCURVE",
"187 449 OFFCURVE",
"173 449 CURVE SMOOTH",
"158 449 OFFCURVE",
"146 461 OFFCURVE",
"146 476 CURVE SMOOTH",
"146 491 OFFCURVE",
"158 503 OFFCURVE",
"173 503 CURVE SMOOTH"
);
}
);
width = 345;
}
);
unicode = 016E;
},
{
glyphname = Utilde;
lastChange = "2015-01-27 09:06:03 +0000";
layers = (
{
layerId = "E0AA17FE-947E-4089-955E-70E92921D86D";
name = Regular;
paths = (
{
closed = 1;
nodes = (
"304 399 LINE",
"253 399 LINE",
"253 127 LINE SMOOTH",
"253 71 OFFCURVE",
"223 40 OFFCURVE",
"173 40 CURVE SMOOTH",
"123 40 OFFCURVE",
"92 71 OFFCURVE",
"92 127 CURVE SMOOTH",
"92 399 LINE",
"41 399 LINE",
"41 130 LINE SMOOTH",
"41 40 OFFCURVE",
"90 -7 OFFCURVE",
"173 -7 CURVE SMOOTH",
"254 -7 OFFCURVE",
"304 40 OFFCURVE",
"304 130 CURVE SMOOTH"
);
},
{
closed = 1;
nodes = (
"223 515 LINE",
"222 501 OFFCURVE",
"214 497 OFFCURVE",
"204 497 CURVE SMOOTH",
"181 497 OFFCURVE",
"162 515 OFFCURVE",
"137 515 CURVE SMOOTH",
"102 515 OFFCURVE",
"88 480 OFFCURVE",
"88 454 CURVE",
"121 454 LINE",
"123 467 OFFCURVE",
"130 472 OFFCURVE",
"141 472 CURVE SMOOTH",
"163 472 OFFCURVE",
"183 454 OFFCURVE",
"208 454 CURVE SMOOTH",
"243 454 OFFCURVE",
"258 488 OFFCURVE",
"258 515 CURVE"
);
}
);
width = 345;
},
{
layerId = "256C563F-4683-4C38-8505-F28FAA76841F";
name = Bold;
paths = (
{
closed = 1;
nodes = (
"310 399 LINE",
"235 399 LINE",
"235 128 LINE SMOOTH",
"235 82 OFFCURVE",
"212 57 OFFCURVE",
"173 57 CURVE SMOOTH",
"133 57 OFFCURVE",
"110 82 OFFCURVE",
"110 128 CURVE SMOOTH",
"110 399 LINE",
"36 399 LINE",
"36 125 LINE SMOOTH",
"36 38 OFFCURVE",
"87 -7 OFFCURVE",
"173 -7 CURVE SMOOTH",
"258 -7 OFFCURVE",
"310 38 OFFCURVE",
"310 125 CURVE SMOOTH"
);
},
{
closed = 1;
nodes = (
"232 515 LINE",
"229 498 OFFCURVE",
"221 493 OFFCURVE",
"209 493 CURVE SMOOTH",
"183 493 OFFCURVE",
"160 515 OFFCURVE",
"132 515 CURVE SMOOTH",
"91 515 OFFCURVE",
"74 475 OFFCURVE",
"74 444 CURVE",
"113 444 LINE",
"115 459 OFFCURVE",
"123 465 OFFCURVE",
"136 465 CURVE SMOOTH",
"162 465 OFFCURVE",
"185 444 OFFCURVE",
"213 444 CURVE SMOOTH",
"254 444 OFFCURVE",
"270 482 OFFCURVE",
"270 515 CURVE"
);
}
);
width = 345;
}
);
unicode = 0168;
},
{
glyphname = V;
lastChange = "2015-01-27 09:06:03 +0000";
layers = (
{
layerId = "E0AA17FE-947E-4089-955E-70E92921D86D";
name = Regular;
paths = (
{
closed = 1;
nodes = (
"192 0 LINE",
"314 399 LINE",
"264 399 LINE",
"163 57 LINE",
"160 57 LINE",
"61 399 LINE",
"5 399 LINE",
"127 0 LINE"
);
}
);
width = 319;
},
{
layerId = "256C563F-4683-4C38-8505-F28FAA76841F";
name = Bold;
paths = (
{
closed = 1;
nodes = (
"197 0 LINE",
"319 399 LINE",
"246 399 LINE",
"163 113 LINE",
"161 113 LINE",
"77 399 LINE",
"0 399 LINE",
"122 0 LINE"
);
}
);
width = 319;
}
);
unicode = 0056;
},
{
glyphname = W;
lastChange = "2015-01-27 09:06:03 +0000";
layers = (
{
anchors = (
{
name = top;
position = "{225, 399}";
}
);
layerId = "E0AA17FE-947E-4089-955E-70E92921D86D";
name = Regular;
paths = (
{
closed = 1;
nodes = (
"353 0 LINE",
"445 399 LINE",
"399 399 LINE",
"337 123 LINE SMOOTH",
"331 98 OFFCURVE",
"325 53 OFFCURVE",
"325 53 CURVE SMOOTH",
"323 53 LINE SMOOTH",
"323 53 OFFCURVE",
"318 94 OFFCURVE",
"312 123 CURVE SMOOTH",
"263 399 LINE",
"192 399 LINE",
"146 123 LINE SMOOTH",
"140 88 OFFCURVE",
"136 53 OFFCURVE",
"136 53 CURVE SMOOTH",
"133 53 LINE SMOOTH",
"133 53 OFFCURVE",
"127 100 OFFCURVE",
"121 123 CURVE SMOOTH",
"60 399 LINE",
"6 399 LINE",
"98 0 LINE",
"165 0 LINE",
"213 271 LINE SMOOTH",
"217 298 OFFCURVE",
"223 351 OFFCURVE",
"223 351 CURVE",
"226 351 LINE",
"226 351 OFFCURVE",
"233 298 OFFCURVE",
"237 271 CURVE SMOOTH",
"286 0 LINE"
);
}
);
width = 451;
},
{
anchors = (
{
name = top;
position = "{225, 399}";
}
);
layerId = "256C563F-4683-4C38-8505-F28FAA76841F";
name = Bold;
paths = (
{
closed = 1;
nodes = (
"364 0 LINE",
"450 399 LINE",
"386 399 LINE",
"337 154 LINE SMOOTH",
"333 134 OFFCURVE",
"329 98 OFFCURVE",
"329 98 CURVE SMOOTH",
"328 98 LINE SMOOTH",
"328 98 OFFCURVE",
"323 138 OFFCURVE",
"320 154 CURVE SMOOTH",
"272 399 LINE",
"188 399 LINE",
"139 154 LINE SMOOTH",
"136 137 OFFCURVE",
"132 98 OFFCURVE",
"132 98 CURVE SMOOTH",
"129 98 LINE SMOOTH",
"129 98 OFFCURVE",
"125 136 OFFCURVE",
"122 154 CURVE SMOOTH",
"74 399 LINE",
"0 399 LINE",
"87 0 LINE",
"162 0 LINE",
"215 254 LINE SMOOTH",
"219 272 OFFCURVE",
"223 311 OFFCURVE",
"223 311 CURVE",
"226 311 LINE",
"226 311 OFFCURVE",
"229 275 OFFCURVE",
"234 254 CURVE SMOOTH",
"289 0 LINE"
);
}
);
width = 451;
}
);
unicode = 0057;
},
{
glyphname = Wacute;
lastChange = "2015-01-27 09:06:03 +0000";
layers = (
{
layerId = "E0AA17FE-947E-4089-955E-70E92921D86D";
name = Regular;
paths = (
{
closed = 1;
nodes = (
"445 399 LINE",
"399 399 LINE",
"337 123 LINE SMOOTH",
"331 98 OFFCURVE",
"325 53 OFFCURVE",
"325 53 CURVE SMOOTH",
"323 53 LINE SMOOTH",
"323 53 OFFCURVE",
"318 94 OFFCURVE",
"312 123 CURVE SMOOTH",
"263 399 LINE",
"192 399 LINE",
"146 123 LINE SMOOTH",
"140 88 OFFCURVE",
"136 53 OFFCURVE",
"136 53 CURVE SMOOTH",
"133 53 LINE SMOOTH",
"133 53 OFFCURVE",
"127 100 OFFCURVE",
"121 123 CURVE SMOOTH",
"60 399 LINE",
"6 399 LINE",
"98 0 LINE",
"165 0 LINE",
"213 271 LINE SMOOTH",
"217 298 OFFCURVE",
"223 351 OFFCURVE",
"223 351 CURVE",
"226 351 LINE",
"226 351 OFFCURVE",
"233 298 OFFCURVE",
"237 271 CURVE SMOOTH",
"286 0 LINE",
"353 0 LINE"
);
},
{
closed = 1;
nodes = (
"293 515 LINE",
"241 515 LINE",
"191 438 LINE",
"231 438 LINE",
"294 513 LINE"
);
}
);
width = 451;
},
{
layerId = "256C563F-4683-4C38-8505-F28FAA76841F";
name = Bold;
paths = (
{
closed = 1;
nodes = (
"450 399 LINE",
"386 399 LINE",
"337 154 LINE SMOOTH",
"333 134 OFFCURVE",
"329 98 OFFCURVE",
"329 98 CURVE SMOOTH",
"328 98 LINE SMOOTH",
"328 98 OFFCURVE",
"323 138 OFFCURVE",
"320 154 CURVE SMOOTH",
"272 399 LINE",
"188 399 LINE",
"139 154 LINE SMOOTH",
"136 137 OFFCURVE",
"132 98 OFFCURVE",
"132 98 CURVE SMOOTH",
"129 98 LINE SMOOTH",
"129 98 OFFCURVE",
"125 136 OFFCURVE",
"122 154 CURVE SMOOTH",
"74 399 LINE",
"0 399 LINE",
"87 0 LINE",
"162 0 LINE",
"215 254 LINE SMOOTH",
"219 272 OFFCURVE",
"223 311 OFFCURVE",
"223 311 CURVE",
"226 311 LINE",
"226 311 OFFCURVE",
"229 275 OFFCURVE",
"234 254 CURVE SMOOTH",
"289 0 LINE",
"364 0 LINE"
);
},
{
closed = 1;
nodes = (
"305 515 LINE",
"235 515 LINE",
"185 438 LINE",
"243 438 LINE",
"306 513 LINE"
);
}
);
width = 451;
}
);
unicode = 1E82;
},
{
glyphname = Wcircumflex;
lastChange = "2015-01-27 09:06:03 +0000";
layers = (
{
layerId = "E0AA17FE-947E-4089-955E-70E92921D86D";
name = Regular;
paths = (
{
closed = 1;
nodes = (
"353 0 LINE",
"445 399 LINE",
"399 399 LINE",
"337 123 LINE SMOOTH",
"331 98 OFFCURVE",
"325 53 OFFCURVE",
"325 53 CURVE SMOOTH",
"323 53 LINE SMOOTH",
"323 53 OFFCURVE",
"318 94 OFFCURVE",
"312 123 CURVE SMOOTH",
"263 399 LINE",
"192 399 LINE",
"146 123 LINE SMOOTH",
"140 88 OFFCURVE",
"136 53 OFFCURVE",
"136 53 CURVE SMOOTH",
"133 53 LINE SMOOTH",
"133 53 OFFCURVE",
"127 100 OFFCURVE",
"121 123 CURVE SMOOTH",
"60 399 LINE",
"6 399 LINE",
"98 0 LINE",
"165 0 LINE",
"213 271 LINE SMOOTH",
"217 298 OFFCURVE",
"223 351 OFFCURVE",
"223 351 CURVE",
"226 351 LINE",
"226 351 OFFCURVE",
"233 298 OFFCURVE",
"237 271 CURVE SMOOTH",
"286 0 LINE"
);
},
{
closed = 1;
nodes = (
"299 435 LINE",
"248 514 LINE",
"204 514 LINE",
"153 435 LINE",
"200 435 LINE",
"226 481 LINE",
"252 435 LINE"
);
}
);
width = 451;
},
{
layerId = "256C563F-4683-4C38-8505-F28FAA76841F";
name = Bold;
paths = (
{
closed = 1;
nodes = (
"364 0 LINE",
"450 399 LINE",
"386 399 LINE",
"337 154 LINE SMOOTH",
"333 134 OFFCURVE",
"329 98 OFFCURVE",
"329 98 CURVE SMOOTH",
"328 98 LINE SMOOTH",
"328 98 OFFCURVE",
"323 138 OFFCURVE",
"320 154 CURVE SMOOTH",
"272 399 LINE",
"188 399 LINE",
"139 154 LINE SMOOTH",
"136 137 OFFCURVE",
"132 98 OFFCURVE",
"132 98 CURVE SMOOTH",
"129 98 LINE SMOOTH",
"129 98 OFFCURVE",
"125 136 OFFCURVE",
"122 154 CURVE SMOOTH",
"74 399 LINE",
"0 399 LINE",
"87 0 LINE",
"162 0 LINE",
"215 254 LINE SMOOTH",
"219 272 OFFCURVE",
"223 311 OFFCURVE",
"223 311 CURVE",
"226 311 LINE",
"226 311 OFFCURVE",
"229 275 OFFCURVE",
"234 254 CURVE SMOOTH",
"289 0 LINE"
);
},
{
closed = 1;
nodes = (
"304 436 LINE",
"254 515 LINE",
"198 515 LINE",
"148 436 LINE",
"200 436 LINE",
"226 476 LINE",
"252 436 LINE"
);
}
);
width = 451;
}
);
unicode = 0174;
},
{
glyphname = Wdieresis;
lastChange = "2015-01-27 09:06:03 +0000";
layers = (
{
layerId = "E0AA17FE-947E-4089-955E-70E92921D86D";
name = Regular;
paths = (
{
closed = 1;
nodes = (
"445 399 LINE",
"399 399 LINE",
"337 123 LINE SMOOTH",
"331 98 OFFCURVE",
"325 53 OFFCURVE",
"325 53 CURVE SMOOTH",
"323 53 LINE SMOOTH",
"323 53 OFFCURVE",
"318 94 OFFCURVE",
"312 123 CURVE SMOOTH",
"263 399 LINE",
"192 399 LINE",
"146 123 LINE SMOOTH",
"140 88 OFFCURVE",
"136 53 OFFCURVE",
"136 53 CURVE SMOOTH",
"133 53 LINE SMOOTH",
"133 53 OFFCURVE",
"127 100 OFFCURVE",
"121 123 CURVE SMOOTH",
"60 399 LINE",
"6 399 LINE",
"98 0 LINE",
"165 0 LINE",
"213 271 LINE SMOOTH",
"217 298 OFFCURVE",
"223 351 OFFCURVE",
"223 351 CURVE",
"226 351 LINE",
"226 351 OFFCURVE",
"233 298 OFFCURVE",
"237 271 CURVE SMOOTH",
"286 0 LINE",
"353 0 LINE"
);
},
{
closed = 1;
nodes = (
"207 515 LINE",
"157 515 LINE",
"157 459 LINE",
"207 459 LINE"
);
},
{
closed = 1;
nodes = (
"295 515 LINE",
"244 515 LINE",
"244 459 LINE",
"295 459 LINE"
);
}
);
width = 451;
},
{
layerId = "256C563F-4683-4C38-8505-F28FAA76841F";
name = Bold;
paths = (
{
closed = 1;
nodes = (
"450 399 LINE",
"386 399 LINE",
"337 154 LINE SMOOTH",
"333 134 OFFCURVE",
"329 98 OFFCURVE",
"329 98 CURVE SMOOTH",
"328 98 LINE SMOOTH",
"328 98 OFFCURVE",
"323 138 OFFCURVE",
"320 154 CURVE SMOOTH",
"272 399 LINE",
"188 399 LINE",
"139 154 LINE SMOOTH",
"136 137 OFFCURVE",
"132 98 OFFCURVE",
"132 98 CURVE SMOOTH",
"129 98 LINE SMOOTH",
"129 98 OFFCURVE",
"125 136 OFFCURVE",
"122 154 CURVE SMOOTH",
"74 399 LINE",
"0 399 LINE",
"87 0 LINE",
"162 0 LINE",
"215 254 LINE SMOOTH",
"219 272 OFFCURVE",
"223 311 OFFCURVE",
"223 311 CURVE",
"226 311 LINE",
"226 311 OFFCURVE",
"229 275 OFFCURVE",
"234 254 CURVE SMOOTH",
"289 0 LINE",
"364 0 LINE"
);
},
{
closed = 1;
nodes = (
"204 515 LINE",
"146 515 LINE",
"146 451 LINE",
"204 451 LINE"
);
},
{
closed = 1;
nodes = (
"306 515 LINE",
"248 515 LINE",
"248 451 LINE",
"306 451 LINE"
);
}
);
width = 451;
}
);
unicode = 1E84;
},
{
glyphname = Wgrave;
lastChange = "2015-01-27 09:06:03 +0000";
layers = (
{
layerId = "E0AA17FE-947E-4089-955E-70E92921D86D";
name = Regular;
paths = (
{
closed = 1;
nodes = (
"445 399 LINE",
"399 399 LINE",
"337 123 LINE SMOOTH",
"331 98 OFFCURVE",
"325 53 OFFCURVE",
"325 53 CURVE SMOOTH",
"323 53 LINE SMOOTH",
"323 53 OFFCURVE",
"318 94 OFFCURVE",
"312 123 CURVE SMOOTH",
"263 399 LINE",
"192 399 LINE",
"146 123 LINE SMOOTH",
"140 88 OFFCURVE",
"136 53 OFFCURVE",
"136 53 CURVE SMOOTH",
"133 53 LINE SMOOTH",
"133 53 OFFCURVE",
"127 100 OFFCURVE",
"121 123 CURVE SMOOTH",
"60 399 LINE",
"6 399 LINE",
"98 0 LINE",
"165 0 LINE",
"213 271 LINE SMOOTH",
"217 298 OFFCURVE",
"223 351 OFFCURVE",
"223 351 CURVE",
"226 351 LINE",
"226 351 OFFCURVE",
"233 298 OFFCURVE",
"237 271 CURVE SMOOTH",
"286 0 LINE",
"353 0 LINE"
);
},
{
closed = 1;
nodes = (
"210 515 LINE",
"158 515 LINE",
"158 513 LINE",
"220 438 LINE",
"260 438 LINE"
);
}
);
width = 451;
},
{
layerId = "256C563F-4683-4C38-8505-F28FAA76841F";
name = Bold;
paths = (
{
closed = 1;
nodes = (
"450 399 LINE",
"386 399 LINE",
"337 154 LINE SMOOTH",
"333 134 OFFCURVE",
"329 98 OFFCURVE",
"329 98 CURVE SMOOTH",
"328 98 LINE SMOOTH",
"328 98 OFFCURVE",
"323 138 OFFCURVE",
"320 154 CURVE SMOOTH",
"272 399 LINE",
"188 399 LINE",
"139 154 LINE SMOOTH",
"136 137 OFFCURVE",
"132 98 OFFCURVE",
"132 98 CURVE SMOOTH",
"129 98 LINE SMOOTH",
"129 98 OFFCURVE",
"125 136 OFFCURVE",
"122 154 CURVE SMOOTH",
"74 399 LINE",
"0 399 LINE",
"87 0 LINE",
"162 0 LINE",
"215 254 LINE SMOOTH",
"219 272 OFFCURVE",
"223 311 OFFCURVE",
"223 311 CURVE",
"226 311 LINE",
"226 311 OFFCURVE",
"229 275 OFFCURVE",
"234 254 CURVE SMOOTH",
"289 0 LINE",
"364 0 LINE"
);
},
{
closed = 1;
nodes = (
"215 515 LINE",
"146 515 LINE",
"145 513 LINE",
"208 438 LINE",
"266 438 LINE"
);
}
);
width = 451;
}
);
unicode = 1E80;
},
{
glyphname = X;
lastChange = "2015-01-27 09:06:03 +0000";
layers = (
{
layerId = "E0AA17FE-947E-4089-955E-70E92921D86D";
name = Regular;
paths = (
{
closed = 1;
nodes = (
"304 399 LINE",
"248 399 LINE",
"159 254 LINE",
"163 254 LINE",
"74 399 LINE",
"14 399 LINE",
"130 208 LINE",
"3 0 LINE",
"57 0 LINE",
"159 165 LINE",
"156 165 LINE",
"256 0 LINE",
"316 0 LINE",
"188 212 LINE"
);
}
);
width = 319;
},
{
layerId = "256C563F-4683-4C38-8505-F28FAA76841F";
name = Bold;
paths = (
{
closed = 1;
nodes = (
"308 399 LINE",
"230 399 LINE",
"163 269 LINE",
"161 269 LINE",
"94 399 LINE",
"11 399 LINE",
"113 210 LINE",
"0 0 LINE",
"78 0 LINE",
"155 151 LINE",
"158 151 LINE",
"235 0 LINE",
"318 0 LINE",
"204 211 LINE"
);
}
);
width = 319;
}
);
unicode = 0058;
},
{
glyphname = Y;
lastChange = "2015-01-27 09:06:03 +0000";
layers = (
{
anchors = (
{
name = top;
position = "{159, 399}";
}
);
layerId = "E0AA17FE-947E-4089-955E-70E92921D86D";
name = Regular;
paths = (
{
closed = 1;
nodes = (
"185 165 LINE",
"314 399 LINE",
"264 399 LINE",
"165 214 LINE",
"163 214 LINE",
"61 399 LINE",
"5 399 LINE",
"134 165 LINE",
"134 0 LINE",
"185 0 LINE"
);
}
);
width = 319;
},
{
anchors = (
{
name = top;
position = "{159, 399}";
}
);
layerId = "256C563F-4683-4C38-8505-F28FAA76841F";
name = Bold;
paths = (
{
closed = 1;
nodes = (
"197 151 LINE",
"319 399 LINE",
"244 399 LINE",
"163 224 LINE",
"160 224 LINE",
"78 399 LINE",
"0 399 LINE",
"123 151 LINE",
"123 0 LINE",
"197 0 LINE"
);
}
);
width = 319;
}
);
unicode = 0059;
},
{
glyphname = Yacute;
lastChange = "2015-01-27 09:06:03 +0000";
layers = (
{
layerId = "E0AA17FE-947E-4089-955E-70E92921D86D";
name = Regular;
paths = (
{
closed = 1;
nodes = (
"314 399 LINE",
"264 399 LINE",
"165 214 LINE",
"163 214 LINE",
"61 399 LINE",
"5 399 LINE",
"134 165 LINE",
"134 0 LINE",
"185 0 LINE",
"185 165 LINE"
);
},
{
closed = 1;
nodes = (
"227 515 LINE",
"175 515 LINE",
"125 438 LINE",
"165 438 LINE",
"228 513 LINE"
);
}
);
width = 319;
},
{
layerId = "256C563F-4683-4C38-8505-F28FAA76841F";
name = Bold;
paths = (
{
closed = 1;
nodes = (
"319 399 LINE",
"244 399 LINE",
"163 224 LINE",
"160 224 LINE",
"78 399 LINE",
"0 399 LINE",
"123 151 LINE",
"123 0 LINE",
"197 0 LINE",
"197 151 LINE"
);
},
{
closed = 1;
nodes = (
"239 515 LINE",
"169 515 LINE",
"119 438 LINE",
"177 438 LINE",
"240 513 LINE"
);
}
);
width = 319;
}
);
unicode = 00DD;
},
{
glyphname = Ycircumflex;
lastChange = "2015-01-27 09:06:03 +0000";
layers = (
{
layerId = "E0AA17FE-947E-4089-955E-70E92921D86D";
name = Regular;
paths = (
{
closed = 1;
nodes = (
"185 165 LINE",
"314 399 LINE",
"264 399 LINE",
"165 214 LINE",
"163 214 LINE",
"61 399 LINE",
"5 399 LINE",
"134 165 LINE",
"134 0 LINE",
"185 0 LINE"
);
},
{
closed = 1;
nodes = (
"232 435 LINE",
"183 514 LINE",
"137 514 LINE",
"87 435 LINE",
"133 435 LINE",
"159 481 LINE",
"185 435 LINE"
);
}
);
width = 319;
},
{
layerId = "256C563F-4683-4C38-8505-F28FAA76841F";
name = Bold;
paths = (
{
closed = 1;
nodes = (
"197 151 LINE",
"319 399 LINE",
"244 399 LINE",
"163 224 LINE",
"160 224 LINE",
"78 399 LINE",
"0 399 LINE",
"123 151 LINE",
"123 0 LINE",
"197 0 LINE"
);
},
{
closed = 1;
nodes = (
"238 436 LINE",
"188 515 LINE",
"131 515 LINE",
"81 436 LINE",
"133 436 LINE",
"159 476 LINE",
"185 436 LINE"
);
}
);
width = 319;
}
);
unicode = 0176;
},
{
glyphname = Ydieresis;
lastChange = "2015-01-27 09:06:03 +0000";
layers = (
{
layerId = "E0AA17FE-947E-4089-955E-70E92921D86D";
name = Regular;
paths = (
{
closed = 1;
nodes = (
"314 399 LINE",
"264 399 LINE",
"165 214 LINE",
"163 214 LINE",
"61 399 LINE",
"5 399 LINE",
"134 165 LINE",
"134 0 LINE",
"185 0 LINE",
"185 165 LINE"
);
},
{
closed = 1;
nodes = (
"141 515 LINE",
"90 515 LINE",
"90 459 LINE",
"141 459 LINE"
);
},
{
closed = 1;
nodes = (
"229 515 LINE",
"178 515 LINE",
"178 459 LINE",
"229 459 LINE"
);
}
);
width = 319;
},
{
layerId = "256C563F-4683-4C38-8505-F28FAA76841F";
name = Bold;
paths = (
{
closed = 1;
nodes = (
"319 399 LINE",
"244 399 LINE",
"163 224 LINE",
"160 224 LINE",
"78 399 LINE",
"0 399 LINE",
"123 151 LINE",
"123 0 LINE",
"197 0 LINE",
"197 151 LINE"
);
},
{
closed = 1;
nodes = (
"138 515 LINE",
"79 515 LINE",
"79 451 LINE",
"138 451 LINE"
);
},
{
closed = 1;
nodes = (
"239 515 LINE",
"181 515 LINE",
"181 451 LINE",
"239 451 LINE"
);
}
);
width = 319;
}
);
unicode = 0178;
},
{
glyphname = Ygrave;
lastChange = "2015-01-27 09:06:03 +0000";
layers = (
{
layerId = "E0AA17FE-947E-4089-955E-70E92921D86D";
name = Regular;
paths = (
{
closed = 1;
nodes = (
"314 399 LINE",
"264 399 LINE",
"165 214 LINE",
"163 214 LINE",
"61 399 LINE",
"5 399 LINE",
"134 165 LINE",
"134 0 LINE",
"185 0 LINE",
"185 165 LINE"
);
},
{
closed = 1;
nodes = (
"144 515 LINE",
"92 515 LINE",
"91 513 LINE",
"154 438 LINE",
"194 438 LINE"
);
}
);
width = 319;
},
{
layerId = "256C563F-4683-4C38-8505-F28FAA76841F";
name = Bold;
paths = (
{
closed = 1;
nodes = (
"319 399 LINE",
"244 399 LINE",
"163 224 LINE",
"160 224 LINE",
"78 399 LINE",
"0 399 LINE",
"123 151 LINE",
"123 0 LINE",
"197 0 LINE",
"197 151 LINE"
);
},
{
closed = 1;
nodes = (
"149 515 LINE",
"79 515 LINE",
"78 513 LINE",
"142 438 LINE",
"199 438 LINE"
);
}
);
width = 319;
}
);
unicode = 1EF2;
},
{
glyphname = Z;
lastChange = "2015-01-27 09:06:03 +0000";
layers = (
{
anchors = (
{
name = top;
position = "{146, 399}";
}
);
layerId = "E0AA17FE-947E-4089-955E-70E92921D86D";
name = Regular;
paths = (
{
closed = 1;
nodes = (
"275 399 LINE",
"24 399 LINE",
"24 353 LINE",
"202 353 LINE",
"12 22 LINE",
"12 0 LINE",
"279 0 LINE",
"279 47 LINE",
"84 47 LINE",
"275 378 LINE"
);
}
);
width = 292;
},
{
anchors = (
{
name = top;
position = "{146, 399}";
}
);
layerId = "256C563F-4683-4C38-8505-F28FAA76841F";
name = Bold;
paths = (
{
closed = 1;
nodes = (
"275 399 LINE",
"22 399 LINE",
"22 333 LINE",
"173 333 LINE",
"9 28 LINE",
"9 0 LINE",
"279 0 LINE",
"279 67 LINE",
"111 67 LINE",
"275 370 LINE"
);
}
);
width = 292;
}
);
unicode = 005A;
},
{
glyphname = Zacute;
lastChange = "2015-01-27 09:06:03 +0000";
layers = (
{
layerId = "E0AA17FE-947E-4089-955E-70E92921D86D";
name = Regular;
paths = (
{
closed = 1;
nodes = (
"275 399 LINE",
"24 399 LINE",
"24 353 LINE",
"202 353 LINE",
"12 22 LINE",
"12 0 LINE",
"279 0 LINE",
"279 47 LINE",
"84 47 LINE",
"275 378 LINE"
);
},
{
closed = 1;
nodes = (
"214 515 LINE",
"161 515 LINE",
"111 438 LINE",
"152 438 LINE",
"214 513 LINE"
);
}
);
width = 292;
},
{
layerId = "256C563F-4683-4C38-8505-F28FAA76841F";
name = Bold;
paths = (
{
closed = 1;
nodes = (
"275 399 LINE",
"22 399 LINE",
"22 333 LINE",
"173 333 LINE",
"9 28 LINE",
"9 0 LINE",
"279 0 LINE",
"279 67 LINE",
"111 67 LINE",
"275 370 LINE"
);
},
{
closed = 1;
nodes = (
"226 515 LINE",
"156 515 LINE",
"106 438 LINE",
"163 438 LINE",
"227 513 LINE"
);
}
);
width = 292;
}
);
unicode = 0179;
},
{
glyphname = Zcaron;
lastChange = "2015-01-27 09:06:03 +0000";
layers = (
{
layerId = "E0AA17FE-947E-4089-955E-70E92921D86D";
name = Regular;
paths = (
{
closed = 1;
nodes = (
"275 399 LINE",
"24 399 LINE",
"24 353 LINE",
"202 353 LINE",
"12 22 LINE",
"12 0 LINE",
"279 0 LINE",
"279 47 LINE",
"84 47 LINE",
"275 378 LINE"
);
},
{
closed = 1;
nodes = (
"218 515 LINE",
"172 515 LINE",
"146 469 LINE",
"120 515 LINE",
"73 515 LINE",
"123 436 LINE",
"168 436 LINE"
);
}
);
width = 292;
},
{
layerId = "256C563F-4683-4C38-8505-F28FAA76841F";
name = Bold;
paths = (
{
closed = 1;
nodes = (
"275 399 LINE",
"22 399 LINE",
"22 333 LINE",
"173 333 LINE",
"9 28 LINE",
"9 0 LINE",
"279 0 LINE",
"279 67 LINE",
"111 67 LINE",
"275 370 LINE"
);
},
{
closed = 1;
nodes = (
"224 515 LINE",
"172 515 LINE",
"146 474 LINE",
"120 515 LINE",
"68 515 LINE",
"118 436 LINE",
"175 436 LINE"
);
}
);
width = 292;
}
);
unicode = 017D;
},
{
glyphname = Zdotaccent;
lastChange = "2015-01-27 09:06:03 +0000";
layers = (
{
layerId = "E0AA17FE-947E-4089-955E-70E92921D86D";
name = Regular;
paths = (
{
closed = 1;
nodes = (
"275 399 LINE",
"24 399 LINE",
"24 353 LINE",
"202 353 LINE",
"12 22 LINE",
"12 0 LINE",
"279 0 LINE",
"279 47 LINE",
"84 47 LINE",
"275 378 LINE"
);
},
{
closed = 1;
nodes = (
"171 515 LINE",
"121 515 LINE",
"121 459 LINE",
"171 459 LINE"
);
}
);
width = 292;
},
{
layerId = "256C563F-4683-4C38-8505-F28FAA76841F";
name = Bold;
paths = (
{
closed = 1;
nodes = (
"275 399 LINE",
"22 399 LINE",
"22 333 LINE",
"173 333 LINE",
"9 28 LINE",
"9 0 LINE",
"279 0 LINE",
"279 67 LINE",
"111 67 LINE",
"275 370 LINE"
);
},
{
closed = 1;
nodes = (
"177 515 LINE",
"115 515 LINE",
"115 447 LINE",
"177 447 LINE"
);
}
);
width = 292;
}
);
unicode = 017B;
},
{
glyphname = a;
lastChange = "2015-01-27 09:06:03 +0000";
layers = (
{
anchors = (
{
name = ogonek;
position = "{239, 6}";
},
{
name = top;
position = "{133, 306}";
}
);
layerId = "E0AA17FE-947E-4089-955E-70E92921D86D";
name = Regular;
paths = (
{
closed = 1;
nodes = (
"72 314 OFFCURVE",
"32 284 OFFCURVE",
"32 229 CURVE SMOOTH",
"32 223 OFFCURVE",
"32 219 OFFCURVE",
"32 215 CURVE",
"79 215 LINE",
"79 223 LINE SMOOTH",
"79 246 OFFCURVE",
"90 271 OFFCURVE",
"127 271 CURVE SMOOTH",
"165 271 OFFCURVE",
"175 250 OFFCURVE",
"175 221 CURVE SMOOTH",
"175 182 LINE",
"86 182 OFFCURVE",
"20 163 OFFCURVE",
"20 79 CURVE SMOOTH",
"20 5 OFFCURVE",
"70 -7 OFFCURVE",
"100 -7 CURVE SMOOTH",
"132 -7 OFFCURVE",
"159 8 OFFCURVE",
"175 33 CURVE",
"178 33 LINE",
"183 11 OFFCURVE",
"201 -5 OFFCURVE",
"226 -5 CURVE SMOOTH",
"241 -5 OFFCURVE",
"252 -1 OFFCURVE",
"258 3 CURVE",
"258 36 LINE",
"239 36 LINE SMOOTH",
"231 36 OFFCURVE",
"223 42 OFFCURVE",
"223 56 CURVE SMOOTH",
"223 228 LINE SMOOTH",
"223 282 OFFCURVE",
"192 314 OFFCURVE",
"130 314 CURVE SMOOTH"
);
},
{
closed = 1;
nodes = (
"175 111 LINE",
"175 61 OFFCURVE",
"142 36 OFFCURVE",
"111 36 CURVE SMOOTH",
"84 36 OFFCURVE",
"70 47 OFFCURVE",
"70 82 CURVE SMOOTH",
"70 130 OFFCURVE",
"113 139 OFFCURVE",
"175 139 CURVE"
);
}
);
width = 266;
},
{
anchors = (
{
name = ogonek;
position = "{239, 6}";
},
{
name = top;
position = "{133, 306}";
}
);
layerId = "256C563F-4683-4C38-8505-F28FAA76841F";
name = Bold;
paths = (
{
closed = 1;
nodes = (
"63 314 OFFCURVE",
"22 279 OFFCURVE",
"22 229 CURVE SMOOTH",
"22 223 OFFCURVE",
"22 219 OFFCURVE",
"23 215 CURVE",
"92 215 LINE",
"92 224 LINE SMOOTH",
"92 239 OFFCURVE",
"100 256 OFFCURVE",
"128 256 CURVE SMOOTH",
"155 256 OFFCURVE",
"160 239 OFFCURVE",
"160 218 CURVE SMOOTH",
"160 186 LINE",
"71 186 OFFCURVE",
"8 162 OFFCURVE",
"8 79 CURVE SMOOTH",
"8 8 OFFCURVE",
"57 -7 OFFCURVE",
"85 -7 CURVE SMOOTH",
"126 -7 OFFCURVE",
"145 9 OFFCURVE",
"163 33 CURVE",
"165 33 LINE",
"173 9 OFFCURVE",
"192 -7 OFFCURVE",
"219 -7 CURVE SMOOTH",
"241 -7 OFFCURVE",
"254 -2 OFFCURVE",
"261 3 CURVE",
"261 52 LINE",
"247 52 LINE SMOOTH",
"239 52 OFFCURVE",
"231 58 OFFCURVE",
"231 72 CURVE SMOOTH",
"231 223 LINE SMOOTH",
"231 280 OFFCURVE",
"198 314 OFFCURVE",
"127 314 CURVE SMOOTH"
);
},
{
closed = 1;
nodes = (
"160 118 LINE",
"160 82 OFFCURVE",
"148 51 OFFCURVE",
"114 51 CURVE SMOOTH",
"90 51 OFFCURVE",
"80 65 OFFCURVE",
"80 86 CURVE SMOOTH",
"80 125 OFFCURVE",
"119 136 OFFCURVE",
"160 136 CURVE"
);
}
);
width = 266;
}
);
unicode = 0061;
},
{
glyphname = aacute;
lastChange = "2015-01-27 09:06:03 +0000";
layers = (
{
layerId = "E0AA17FE-947E-4089-955E-70E92921D86D";
name = Regular;
paths = (
{
closed = 1;
nodes = (
"72 314 OFFCURVE",
"32 284 OFFCURVE",
"32 229 CURVE SMOOTH",
"32 223 OFFCURVE",
"32 219 OFFCURVE",
"32 215 CURVE",
"79 215 LINE",
"79 223 LINE SMOOTH",
"79 246 OFFCURVE",
"90 271 OFFCURVE",
"127 271 CURVE SMOOTH",
"165 271 OFFCURVE",
"175 250 OFFCURVE",
"175 221 CURVE SMOOTH",
"175 182 LINE",
"86 182 OFFCURVE",
"20 163 OFFCURVE",
"20 79 CURVE SMOOTH",
"20 5 OFFCURVE",
"70 -7 OFFCURVE",
"100 -7 CURVE SMOOTH",
"132 -7 OFFCURVE",
"159 8 OFFCURVE",
"175 33 CURVE",
"178 33 LINE",
"183 11 OFFCURVE",
"201 -5 OFFCURVE",
"226 -5 CURVE SMOOTH",
"241 -5 OFFCURVE",
"252 -1 OFFCURVE",
"258 3 CURVE",
"258 36 LINE",
"239 36 LINE SMOOTH",
"231 36 OFFCURVE",
"223 42 OFFCURVE",
"223 56 CURVE SMOOTH",
"223 228 LINE SMOOTH",
"223 282 OFFCURVE",
"192 314 OFFCURVE",
"130 314 CURVE SMOOTH"
);
},
{
closed = 1;
nodes = (
"175 111 LINE",
"175 61 OFFCURVE",
"142 36 OFFCURVE",
"111 36 CURVE SMOOTH",
"84 36 OFFCURVE",
"70 47 OFFCURVE",
"70 82 CURVE SMOOTH",
"70 130 OFFCURVE",
"113 139 OFFCURVE",
"175 139 CURVE"
);
},
{
closed = 1;
nodes = (
"198 421 LINE",
"146 421 LINE",
"96 344 LINE",
"136 344 LINE",
"198 419 LINE"
);
}
);
width = 266;
},
{
layerId = "256C563F-4683-4C38-8505-F28FAA76841F";
name = Bold;
paths = (
{
closed = 1;
nodes = (
"63 314 OFFCURVE",
"22 279 OFFCURVE",
"22 229 CURVE SMOOTH",
"22 223 OFFCURVE",
"22 219 OFFCURVE",
"23 215 CURVE",
"92 215 LINE",
"92 224 LINE SMOOTH",
"92 239 OFFCURVE",
"100 256 OFFCURVE",
"128 256 CURVE SMOOTH",
"155 256 OFFCURVE",
"160 239 OFFCURVE",
"160 218 CURVE SMOOTH",
"160 186 LINE",
"71 186 OFFCURVE",
"8 162 OFFCURVE",
"8 79 CURVE SMOOTH",
"8 8 OFFCURVE",
"57 -7 OFFCURVE",
"85 -7 CURVE SMOOTH",
"126 -7 OFFCURVE",
"145 9 OFFCURVE",
"163 33 CURVE",
"165 33 LINE",
"173 9 OFFCURVE",
"192 -7 OFFCURVE",
"219 -7 CURVE SMOOTH",
"241 -7 OFFCURVE",
"254 -2 OFFCURVE",
"261 3 CURVE",
"261 52 LINE",
"247 52 LINE SMOOTH",
"239 52 OFFCURVE",
"231 58 OFFCURVE",
"231 72 CURVE SMOOTH",
"231 223 LINE SMOOTH",
"231 280 OFFCURVE",
"198 314 OFFCURVE",
"127 314 CURVE SMOOTH"
);
},
{
closed = 1;
nodes = (
"160 118 LINE",
"160 82 OFFCURVE",
"148 51 OFFCURVE",
"114 51 CURVE SMOOTH",
"90 51 OFFCURVE",
"80 65 OFFCURVE",
"80 86 CURVE SMOOTH",
"80 125 OFFCURVE",
"119 136 OFFCURVE",
"160 136 CURVE"
);
},
{
closed = 1;
nodes = (
"206 421 LINE",
"136 421 LINE",
"86 344 LINE",
"144 344 LINE",
"207 419 LINE"
);
}
);
width = 266;
}
);
unicode = 00E1;
},
{
glyphname = abreve;
lastChange = "2015-01-27 09:06:03 +0000";
layers = (
{
layerId = "E0AA17FE-947E-4089-955E-70E92921D86D";
name = Regular;
paths = (
{
closed = 1;
nodes = (
"72 314 OFFCURVE",
"32 284 OFFCURVE",
"32 229 CURVE SMOOTH",
"32 223 OFFCURVE",
"32 219 OFFCURVE",
"32 215 CURVE",
"79 215 LINE",
"79 223 LINE SMOOTH",
"79 246 OFFCURVE",
"90 271 OFFCURVE",
"127 271 CURVE SMOOTH",
"165 271 OFFCURVE",
"175 250 OFFCURVE",
"175 221 CURVE SMOOTH",
"175 182 LINE",
"86 182 OFFCURVE",
"20 163 OFFCURVE",
"20 79 CURVE SMOOTH",
"20 5 OFFCURVE",
"70 -7 OFFCURVE",
"100 -7 CURVE SMOOTH",
"132 -7 OFFCURVE",
"159 8 OFFCURVE",
"175 33 CURVE",
"178 33 LINE",
"183 11 OFFCURVE",
"201 -5 OFFCURVE",
"226 -5 CURVE SMOOTH",
"241 -5 OFFCURVE",
"252 -1 OFFCURVE",
"258 3 CURVE",
"258 36 LINE",
"239 36 LINE SMOOTH",
"231 36 OFFCURVE",
"223 42 OFFCURVE",
"223 56 CURVE SMOOTH",
"223 228 LINE SMOOTH",
"223 282 OFFCURVE",
"192 314 OFFCURVE",
"130 314 CURVE SMOOTH"
);
},
{
closed = 1;
nodes = (
"175 111 LINE",
"175 61 OFFCURVE",
"142 36 OFFCURVE",
"111 36 CURVE SMOOTH",
"84 36 OFFCURVE",
"70 47 OFFCURVE",
"70 82 CURVE SMOOTH",
"70 130 OFFCURVE",
"113 139 OFFCURVE",
"175 139 CURVE"
);
},
{
closed = 1;
nodes = (
"168 421 LINE",
"167 413 OFFCURVE",
"153 402 OFFCURVE",
"133 402 CURVE SMOOTH",
"113 402 OFFCURVE",
"100 413 OFFCURVE",
"98 421 CURVE",
"61 421 LINE",
"61 395 OFFCURVE",
"88 364 OFFCURVE",
"133 364 CURVE SMOOTH",
"178 364 OFFCURVE",
"205 395 OFFCURVE",
"205 421 CURVE"
);
}
);
width = 266;
},
{
layerId = "256C563F-4683-4C38-8505-F28FAA76841F";
name = Bold;
paths = (
{
closed = 1;
nodes = (
"63 314 OFFCURVE",
"22 279 OFFCURVE",
"22 229 CURVE SMOOTH",
"22 223 OFFCURVE",
"22 219 OFFCURVE",
"23 215 CURVE",
"92 215 LINE",
"92 224 LINE SMOOTH",
"92 239 OFFCURVE",
"100 256 OFFCURVE",
"128 256 CURVE SMOOTH",
"155 256 OFFCURVE",
"160 239 OFFCURVE",
"160 218 CURVE SMOOTH",
"160 186 LINE",
"71 186 OFFCURVE",
"8 162 OFFCURVE",
"8 79 CURVE SMOOTH",
"8 8 OFFCURVE",
"57 -7 OFFCURVE",
"85 -7 CURVE SMOOTH",
"126 -7 OFFCURVE",
"145 9 OFFCURVE",
"163 33 CURVE",
"165 33 LINE",
"173 9 OFFCURVE",
"192 -7 OFFCURVE",
"219 -7 CURVE SMOOTH",
"241 -7 OFFCURVE",
"254 -2 OFFCURVE",
"261 3 CURVE",
"261 52 LINE",
"247 52 LINE SMOOTH",
"239 52 OFFCURVE",
"231 58 OFFCURVE",
"231 72 CURVE SMOOTH",
"231 223 LINE SMOOTH",
"231 280 OFFCURVE",
"198 314 OFFCURVE",
"127 314 CURVE SMOOTH"
);
},
{
closed = 1;
nodes = (
"160 118 LINE",
"160 82 OFFCURVE",
"148 51 OFFCURVE",
"114 51 CURVE SMOOTH",
"90 51 OFFCURVE",
"80 65 OFFCURVE",
"80 86 CURVE SMOOTH",
"80 125 OFFCURVE",
"119 136 OFFCURVE",
"160 136 CURVE"
);
},
{
closed = 1;
nodes = (
"161 421 LINE",
"159 413 OFFCURVE",
"146 402 OFFCURVE",
"126 402 CURVE SMOOTH",
"107 402 OFFCURVE",
"94 413 OFFCURVE",
"92 421 CURVE",
"48 421 LINE",
"48 392 OFFCURVE",
"78 359 OFFCURVE",
"126 359 CURVE SMOOTH",
"174 359 OFFCURVE",
"204 392 OFFCURVE",
"204 421 CURVE"
);
}
);
width = 266;
}
);
unicode = 0103;
},
{
glyphname = acircumflex;
lastChange = "2015-01-27 09:06:03 +0000";
layers = (
{
layerId = "E0AA17FE-947E-4089-955E-70E92921D86D";
name = Regular;
paths = (
{
closed = 1;
nodes = (
"72 314 OFFCURVE",
"32 284 OFFCURVE",
"32 229 CURVE SMOOTH",
"32 223 OFFCURVE",
"32 219 OFFCURVE",
"32 215 CURVE",
"79 215 LINE",
"79 223 LINE SMOOTH",
"79 246 OFFCURVE",
"90 271 OFFCURVE",
"127 271 CURVE SMOOTH",
"165 271 OFFCURVE",
"175 250 OFFCURVE",
"175 221 CURVE SMOOTH",
"175 182 LINE",
"86 182 OFFCURVE",
"20 163 OFFCURVE",
"20 79 CURVE SMOOTH",
"20 5 OFFCURVE",
"70 -7 OFFCURVE",
"100 -7 CURVE SMOOTH",
"132 -7 OFFCURVE",
"159 8 OFFCURVE",
"175 33 CURVE",
"178 33 LINE",
"183 11 OFFCURVE",
"201 -5 OFFCURVE",
"226 -5 CURVE SMOOTH",
"241 -5 OFFCURVE",
"252 -1 OFFCURVE",
"258 3 CURVE",
"258 36 LINE",
"239 36 LINE SMOOTH",
"231 36 OFFCURVE",
"223 42 OFFCURVE",
"223 56 CURVE SMOOTH",
"223 228 LINE SMOOTH",
"223 282 OFFCURVE",
"192 314 OFFCURVE",
"130 314 CURVE SMOOTH"
);
},
{
closed = 1;
nodes = (
"175 111 LINE",
"175 61 OFFCURVE",
"142 36 OFFCURVE",
"111 36 CURVE SMOOTH",
"84 36 OFFCURVE",
"70 47 OFFCURVE",
"70 82 CURVE SMOOTH",
"70 130 OFFCURVE",
"113 139 OFFCURVE",
"175 139 CURVE"
);
},
{
closed = 1;
nodes = (
"206 342 LINE",
"156 420 LINE",
"110 420 LINE",
"61 342 LINE",
"107 342 LINE",
"133 388 LINE",
"159 342 LINE"
);
}
);
width = 266;
},
{
layerId = "256C563F-4683-4C38-8505-F28FAA76841F";
name = Bold;
paths = (
{
closed = 1;
nodes = (
"63 314 OFFCURVE",
"22 279 OFFCURVE",
"22 229 CURVE SMOOTH",
"22 223 OFFCURVE",
"22 219 OFFCURVE",
"23 215 CURVE",
"92 215 LINE",
"92 224 LINE SMOOTH",
"92 239 OFFCURVE",
"100 256 OFFCURVE",
"128 256 CURVE SMOOTH",
"155 256 OFFCURVE",
"160 239 OFFCURVE",
"160 218 CURVE SMOOTH",
"160 186 LINE",
"71 186 OFFCURVE",
"8 162 OFFCURVE",
"8 79 CURVE SMOOTH",
"8 8 OFFCURVE",
"57 -7 OFFCURVE",
"85 -7 CURVE SMOOTH",
"126 -7 OFFCURVE",
"145 9 OFFCURVE",
"163 33 CURVE",
"165 33 LINE",
"173 9 OFFCURVE",
"192 -7 OFFCURVE",
"219 -7 CURVE SMOOTH",
"241 -7 OFFCURVE",
"254 -2 OFFCURVE",
"261 3 CURVE",
"261 52 LINE",
"247 52 LINE SMOOTH",
"239 52 OFFCURVE",
"231 58 OFFCURVE",
"231 72 CURVE SMOOTH",
"231 223 LINE SMOOTH",
"231 280 OFFCURVE",
"198 314 OFFCURVE",
"127 314 CURVE SMOOTH"
);
},
{
closed = 1;
nodes = (
"160 118 LINE",
"160 82 OFFCURVE",
"148 51 OFFCURVE",
"114 51 CURVE SMOOTH",
"90 51 OFFCURVE",
"80 65 OFFCURVE",
"80 86 CURVE SMOOTH",
"80 125 OFFCURVE",
"119 136 OFFCURVE",
"160 136 CURVE"
);
},
{
closed = 1;
nodes = (
"205 343 LINE",
"156 421 LINE",
"98 421 LINE",
"48 343 LINE",
"100 343 LINE",
"127 383 LINE",
"153 343 LINE"
);
}
);
width = 266;
}
);
unicode = 00E2;
},
{
glyphname = adieresis;
lastChange = "2015-01-27 09:06:03 +0000";
layers = (
{
layerId = "E0AA17FE-947E-4089-955E-70E92921D86D";
name = Regular;
paths = (
{
closed = 1;
nodes = (
"72 314 OFFCURVE",
"32 284 OFFCURVE",
"32 229 CURVE SMOOTH",
"32 223 OFFCURVE",
"32 219 OFFCURVE",
"32 215 CURVE",
"79 215 LINE",
"79 223 LINE SMOOTH",
"79 246 OFFCURVE",
"90 271 OFFCURVE",
"127 271 CURVE SMOOTH",
"165 271 OFFCURVE",
"175 250 OFFCURVE",
"175 221 CURVE SMOOTH",
"175 182 LINE",
"86 182 OFFCURVE",
"20 163 OFFCURVE",
"20 79 CURVE SMOOTH",
"20 5 OFFCURVE",
"70 -7 OFFCURVE",
"100 -7 CURVE SMOOTH",
"132 -7 OFFCURVE",
"159 8 OFFCURVE",
"175 33 CURVE",
"178 33 LINE",
"183 11 OFFCURVE",
"201 -5 OFFCURVE",
"226 -5 CURVE SMOOTH",
"241 -5 OFFCURVE",
"252 -1 OFFCURVE",
"258 3 CURVE",
"258 36 LINE",
"239 36 LINE SMOOTH",
"231 36 OFFCURVE",
"223 42 OFFCURVE",
"223 56 CURVE SMOOTH",
"223 228 LINE SMOOTH",
"223 282 OFFCURVE",
"192 314 OFFCURVE",
"130 314 CURVE SMOOTH"
);
},
{
closed = 1;
nodes = (
"175 111 LINE",
"175 61 OFFCURVE",
"142 36 OFFCURVE",
"111 36 CURVE SMOOTH",
"84 36 OFFCURVE",
"70 47 OFFCURVE",
"70 82 CURVE SMOOTH",
"70 130 OFFCURVE",
"113 139 OFFCURVE",
"175 139 CURVE"
);
},
{
closed = 1;
nodes = (
"114 421 LINE",
"63 421 LINE",
"63 366 LINE",
"114 366 LINE"
);
},
{
closed = 1;
nodes = (
"202 421 LINE",
"151 421 LINE",
"151 366 LINE",
"202 366 LINE"
);
}
);
width = 266;
},
{
layerId = "256C563F-4683-4C38-8505-F28FAA76841F";
name = Bold;
paths = (
{
closed = 1;
nodes = (
"63 314 OFFCURVE",
"22 279 OFFCURVE",
"22 229 CURVE SMOOTH",
"22 223 OFFCURVE",
"22 219 OFFCURVE",
"23 215 CURVE",
"92 215 LINE",
"92 224 LINE SMOOTH",
"92 239 OFFCURVE",
"100 256 OFFCURVE",
"128 256 CURVE SMOOTH",
"155 256 OFFCURVE",
"160 239 OFFCURVE",
"160 218 CURVE SMOOTH",
"160 186 LINE",
"71 186 OFFCURVE",
"8 162 OFFCURVE",
"8 79 CURVE SMOOTH",
"8 8 OFFCURVE",
"57 -7 OFFCURVE",
"85 -7 CURVE SMOOTH",
"126 -7 OFFCURVE",
"145 9 OFFCURVE",
"163 33 CURVE",
"165 33 LINE",
"173 9 OFFCURVE",
"192 -7 OFFCURVE",
"219 -7 CURVE SMOOTH",
"241 -7 OFFCURVE",
"254 -2 OFFCURVE",
"261 3 CURVE",
"261 52 LINE",
"247 52 LINE SMOOTH",
"239 52 OFFCURVE",
"231 58 OFFCURVE",
"231 72 CURVE SMOOTH",
"231 223 LINE SMOOTH",
"231 280 OFFCURVE",
"198 314 OFFCURVE",
"127 314 CURVE SMOOTH"
);
},
{
closed = 1;
nodes = (
"160 118 LINE",
"160 82 OFFCURVE",
"148 51 OFFCURVE",
"114 51 CURVE SMOOTH",
"90 51 OFFCURVE",
"80 65 OFFCURVE",
"80 86 CURVE SMOOTH",
"80 125 OFFCURVE",
"119 136 OFFCURVE",
"160 136 CURVE"
);
},
{
closed = 1;
nodes = (
"105 421 LINE",
"47 421 LINE",
"47 358 LINE",
"105 358 LINE"
);
},
{
closed = 1;
nodes = (
"206 421 LINE",
"148 421 LINE",
"148 358 LINE",
"206 358 LINE"
);
}
);
width = 266;
}
);
unicode = 00E4;
},
{
glyphname = agrave;
lastChange = "2015-01-27 09:06:03 +0000";
layers = (
{
layerId = "E0AA17FE-947E-4089-955E-70E92921D86D";
name = Regular;
paths = (
{
closed = 1;
nodes = (
"72 314 OFFCURVE",
"32 284 OFFCURVE",
"32 229 CURVE SMOOTH",
"32 223 OFFCURVE",
"32 219 OFFCURVE",
"32 215 CURVE",
"79 215 LINE",
"79 223 LINE SMOOTH",
"79 246 OFFCURVE",
"90 271 OFFCURVE",
"127 271 CURVE SMOOTH",
"165 271 OFFCURVE",
"175 250 OFFCURVE",
"175 221 CURVE SMOOTH",
"175 182 LINE",
"86 182 OFFCURVE",
"20 163 OFFCURVE",
"20 79 CURVE SMOOTH",
"20 5 OFFCURVE",
"70 -7 OFFCURVE",
"100 -7 CURVE SMOOTH",
"132 -7 OFFCURVE",
"159 8 OFFCURVE",
"175 33 CURVE",
"178 33 LINE",
"183 11 OFFCURVE",
"201 -5 OFFCURVE",
"226 -5 CURVE SMOOTH",
"241 -5 OFFCURVE",
"252 -1 OFFCURVE",
"258 3 CURVE",
"258 36 LINE",
"239 36 LINE SMOOTH",
"231 36 OFFCURVE",
"223 42 OFFCURVE",
"223 56 CURVE SMOOTH",
"223 228 LINE SMOOTH",
"223 282 OFFCURVE",
"192 314 OFFCURVE",
"130 314 CURVE SMOOTH"
);
},
{
closed = 1;
nodes = (
"175 111 LINE",
"175 61 OFFCURVE",
"142 36 OFFCURVE",
"111 36 CURVE SMOOTH",
"84 36 OFFCURVE",
"70 47 OFFCURVE",
"70 82 CURVE SMOOTH",
"70 130 OFFCURVE",
"113 139 OFFCURVE",
"175 139 CURVE"
);
},
{
closed = 1;
nodes = (
"115 421 LINE",
"63 421 LINE",
"62 419 LINE",
"125 344 LINE",
"165 344 LINE"
);
}
);
width = 266;
},
{
layerId = "256C563F-4683-4C38-8505-F28FAA76841F";
name = Bold;
paths = (
{
closed = 1;
nodes = (
"63 314 OFFCURVE",
"22 279 OFFCURVE",
"22 229 CURVE SMOOTH",
"22 223 OFFCURVE",
"22 219 OFFCURVE",
"23 215 CURVE",
"92 215 LINE",
"92 224 LINE SMOOTH",
"92 239 OFFCURVE",
"100 256 OFFCURVE",
"128 256 CURVE SMOOTH",
"155 256 OFFCURVE",
"160 239 OFFCURVE",
"160 218 CURVE SMOOTH",
"160 186 LINE",
"71 186 OFFCURVE",
"8 162 OFFCURVE",
"8 79 CURVE SMOOTH",
"8 8 OFFCURVE",
"57 -7 OFFCURVE",
"85 -7 CURVE SMOOTH",
"126 -7 OFFCURVE",
"145 9 OFFCURVE",
"163 33 CURVE",
"165 33 LINE",
"173 9 OFFCURVE",
"192 -7 OFFCURVE",
"219 -7 CURVE SMOOTH",
"241 -7 OFFCURVE",
"254 -2 OFFCURVE",
"261 3 CURVE",
"261 52 LINE",
"247 52 LINE SMOOTH",
"239 52 OFFCURVE",
"231 58 OFFCURVE",
"231 72 CURVE SMOOTH",
"231 223 LINE SMOOTH",
"231 280 OFFCURVE",
"198 314 OFFCURVE",
"127 314 CURVE SMOOTH"
);
},
{
closed = 1;
nodes = (
"160 118 LINE",
"160 82 OFFCURVE",
"148 51 OFFCURVE",
"114 51 CURVE SMOOTH",
"90 51 OFFCURVE",
"80 65 OFFCURVE",
"80 86 CURVE SMOOTH",
"80 125 OFFCURVE",
"119 136 OFFCURVE",
"160 136 CURVE"
);
},
{
closed = 1;
nodes = (
"117 421 LINE",
"47 421 LINE",
"46 419 LINE",
"109 344 LINE",
"167 344 LINE"
);
}
);
width = 266;
}
);
unicode = 00E0;
},
{
glyphname = amacron;
lastChange = "2015-01-27 09:06:03 +0000";
layers = (
{
layerId = "E0AA17FE-947E-4089-955E-70E92921D86D";
name = Regular;
paths = (
{
closed = 1;
nodes = (
"72 314 OFFCURVE",
"32 284 OFFCURVE",
"32 229 CURVE SMOOTH",
"32 223 OFFCURVE",
"32 219 OFFCURVE",
"32 215 CURVE",
"79 215 LINE",
"79 223 LINE SMOOTH",
"79 246 OFFCURVE",
"90 271 OFFCURVE",
"127 271 CURVE SMOOTH",
"165 271 OFFCURVE",
"175 250 OFFCURVE",
"175 221 CURVE SMOOTH",
"175 182 LINE",
"86 182 OFFCURVE",
"20 163 OFFCURVE",
"20 79 CURVE SMOOTH",
"20 5 OFFCURVE",
"70 -7 OFFCURVE",
"100 -7 CURVE SMOOTH",
"132 -7 OFFCURVE",
"159 8 OFFCURVE",
"175 33 CURVE",
"178 33 LINE",
"183 11 OFFCURVE",
"201 -5 OFFCURVE",
"226 -5 CURVE SMOOTH",
"241 -5 OFFCURVE",
"252 -1 OFFCURVE",
"258 3 CURVE",
"258 36 LINE",
"239 36 LINE SMOOTH",
"231 36 OFFCURVE",
"223 42 OFFCURVE",
"223 56 CURVE SMOOTH",
"223 228 LINE SMOOTH",
"223 282 OFFCURVE",
"192 314 OFFCURVE",
"130 314 CURVE SMOOTH"
);
},
{
closed = 1;
nodes = (
"175 111 LINE",
"175 61 OFFCURVE",
"142 36 OFFCURVE",
"111 36 CURVE SMOOTH",
"84 36 OFFCURVE",
"70 47 OFFCURVE",
"70 82 CURVE SMOOTH",
"70 130 OFFCURVE",
"113 139 OFFCURVE",
"175 139 CURVE"
);
},
{
closed = 1;
nodes = (
"206 349 LINE",
"206 391 LINE",
"60 391 LINE",
"60 349 LINE"
);
}
);
width = 266;
},
{
layerId = "256C563F-4683-4C38-8505-F28FAA76841F";
name = Bold;
paths = (
{
closed = 1;
nodes = (
"63 314 OFFCURVE",
"22 279 OFFCURVE",
"22 229 CURVE SMOOTH",
"22 223 OFFCURVE",
"22 219 OFFCURVE",
"23 215 CURVE",
"92 215 LINE",
"92 224 LINE SMOOTH",
"92 239 OFFCURVE",
"100 256 OFFCURVE",
"128 256 CURVE SMOOTH",
"155 256 OFFCURVE",
"160 239 OFFCURVE",
"160 218 CURVE SMOOTH",
"160 186 LINE",
"71 186 OFFCURVE",
"8 162 OFFCURVE",
"8 79 CURVE SMOOTH",
"8 8 OFFCURVE",
"57 -7 OFFCURVE",
"85 -7 CURVE SMOOTH",
"126 -7 OFFCURVE",
"145 9 OFFCURVE",
"163 33 CURVE",
"165 33 LINE",
"173 9 OFFCURVE",
"192 -7 OFFCURVE",
"219 -7 CURVE SMOOTH",
"241 -7 OFFCURVE",
"254 -2 OFFCURVE",
"261 3 CURVE",
"261 52 LINE",
"247 52 LINE SMOOTH",
"239 52 OFFCURVE",
"231 58 OFFCURVE",
"231 72 CURVE SMOOTH",
"231 223 LINE SMOOTH",
"231 280 OFFCURVE",
"198 314 OFFCURVE",
"127 314 CURVE SMOOTH"
);
},
{
closed = 1;
nodes = (
"160 118 LINE",
"160 82 OFFCURVE",
"148 51 OFFCURVE",
"114 51 CURVE SMOOTH",
"90 51 OFFCURVE",
"80 65 OFFCURVE",
"80 86 CURVE SMOOTH",
"80 125 OFFCURVE",
"119 136 OFFCURVE",
"160 136 CURVE"
);
},
{
closed = 1;
nodes = (
"201 349 LINE",
"201 399 LINE",
"52 399 LINE",
"52 349 LINE"
);
}
);
width = 266;
}
);
unicode = 0101;
},
{
glyphname = aogonek;
lastChange = "2015-01-27 09:06:03 +0000";
layers = (
{
layerId = "E0AA17FE-947E-4089-955E-70E92921D86D";
name = Regular;
paths = (
{
closed = 1;
nodes = (
"287 -68 LINE",
"269 -68 LINE SMOOTH",
"249 -68 OFFCURVE",
"243 -53 OFFCURVE",
"243 -36 CURVE SMOOTH",
"243 -21 OFFCURVE",
"250 -7 OFFCURVE",
"258 3 CURVE",
"258 36 LINE",
"239 36 LINE SMOOTH",
"231 36 OFFCURVE",
"223 42 OFFCURVE",
"223 56 CURVE SMOOTH",
"223 228 LINE SMOOTH",
"223 282 OFFCURVE",
"192 314 OFFCURVE",
"130 314 CURVE SMOOTH",
"72 314 OFFCURVE",
"32 284 OFFCURVE",
"32 229 CURVE SMOOTH",
"32 223 OFFCURVE",
"32 219 OFFCURVE",
"32 215 CURVE",
"79 215 LINE",
"79 223 LINE SMOOTH",
"79 246 OFFCURVE",
"90 271 OFFCURVE",
"127 271 CURVE SMOOTH",
"165 271 OFFCURVE",
"175 250 OFFCURVE",
"175 221 CURVE SMOOTH",
"175 182 LINE",
"86 182 OFFCURVE",
"20 163 OFFCURVE",
"20 79 CURVE SMOOTH",
"20 5 OFFCURVE",
"70 -7 OFFCURVE",
"100 -7 CURVE SMOOTH",
"132 -7 OFFCURVE",
"159 8 OFFCURVE",
"175 33 CURVE",
"178 33 LINE",
"183 14 OFFCURVE",
"196 1 OFFCURVE",
"214 -3 CURVE",
"204 -16 OFFCURVE",
"197 -31 OFFCURVE",
"197 -53 CURVE SMOOTH",
"197 -94 OFFCURVE",
"227 -106 OFFCURVE",
"252 -106 CURVE SMOOTH",
"264 -106 OFFCURVE",
"275 -103 OFFCURVE",
"287 -98 CURVE"
);
},
{
closed = 1;
nodes = (
"175 111 LINE",
"175 61 OFFCURVE",
"142 36 OFFCURVE",
"111 36 CURVE SMOOTH",
"84 36 OFFCURVE",
"70 47 OFFCURVE",
"70 82 CURVE SMOOTH",
"70 130 OFFCURVE",
"113 139 OFFCURVE",
"175 139 CURVE"
);
}
);
width = 266;
},
{
layerId = "256C563F-4683-4C38-8505-F28FAA76841F";
name = Bold;
paths = (
{
closed = 1;
nodes = (
"283 -68 LINE",
"270 -68 LINE SMOOTH",
"250 -68 OFFCURVE",
"244 -53 OFFCURVE",
"244 -38 CURVE SMOOTH",
"244 -22 OFFCURVE",
"254 -6 OFFCURVE",
"261 3 CURVE",
"261 52 LINE",
"247 52 LINE SMOOTH",
"239 52 OFFCURVE",
"231 58 OFFCURVE",
"231 72 CURVE SMOOTH",
"231 223 LINE SMOOTH",
"231 280 OFFCURVE",
"198 314 OFFCURVE",
"127 314 CURVE SMOOTH",
"63 314 OFFCURVE",
"22 279 OFFCURVE",
"22 229 CURVE SMOOTH",
"22 223 OFFCURVE",
"22 219 OFFCURVE",
"23 215 CURVE",
"92 215 LINE",
"92 224 LINE SMOOTH",
"92 239 OFFCURVE",
"100 256 OFFCURVE",
"128 256 CURVE SMOOTH",
"155 256 OFFCURVE",
"160 239 OFFCURVE",
"160 218 CURVE SMOOTH",
"160 186 LINE",
"71 186 OFFCURVE",
"8 162 OFFCURVE",
"8 79 CURVE SMOOTH",
"8 8 OFFCURVE",
"57 -7 OFFCURVE",
"85 -7 CURVE SMOOTH",
"126 -7 OFFCURVE",
"145 9 OFFCURVE",
"163 33 CURVE",
"165 33 LINE",
"171 14 OFFCURVE",
"185 -1 OFFCURVE",
"204 -5 CURVE",
"194 -18 OFFCURVE",
"186 -33 OFFCURVE",
"186 -56 CURVE SMOOTH",
"186 -96 OFFCURVE",
"218 -108 OFFCURVE",
"244 -108 CURVE SMOOTH",
"257 -108 OFFCURVE",
"269 -105 OFFCURVE",
"283 -100 CURVE"
);
},
{
closed = 1;
nodes = (
"160 118 LINE",
"160 82 OFFCURVE",
"148 51 OFFCURVE",
"114 51 CURVE SMOOTH",
"90 51 OFFCURVE",
"80 65 OFFCURVE",
"80 86 CURVE SMOOTH",
"80 125 OFFCURVE",
"119 136 OFFCURVE",
"160 136 CURVE"
);
}
);
width = 266;
}
);
unicode = 0105;
},
